<?xml version="1.0" encoding="UTF-8" standalone="no"?>
<!-- Created with Inkscape (http://www.inkscape.org/) -->

<svg
   width="170.31786mm"
   height="82.315193mm"
   viewBox="0 0 170.31786 82.315193"
   version="1.1"
   id="svg1"
   sodipodi:docname="SKIA.svg"
   inkscape:version="1.4.3 (1:1.4.3+202512261035+0d15f75042)"
   xmlns:inkscape="http://www.inkscape.org/namespaces/inkscape"
   xmlns:sodipodi="http://sodipodi.sourceforge.net/DTD/sodipodi-0.dtd"
   xmlns:xlink="http://www.w3.org/1999/xlink"
   xmlns="http://www.w3.org/2000/svg"
   xmlns:svg="http://www.w3.org/2000/svg">
  <sodipodi:namedview
     id="namedview1"
     pagecolor="#ffffff"
     bordercolor="#000000"
     borderopacity="0.25"
     inkscape:showpageshadow="2"
     inkscape:pageopacity="0.0"
     inkscape:pagecheckerboard="0"
     inkscape:deskcolor="#d1d1d1"
     inkscape:document-units="mm"
     inkscape:zoom="1.0048822"
     inkscape:cx="222.41413"
     inkscape:cy="35.825095"
     inkscape:window-width="1920"
     inkscape:window-height="1168"
     inkscape:window-x="2560"
     inkscape:window-y="0"
     inkscape:window-maximized="1"
     inkscape:current-layer="layer1" />
  <defs
     id="defs1">
    <linearGradient
       id="linearGradient4">
      <stop
         style="stop-color:#000000;stop-opacity:1;"
         offset="0"
         id="stop6" />
      <stop
         style="stop-color:#000000;stop-opacity:0;"
         offset="1"
         id="stop7" />
    </linearGradient>
    <linearGradient
       id="r"
       gradientTransform="matrix(0.59837128,0,0,0.08065796,13.995473,84.074338)"
       x1="0"
       y1="0"
       x2="212.13203"
       y2="0"
       gradientUnits="userSpaceOnUse">
      <stop
         offset="0"
         stop-color="red"
         id="stop1" />
      <stop
         offset="0.333"
         stop-color="#ff0"
         id="stop2" />
      <stop
         offset="0.5"
         stop-color="#0f0"
         id="stop3" />
      <stop
         offset="0.666"
         stop-color="cyan"
         id="stop4" />
      <stop
         offset="0.833"
         stop-color="blue"
         id="stop5" />
      <stop
         offset="1"
         stop-color="#f0f"
         id="stop6-4" />
    </linearGradient>
    <linearGradient
       inkscape:collect="always"
       xlink:href="#r"
       id="linearGradient7"
       gradientUnits="userSpaceOnUse"
       gradientTransform="matrix(0.12778301,0,0,0.68780907,95.567948,1.1511339)"
       x1="0"
       y1="0"
       x2="212.13203"
       y2="0" />
    <linearGradient
       inkscape:collect="always"
       xlink:href="#r"
       id="linearGradient17"
       gradientUnits="userSpaceOnUse"
       gradientTransform="matrix(1.4142136,0,0,0.68780904,1.1091482e-4,1.1511065)"
       x1="0"
       y1="0"
       x2="212.13203"
       y2="0" />
    <clipPath
       clipPathUnits="userSpaceOnUse"
       id="clipPath1">
      <path
         style="font-variation-settings:'wght' 700;opacity:0.500053;fill:none;fill-opacity:1;stroke:#000000;stroke-width:0.833768;stroke-linecap:round;stroke-linejoin:round;stroke-miterlimit:0;stroke-dasharray:none;stroke-opacity:1;paint-order:markers stroke fill"
         d="M 209.99999,81.219852 190.28389,1.151397 32.85994,1.3154196 14.761085,7.7239463 8.8493462,21.803213 14.294368,38.449427 23.317547,47.317041 32.4963,61.707472 26.662348,71.74185 14.605512,76.020099 -2.5302225e-6,72.830854 v 5.157777 L 25.806702,81.219852 Z"
         id="path3" />
    </clipPath>
  </defs>
  <g
     inkscape:label="Layer 1"
     inkscape:groupmode="layer"
     id="layer1">
    <rect
       width="99.999992%"
       height="97.270889%"
       fill="url(#r)"
       id="rect6"
       x="-2.0000934e-06"
       y="1.1511271"
       style="display:none;opacity:0.7;fill:url(#linearGradient17);stroke-width:0.986259"
       clip-path="url(#clipPath1)" />
    <rect
       width="9.0356236%"
       height="97.270889%"
       fill="url(#r)"
       id="rect6-4"
       x="95.568062"
       y="1.1511326"
       style="fill:url(#linearGradient7);stroke-width:0.296461" />
    <path
       id="path4"
       style="font-size:47.4571px;line-height:1;font-family:'Open Sans';-inkscape-font-specification:'Open Sans, @wght=700';font-variation-settings:'wght' 700;text-align:center;letter-spacing:-2.64583px;stroke:none;stroke-width:1;stroke-linecap:round;stroke-linejoin:round;stroke-miterlimit:0;stroke-dasharray:none;stroke-opacity:1;paint-order:markers stroke fill"
       d="M 130.72198,1.1513989 111.33443,81.220042 h 16.48443 l 4.16232,-19.277639 H 149.781 l 4.16234,19.277639 h 16.37451 L 150.60174,1.1513989 Z m 10.13225,11.8836451 c 0.18255,1.350908 0.38305,2.812195 0.60212,4.382169 0.25557,1.533459 0.51142,3.139901 0.767,4.819408 0.29209,1.679516 0.58361,3.395418 0.8757,5.147958 l 4.32599,21.193921 h -13.08912 l 4.27227,-21.413766 c 0.36511,-1.716024 0.69353,-3.413478 0.98561,-5.092984 0.2921,-1.679517 0.54794,-3.285959 0.76701,-4.819418 0.21905,-1.533464 0.38388,-2.939402 0.49342,-4.217288 z" />
    <path
       style="font-size:47.4571px;line-height:1;font-family:'Open Sans';-inkscape-font-specification:'Open Sans, @wght=700';font-variation-settings:'wght' 700;text-align:center;letter-spacing:-2.64583px;fill:none;stroke:#000000;stroke-width:0.833768;stroke-linecap:round;stroke-linejoin:round;stroke-miterlimit:0;stroke-dasharray:none;stroke-opacity:1;paint-order:markers stroke fill"
       d="M 95.567957,81.219859 V 1.1511301 H 110.95734 V 81.219859 Z"
       id="path2" />
    <path
       style="font-size:47.4571px;line-height:1;font-family:'Open Sans';-inkscape-font-specification:'Open Sans, @wght=700';font-variation-settings:'wght' 700;text-align:center;letter-spacing:-2.64583px;stroke-width:14.0732;stroke-linecap:round;stroke-linejoin:round;stroke-miterlimit:0;paint-order:markers stroke fill"
       d="M 95.567957,81.219859 H 78.535602 L 64.953491,48.578978 60.0245,53.069834 V 81.219859 H 44.635094 V 1.1511301 H 60.0245 V 38.063797 q 0.4929,-2.135903 1.75253,-4.764698 1.314398,-2.683556 3.066928,-6.024315 L 78.864202,1.1511301 H 95.348887 L 75.797274,36.804169 Z"
       id="path1" />
    <path
       style="font-size:47.4571px;line-height:1;font-family:'Open Sans';-inkscape-font-specification:'Open Sans, @wght=700';font-variation-settings:'wght' 700;text-align:center;letter-spacing:-2.64583px;stroke-width:14.0732;stroke-linecap:round;stroke-linejoin:round;stroke-miterlimit:0;paint-order:markers stroke fill"
       d="m 42.170258,57.779772 q 0,7.229162 -2.902629,12.760605 -2.902628,5.531412 -8.214986,8.65312 -5.25759,3.121699 -12.43201,3.121699 -3.34076,0 -6.462456,-0.438133 Q 9.0364838,81.493681 6.0243222,80.562655 3.0121601,79.57687 1.8693373e-8,77.98864 V 62.270618 Q 4.3813259,65.118485 9.0912491,66.597163 q 4.7099249,1.478719 8.7078839,1.478719 2.957396,0 4.874226,-1.150096 1.971596,-1.150097 2.902628,-3.121709 0.985797,-1.971591 0.985797,-4.436076 0,-2.628795 -0.821498,-4.600407 Q 24.918788,52.741233 22.563825,50.769651 20.263629,48.743289 15.77277,46.114484 12.267711,44.033352 9.4198481,41.842689 6.6267527,39.652026 4.6003905,37.023231 2.6287937,34.339665 1.5882305,30.834615 0.54766511,27.329554 0.54766511,22.564856 0.49290592,15.773803 3.1764587,10.680514 5.9147884,5.5872231 11.008078,2.7941287 q 5.148058,-2.84786365 12.322479,-2.7930953 4.874226,0 9.529384,1.3143977 4.709925,1.3143977 9.036483,3.7241268 L 37.679398,18.621663 q -3.888425,-2.35496 -7.338719,-3.450291 -3.450295,-1.150098 -6.462456,-1.150098 -2.628797,0 -4.436091,1.040564 -1.752531,0.985798 -2.683562,2.73833 -0.876266,1.75252 -0.876266,3.997964 0,2.847856 0.876266,4.819448 0.876263,1.971601 3.285992,3.888433 2.464497,1.86206 7.064889,4.490856 4.983757,2.902627 8.324518,6.188606 3.340761,3.231249 5.038525,7.283983 1.697764,3.997943 1.697764,9.310314 z"
       id="text1" />
  </g>
</svg>
