<?xml version="1.0" encoding="UTF-8" standalone="no"?>
<!-- Created with Inkscape (http://www.inkscape.org/) -->

<svg
   version="1.1"
   id="svg1"
   width="141.33333"
   height="141.33333"
   viewBox="0 0 141.33333 141.33333"
   sodipodi:docname="ICC_V4_Logo.svg"
   inkscape:version="1.4.3 (1:1.4.3+202512261035+0d15f75042)"
   xmlns:inkscape="http://www.inkscape.org/namespaces/inkscape"
   xmlns:sodipodi="http://sodipodi.sourceforge.net/DTD/sodipodi-0.dtd"
   xmlns="http://www.w3.org/2000/svg"
   xmlns:svg="http://www.w3.org/2000/svg">
  <defs
     id="defs1">
    <clipPath
       clipPathUnits="userSpaceOnUse"
       id="clipPath28">
      <path
         d="M 12.3047,533.20699 C 12.3047,819.813 244.64501,1052.15 531.25001,1052.15 817.85902,1052.15 1050.2,819.813 1050.2,533.20699 1050.2,246.59398 817.85902,14.257775 531.25001,14.257775 244.64501,14.257775 12.3047,246.59398 12.3047,533.20699 Z"
         id="path28" />
    </clipPath>
  </defs>
  <sodipodi:namedview
     id="namedview1"
     pagecolor="#ffffff"
     bordercolor="#000000"
     borderopacity="0.25"
     inkscape:showpageshadow="2"
     inkscape:pageopacity="0.0"
     inkscape:pagecheckerboard="0"
     inkscape:deskcolor="#d1d1d1"
     inkscape:zoom="6.5660381"
     inkscape:cx="70.666663"
     inkscape:cy="70.666663"
     inkscape:window-width="1920"
     inkscape:window-height="1168"
     inkscape:window-x="2560"
     inkscape:window-y="0"
     inkscape:window-maximized="1"
     inkscape:current-layer="g1">
    <inkscape:page
       x="0"
       y="0"
       inkscape:label="1"
       id="page1"
       width="141.33333"
       height="141.33333"
       margin="0"
       bleed="0" />
  </sodipodi:namedview>
  <g
     id="g1"
     inkscape:groupmode="layer"
     inkscape:label="1">
    <path
       id="path1"
       d="M 535.699,531.504 126.449,854.895 C 55.082,765.82 12.2969,652.852 12.2969,529.836 c 0,-40.488 4.7773,-79.848 13.5273,-117.668 l 509.8638,119.312 0.011,0.024 v 0"
       style="fill:#009857;fill-opacity:1;fill-rule:nonzero;stroke:none"
       transform="matrix(0.13333333,0,0,-0.13333333,0,141.33333)" />
    <path
       id="path2"
       d="m 535.676,1050.14 c -1.008,0 -1.992,0.07 -3,0.07 -164.379,0 -310.863,-76.292 -406.227,-195.315 l 409.25,-323.391 -0.023,518.636 v 0"
       style="fill:#e31b22;fill-opacity:1;fill-rule:nonzero;stroke:none"
       transform="matrix(0.13333333,0,0,-0.13333333,0,141.33333)" />
    <path
       id="path3"
       d="M 938.867,854.941 C 844.094,973.215 698.816,1049.21 535.676,1050.14 l 0.023,-518.636 403.168,323.437 v 0"
       style="fill:#00adef;fill-opacity:1;fill-rule:nonzero;stroke:none"
       transform="matrix(0.13333333,0,0,-0.13333333,0,141.33333)" />
    <path
       id="path4"
       d="m 938.867,854.941 -403.168,-323.437 0.047,-0.008 h 0.02 -0.02 L 1040.7,417.266 c 8.01,36.257 12.36,73.898 12.36,112.57 0,123.035 -42.79,236.023 -114.193,325.105 v 0"
       style="fill:#ec008c;fill-opacity:1;fill-rule:nonzero;stroke:none"
       transform="matrix(0.13333333,0,0,-0.13333333,0,141.33333)" />
    <path
       id="path5"
       d="M 535.715,531.48 762.004,62.6758 C 901.887,131.477 1006.28,261.199 1040.7,417.266 l -504.954,114.23 -0.031,-0.016 v 0"
       style="fill:#fff200;fill-opacity:1;fill-rule:nonzero;stroke:none"
       transform="matrix(0.13333333,0,0,-0.13333333,0,141.33333)" />
    <path
       id="path6"
       d="M 25.8242,412.168 C 62.0703,255.438 169.008,125.852 311.344,58.8398 L 535.688,531.48 25.8242,412.168 v 0"
       style="fill:#214395;fill-opacity:1;fill-rule:nonzero;stroke:none"
       transform="matrix(0.13333333,0,0,-0.13333333,0,141.33333)" />
    <path
       id="path7"
       d="M 535.688,531.48 311.344,58.8398 C 378.52,27.2188 453.512,9.46484 532.676,9.46484 615,9.46484 692.813,28.6445 762.004,62.6758 L 535.715,531.48 h -0.027 v 0"
       style="fill:#0e0d0f;fill-opacity:1;fill-rule:nonzero;stroke:none"
       transform="matrix(0.13333333,0,0,-0.13333333,0,141.33333)" />
    <path
       id="path8"
       d="m 12.3047,533.207 c 0,286.606 232.3403,518.943 518.9453,518.943 286.609,0 518.95,-232.337 518.95,-518.943 C 1050.2,246.594 817.859,14.2578 531.25,14.2578 244.645,14.2578 12.3047,246.594 12.3047,533.207 Z"
       style="fill:none;stroke:#231f20;stroke-width:10;stroke-linecap:butt;stroke-linejoin:miter;stroke-miterlimit:3.8637;stroke-dasharray:none;stroke-opacity:1"
       transform="matrix(0.13333333,0,0,-0.13333333,0,141.33333)" />
    <path
       id="path9"
       d="m 106.016,528.281 c 0,235.442 190.855,426.289 426.293,426.289 235.437,0 426.296,-190.847 426.296,-426.289 0,-235.437 -190.859,-426.289 -426.296,-426.289 -235.438,0 -426.293,190.852 -426.293,426.289 v 0"
       style="fill:#0e0d0f;fill-opacity:1;fill-rule:nonzero;stroke:none"
       transform="matrix(0.13333333,0,0,-0.13333333,0,141.33333)" />
    <path
       id="path10"
       d="m 106.016,528.281 c 0,235.442 190.855,426.289 426.293,426.289 235.437,0 426.296,-190.847 426.296,-426.289 0,-235.437 -190.859,-426.289 -426.296,-426.289 -235.438,0 -426.293,190.852 -426.293,426.289 z"
       style="fill:none;stroke:#0e0d0f;stroke-width:26.508;stroke-linecap:butt;stroke-linejoin:miter;stroke-miterlimit:3.8637;stroke-dasharray:none;stroke-opacity:1"
       transform="matrix(0.13333333,0,0,-0.13333333,0,141.33333)" />
    <path
       id="path11"
       d="m 168.918,336.609 c -4.82,45.278 129.105,222.059 363.719,255.793 233.047,33.512 425.117,-67.949 415.715,-143.554 -18.77,-150.789 -180.606,-346.856 -416.043,-346.856 -235.438,0 -355.536,160.813 -363.391,234.617 v 0"
       style="fill:#ffffff;fill-opacity:1;fill-rule:nonzero;stroke:none"
       transform="matrix(0.13333333,0,0,-0.13333333,0,141.33333)" />
    <path
       id="path12"
       d="m 713.996,322.566 c 130.567,134.082 -85.734,216.364 -86.027,201.356 0.578,-1.641 -3.946,1.383 0,-12.809 71.394,-26.054 39.687,-142.004 -25.625,-142.793 -66.914,-1.523 -85.684,41.453 -82.387,80.559 2.356,49.961 44.301,45.269 34.801,71.367 -1.488,3.57 -92.07,-6.262 -108.016,-73.215 C 425.25,359.016 483.773,310.547 543.77,267.645 329.43,337.539 403.48,434.922 382.688,408.605 271.195,271.73 174.535,288.074 181.324,291.457 c 147.578,75.762 207.145,261.391 351.453,289.211 180.485,36.223 283.825,-83.449 389.899,-102.523 0.879,-0.645 -37.063,-2.129 -60.403,0 -32.832,1.921 -82.007,13.039 -82.378,12.824 53.281,-93.34 -35.239,-178.52 -34.778,-179.387 l -31.121,10.984 v 0"
       style="fill:#ffffff;fill-opacity:1;fill-rule:nonzero;stroke:none"
       transform="matrix(0.13333333,0,0,-0.13333333,0,141.33333)" />
    <path
       id="path13"
       d="m 713.996,322.566 c 130.567,134.082 -85.734,216.364 -86.027,201.356 0.578,-1.641 -3.946,1.383 0,-12.809 71.394,-26.054 39.687,-142.004 -25.625,-142.793 -66.914,-1.523 -85.684,41.453 -82.387,80.559 2.356,49.961 44.301,45.269 34.801,71.367 -1.488,3.57 -92.07,-6.262 -108.016,-73.215 C 425.25,359.016 483.773,310.547 543.77,267.645 329.43,337.539 403.48,434.922 382.688,408.605 271.195,271.73 174.535,288.074 181.324,291.457 c 147.578,75.762 207.145,261.391 351.453,289.211 180.485,36.223 283.825,-83.449 389.899,-102.523 0.879,-0.645 -37.063,-2.129 -60.403,0 -32.832,1.921 -82.007,13.039 -82.378,12.824 53.281,-93.34 -35.239,-178.52 -34.778,-179.387 l -31.121,10.984 z"
       style="fill:none;stroke:#ffffff;stroke-width:6.627;stroke-linecap:butt;stroke-linejoin:miter;stroke-miterlimit:3.8637;stroke-dasharray:none;stroke-opacity:1"
       transform="matrix(0.13333333,0,0,-0.13333333,0,141.33333)" />
    <path
       id="path14"
       d="m 716.719,310 c 130.566,134.082 -85.735,216.363 -86.028,201.348 0.579,-1.641 -3.941,1.379 0,-12.813 71.399,-26.047 39.692,-141.992 -25.625,-142.781 -66.914,-1.535 -85.679,41.453 -82.386,80.555 2.359,49.953 44.3,45.273 34.8,71.367 -1.484,3.574 -92.07,-6.258 -108.011,-73.211 C 427.973,346.438 486.5,297.969 546.496,255.078 332.152,324.973 406.199,422.355 385.406,396.035 273.922,259.16 177.262,275.508 184.047,278.879 c 147.578,75.769 207.144,261.394 351.457,289.219 180.48,36.218 283.82,-83.457 389.894,-102.524 0.879,-0.652 -37.058,-2.136 -60.398,0 -32.832,1.914 -82.012,13.039 -82.383,12.824 53.281,-93.347 -35.234,-178.515 -34.773,-179.382 L 716.719,310 v 0"
       style="fill:#0e0d0f;fill-opacity:1;fill-rule:nonzero;stroke:none"
       transform="matrix(0.13333333,0,0,-0.13333333,0,141.33333)" />
    <path
       id="path15"
       d="m 716.719,310 c 130.566,134.082 -85.735,216.363 -86.028,201.348 0.579,-1.641 -3.941,1.379 0,-12.813 71.399,-26.047 39.692,-141.992 -25.625,-142.781 -66.914,-1.535 -85.679,41.453 -82.386,80.555 2.359,49.953 44.3,45.273 34.8,71.367 -1.484,3.574 -92.07,-6.258 -108.011,-73.211 C 427.973,346.438 486.5,297.969 546.496,255.078 332.152,324.973 406.199,422.355 385.406,396.035 273.922,259.16 177.262,275.508 184.047,278.879 c 147.578,75.769 207.144,261.394 351.457,289.219 180.48,36.218 283.82,-83.457 389.894,-102.524 0.879,-0.652 -37.058,-2.136 -60.398,0 -32.832,1.914 -82.012,13.039 -82.383,12.824 53.281,-93.347 -35.234,-178.515 -34.773,-179.382 L 716.719,310 Z"
       style="fill:none;stroke:#0e0d0f;stroke-width:6.627;stroke-linecap:butt;stroke-linejoin:miter;stroke-miterlimit:3.8637;stroke-dasharray:none;stroke-opacity:1"
       transform="matrix(0.13333333,0,0,-0.13333333,0,141.33333)" />
    <path
       id="path16"
       d="m 106.016,528.281 c 0,235.442 190.855,426.289 426.293,426.289 235.437,0 426.296,-190.847 426.296,-426.289 0,-235.437 -190.859,-426.289 -426.296,-426.289 -235.438,0 -426.293,190.852 -426.293,426.289 z"
       style="fill:none;stroke:#0e0d0f;stroke-width:26.508;stroke-linecap:butt;stroke-linejoin:miter;stroke-miterlimit:3.8637;stroke-dasharray:none;stroke-opacity:1"
       transform="matrix(0.13333333,0,0,-0.13333333,0,141.33333)" />
    <path
       id="path17"
       d="m 553.816,694.125 h 139.575 v -72.426 h 89.175 v 72.426 h 35.539 V 743.32 H 782.566 V 939.641 H 663.02 c -0.645,-0.457 -0.645,-1.364 -109.204,-181.289 V 694.125 Z M 623.605,743.32 705.664,895 h 1.301 l -5.813,-151.68 h -77.547 v 0"
       style="fill:#0e0d0f;fill-opacity:1;fill-rule:evenodd;stroke:none"
       transform="matrix(0.13333333,0,0,-0.13333333,0,141.33333)" />
    <path
       id="path18"
       d="m 315.211,844.531 -0.035,118.887 H 283.09 l 0.039,-118.887 h 32.082 v 0"
       style="fill:#0e0d0f;fill-opacity:1;fill-rule:nonzero;stroke:none"
       transform="matrix(0.13333333,0,0,-0.13333333,0,141.33333)" />
    <path
       id="path19"
       d="m 382.906,842.551 c 29.953,0 46.313,10.207 46.297,41.992 h -31.648 c -0.426,-9.387 0.215,-24.211 -14.657,-24.207 -18.058,0 -20.398,13.176 -20.41,43.633 -0.008,30.465 2.325,43.636 20.383,43.636 9.563,-0.003 13.18,-5.925 13.184,-21.734 h 31.441 c 1.266,25.52 -11.914,39.52 -44.629,39.52 -52.902,0 -52.89,-29.969 -52.883,-61.422 0.012,-31.117 0.02,-61.418 52.922,-61.418 v 0"
       style="fill:#0e0d0f;fill-opacity:1;fill-rule:nonzero;stroke:none"
       transform="matrix(0.13333333,0,0,-0.13333333,0,141.33333)" />
    <path
       id="path20"
       d="m 490.316,842.551 c 29.957,0 46.309,10.207 46.305,41.984 h -31.656 c -0.422,-9.383 0.223,-24.203 -14.652,-24.203 -18.063,0 -20.399,13.176 -20.411,43.637 -0.007,30.461 2.325,43.633 20.379,43.633 9.563,0 13.176,-5.922 13.18,-21.731 h 31.445 c 1.266,25.52 -11.906,39.516 -44.629,39.516 -52.898,0.004 -52.89,-29.965 -52.879,-61.418 0.008,-31.121 0.02,-61.418 52.918,-61.418 v 0"
       style="fill:#0e0d0f;fill-opacity:1;fill-rule:nonzero;stroke:none"
       transform="matrix(0.13333333,0,0,-0.13333333,0,141.33333)" />
    <path
       id="path21"
       d="m 537.074,677.387 h 139.574 v -72.426 h 89.184 v 72.426 h 35.535 v 49.195 H 765.832 V 922.898 H 646.277 c -0.64,-0.453 -0.64,-1.367 -109.203,-181.289 v -64.222 z m 69.789,49.195 82.063,151.68 h 1.301 l -5.825,-151.68 h -77.539 v 0"
       style="fill:#ffffff;fill-opacity:1;fill-rule:evenodd;stroke:none"
       transform="matrix(0.13333333,0,0,-0.13333333,0,141.33333)" />
    <path
       id="path22"
       d="m 371.977,601.824 h 68.062 l 73.445,202.922 H 456.191 L 407.738,657.191 h -0.769 l -43.067,147.555 h -60.371 l 68.446,-202.922 v 0"
       style="fill:#ffffff;fill-opacity:1;fill-rule:nonzero;stroke:none"
       transform="matrix(0.13333333,0,0,-0.13333333,0,141.33333)" />
    <path
       id="path23"
       d="m 331.953,827.789 -0.039,118.887 h -32.078 l 0.039,-118.887 h 32.078 v 0"
       style="fill:#ffffff;fill-opacity:1;fill-rule:nonzero;stroke:none"
       transform="matrix(0.13333333,0,0,-0.13333333,0,141.33333)" />
    <path
       id="path24"
       d="m 399.645,825.813 c 29.957,0 46.312,10.207 46.3,41.984 h -31.652 c -0.426,-9.379 0.219,-24.203 -14.652,-24.203 -18.059,0 -20.403,13.176 -20.407,43.636 -0.011,30.465 2.321,43.633 20.379,43.633 9.563,0 13.176,-5.925 13.18,-21.73 h 31.441 c 1.27,25.519 -11.91,39.515 -44.625,39.519 -52.906,0 -52.89,-29.968 -52.886,-61.422 0.011,-31.121 0.019,-61.417 52.922,-61.417 v 0"
       style="fill:#ffffff;fill-opacity:1;fill-rule:nonzero;stroke:none"
       transform="matrix(0.13333333,0,0,-0.13333333,0,141.33333)" />
    <path
       id="path25"
       d="m 507.055,825.813 c 29.957,0 46.316,10.207 46.304,41.984 h -31.656 c -0.426,-9.383 0.223,-24.203 -14.652,-24.203 -18.055,0 -20.403,13.176 -20.41,43.633 -0.004,30.464 2.324,43.636 20.386,43.636 9.555,0 13.172,-5.925 13.18,-21.738 h 31.441 c 1.262,25.523 -11.914,39.523 -44.632,39.523 -52.899,0 -52.891,-29.964 -52.879,-61.418 0.008,-31.121 0.019,-61.417 52.918,-61.417 v 0"
       style="fill:#ffffff;fill-opacity:1;fill-rule:nonzero;stroke:none"
       transform="matrix(0.13333333,0,0,-0.13333333,0,141.33333)" />
    <path
       id="path26"
       d="M 969.863,258.555 945.977,225.051 642.566,331.57 969.863,258.555 v 0"
       style="fill:#0e0d0f;fill-opacity:1;fill-rule:nonzero;stroke:none"
       transform="matrix(0.13333333,0,0,-0.13333333,0,141.33333)" />
    <path
       id="path27"
       d="M 881.848,149.855 859.563,132.219 642.324,331.438 902.688,170.539 881.848,149.855 v 0"
       style="fill:#00adef;fill-opacity:1;fill-rule:nonzero;stroke:none"
       transform="matrix(0.13333333,0,0,-0.13333333,0,141.33333)"
       clip-path="url(#clipPath28)" />
    <path
       id="path29"
       d="M 848.34,120.996 790.781,84.2891 642.297,331.367 848.34,120.996 v 0"
       style="fill:#ec008c;fill-opacity:1;fill-rule:nonzero;stroke:none"
       transform="matrix(0.13333333,0,0,-0.13333333,0,141.33333)"
       clip-path="url(#clipPath28)" />
    <path
       id="path30"
       d="M 928.34,199.395 909.102,180.156 642.5,331.445 941.164,215.43 928.34,199.395 v 0"
       style="fill:#fff200;fill-opacity:1;fill-rule:nonzero;stroke:none"
       transform="matrix(0.13333333,0,0,-0.13333333,0,141.33333)" />
    <path
       id="path31"
       d="m 12.3047,533.207 c 0,286.606 232.3403,518.943 518.9453,518.943 286.609,0 518.95,-232.337 518.95,-518.943 C 1050.2,246.594 817.859,14.2578 531.25,14.2578 244.645,14.2578 12.3047,246.594 12.3047,533.207 Z"
       style="fill:none;stroke:#0e0d0f;stroke-width:10;stroke-linecap:butt;stroke-linejoin:miter;stroke-miterlimit:3.8637;stroke-dasharray:none;stroke-opacity:1"
       transform="matrix(0.13333333,0,0,-0.13333333,0,141.33333)" />
  </g>
</svg>
