<?xml version="1.0" standalone="no"?>
<!DOCTYPE svg PUBLIC "-//W3C//DTD SVG 20010904//EN"
 "http://www.w3.org/TR/2001/REC-SVG-20010904/DTD/svg10.dtd">
<svg version="1.0" xmlns="http://www.w3.org/2000/svg"
 width="468pt" height="148pt" viewBox="0 0 468 148"
 preserveAspectRatio="xMidYMid meet">
<metadata>
Created by POTRACE VERSION, written by Peter Selinger 2001-2007
</metadata>
<g transform="translate(0,148) scale(0.011824,-0.011824)"
fill="#000000" stroke="none">
<path d="M32690 12476 c-49 1 -102 -5 -125 -13 -28 -9 -46 -23 -57 -46 -9 -18
-25 -52 -36 -77 -12 -29 -29 -50 -48 -59 -16 -8 -51 -35 -77 -60 -27 -26 -65
-64 -85 -86 -20 -22 -60 -63 -89 -91 -31 -30 -53 -59 -53 -72 0 -13 -16 -34
-40 -53 -24 -20 -45 -47 -51 -68 -8 -28 -25 -45 -72 -76 -43 -29 -64 -50 -70
-70 -5 -17 -17 -47 -28 -67 -10 -20 -19 -43 -19 -50 0 -7 -18 -29 -40 -49 -32
-29 -40 -44 -40 -71 0 -19 -14 -63 -31 -98 -29 -57 -31 -66 -20 -96 10 -28 10
-37 -2 -49 -9 -8 -17 -18 -19 -22 -1 -5 -16 -15 -33 -23 -22 -12 -36 -32 -54
-80 -14 -36 -29 -67 -34 -69 -4 -1 -19 -26 -32 -55 -14 -28 -30 -59 -37 -68
-10 -14 -10 -24 -1 -49 9 -24 9 -35 0 -50 -7 -11 -22 -22 -33 -25 -13 -3 -28
-21 -37 -45 -11 -27 -21 -39 -35 -39 -11 0 -24 -6 -30 -12 -5 -7 -13 -38 -17
-68 -4 -30 -16 -80 -26 -112 -9 -31 -31 -75 -48 -99 -19 -26 -31 -54 -31 -74
0 -18 -6 -37 -12 -43 -7 -5 -22 -12 -33 -14 -12 -2 -28 -20 -39 -43 -10 -22
-40 -65 -67 -95 -26 -30 -55 -61 -63 -69 -7 -7 -28 -27 -45 -45 -17 -17 -44
-43 -59 -58 -14 -16 -31 -45 -37 -65 -8 -28 -17 -39 -33 -41 -13 -2 -41 -20
-62 -41 -27 -25 -40 -47 -40 -64 0 -19 -8 -31 -27 -40 -16 -8 -45 -17 -65 -21
-25 -5 -44 -16 -58 -36 -12 -17 -66 -64 -121 -105 -54 -41 -107 -75 -117 -75
-11 0 -26 -8 -34 -17 -9 -10 -23 -33 -32 -50 -11 -23 -31 -39 -66 -54 -30 -13
-52 -30 -56 -42 -4 -12 -17 -30 -30 -40 -13 -10 -24 -24 -24 -31 0 -7 -8 -20
-17 -28 -10 -9 -37 -19 -60 -23 -33 -5 -49 -16 -77 -49 l-35 -43 -75 5 c-70 4
-77 3 -106 -22 -20 -17 -43 -26 -65 -26 -24 0 -39 -7 -54 -26 -11 -14 -23 -34
-26 -45 -5 -14 -16 -19 -42 -19 -23 0 -45 -9 -65 -25 -16 -14 -42 -27 -56 -30
-15 -4 -45 -11 -67 -17 -22 -6 -46 -12 -53 -14 -7 -2 -15 -12 -18 -21 -3 -10
-9 -25 -13 -33 -5 -8 -28 -19 -52 -23 -24 -4 -69 -11 -100 -16 -30 -5 -65 -13
-77 -20 -11 -6 -28 -11 -36 -11 -9 0 -36 -15 -61 -32 -26 -18 -66 -51 -91 -72
-40 -35 -47 -38 -70 -27 -14 6 -71 11 -128 11 -99 0 -104 -1 -132 -28 -28 -27
-33 -28 -130 -27 -89 1 -103 4 -122 23 -14 14 -35 22 -54 22 -18 0 -49 5 -68
10 -20 5 -44 16 -54 23 -17 13 -17 16 14 51 19 21 36 54 41 79 4 23 8 85 9
137 0 93 -1 97 -36 148 -19 29 -42 56 -50 59 -8 3 -14 11 -14 18 0 7 -21 25
-47 40 -41 23 -54 25 -103 19 -30 -3 -63 -13 -72 -22 -10 -8 -29 -34 -43 -57
-13 -24 -31 -45 -39 -48 -9 -4 -32 -29 -51 -56 -20 -28 -52 -60 -71 -72 -19
-11 -41 -37 -49 -56 -8 -19 -17 -58 -21 -86 -4 -29 -17 -74 -29 -102 -13 -27
-28 -85 -35 -127 -6 -43 -9 -82 -6 -87 4 -5 20 -13 37 -16 27 -6 30 -10 25
-34 -3 -14 -9 -40 -12 -57 -5 -24 2 -46 28 -95 19 -35 41 -75 49 -89 8 -14 26
-41 42 -61 15 -20 27 -40 27 -44 0 -5 11 -23 25 -41 18 -24 25 -45 25 -79 0
-25 -5 -55 -11 -67 -6 -11 -12 -52 -14 -92 -1 -42 -11 -92 -23 -121 -11 -27
-27 -67 -36 -89 -10 -21 -30 -50 -46 -65 -17 -16 -34 -47 -43 -81 -9 -30 -23
-79 -31 -109 -9 -30 -23 -62 -32 -72 -8 -9 -26 -44 -39 -76 -17 -42 -30 -59
-47 -63 -13 -3 -28 -16 -34 -29 -7 -12 -26 -37 -43 -55 -21 -21 -40 -59 -56
-111 -14 -44 -35 -89 -46 -101 -11 -12 -25 -42 -30 -66 -6 -26 -21 -53 -40
-70 -20 -19 -29 -36 -29 -58 0 -17 5 -40 11 -51 8 -17 7 -23 -8 -35 -10 -7
-28 -14 -40 -14 -15 0 -54 -32 -114 -92 -59 -60 -100 -111 -114 -143 -13 -27
-31 -57 -41 -67 -11 -9 -37 -23 -59 -32 -22 -9 -54 -31 -72 -49 -17 -18 -45
-42 -62 -55 -19 -15 -35 -38 -42 -65 -6 -23 -15 -52 -20 -64 -5 -15 -17 -23
-32 -23 -13 0 -28 5 -34 11 -6 6 -30 7 -61 3 -32 -4 -58 -14 -69 -26 -10 -11
-27 -39 -38 -62 -17 -35 -24 -41 -50 -39 -16 1 -59 3 -95 5 -36 2 -70 7 -76
11 -6 3 -25 44 -42 89 -17 46 -38 110 -47 142 -9 32 -14 69 -11 81 3 11 1 46
-5 76 -6 30 -10 70 -10 90 1 22 -6 46 -17 59 -18 23 -18 24 0 42 16 16 18 29
12 101 -3 45 -10 95 -15 111 -5 16 -9 40 -9 53 0 13 -14 56 -30 95 -27 62 -29
73 -15 80 8 5 15 18 15 28 0 13 -7 20 -20 20 -14 0 -20 -7 -20 -22 0 -21 -5
-23 -58 -23 -41 -1 -77 -9 -123 -28 -35 -16 -77 -35 -92 -44 -17 -9 -40 -13
-57 -10 -21 5 -33 0 -50 -19 -13 -13 -31 -24 -41 -24 -9 0 -49 -11 -87 -24
-39 -13 -89 -39 -112 -57 -24 -19 -53 -45 -66 -59 -13 -14 -33 -35 -44 -47
-12 -15 -31 -23 -50 -23 -17 0 -40 -4 -50 -10 -10 -5 -32 -34 -49 -64 -17 -29
-31 -64 -31 -78 0 -13 -5 -29 -11 -35 -5 -5 -21 -8 -35 -5 -13 2 -27 8 -30 13
-3 5 -14 9 -25 9 -11 0 -33 -10 -50 -22 -26 -19 -33 -21 -62 -10 -19 7 -45 12
-58 12 -14 0 -42 -9 -64 -20 -22 -11 -45 -20 -52 -20 -7 0 -17 9 -23 21 -7 11
-9 31 -6 43 3 13 17 28 31 34 22 10 25 18 25 60 0 33 6 57 19 73 10 13 26 38
35 56 9 18 16 45 16 60 0 16 11 45 25 65 14 21 37 49 50 63 19 18 25 34 23 59
-1 18 6 45 15 59 9 15 17 38 17 51 0 15 12 36 28 51 15 14 45 38 67 52 22 15
50 36 63 47 12 11 22 27 22 35 0 9 10 41 23 71 12 30 35 74 51 97 23 34 30 59
38 135 5 51 11 111 13 133 2 22 13 67 24 99 12 32 25 64 30 70 4 6 14 27 20
47 9 29 8 48 -4 95 -12 46 -13 66 -4 94 7 19 20 47 31 62 11 15 20 40 21 54 1
18 -6 32 -23 45 -21 16 -44 20 -125 21 -74 1 -111 -4 -142 -16 -27 -12 -45
-27 -51 -44 -5 -15 -14 -43 -19 -62 -7 -28 -14 -35 -42 -41 -18 -4 -38 -12
-44 -18 -6 -6 -21 -11 -33 -11 -12 0 -37 -6 -55 -14 -19 -8 -43 -23 -53 -34
-10 -11 -16 -29 -14 -39 2 -11 23 -25 56 -37 53 -19 53 -19 97 3 33 16 53 20
84 15 22 -4 48 -12 57 -19 12 -8 15 -20 11 -37 -4 -13 -18 -40 -31 -59 -14
-19 -31 -44 -38 -57 -8 -17 -9 -36 -2 -71 7 -35 6 -56 -3 -78 -6 -17 -24 -35
-40 -42 -15 -6 -39 -27 -51 -46 -13 -19 -34 -60 -47 -92 -13 -32 -35 -98 -49
-148 -15 -49 -44 -126 -66 -171 -22 -44 -43 -101 -46 -126 -5 -34 -13 -51 -34
-66 -15 -12 -44 -49 -63 -84 -19 -35 -49 -73 -65 -85 -17 -12 -36 -39 -42 -60
-7 -21 -26 -64 -41 -95 -16 -31 -37 -59 -48 -63 -11 -3 -32 -29 -46 -58 -14
-29 -37 -70 -51 -92 -13 -22 -32 -65 -41 -95 -9 -30 -30 -70 -45 -88 -15 -18
-34 -45 -42 -60 -8 -15 -22 -57 -31 -92 -10 -38 -14 -81 -11 -105 3 -22 6 -59
5 -82 0 -41 1 -42 43 -53 24 -5 60 -15 81 -21 32 -9 45 -7 83 11 24 12 63 24
87 26 23 3 70 10 104 16 39 6 71 18 85 32 13 12 50 42 83 66 33 25 63 49 67
55 5 5 7 36 6 68 -1 47 3 62 20 80 19 18 32 21 107 20 47 -1 85 3 85 8 0 5 28
28 62 50 53 34 68 39 98 34 32 -5 38 -3 48 19 8 19 22 27 52 32 35 6 41 11 50
43 5 20 10 41 10 47 0 5 13 22 28 37 20 19 39 27 64 27 20 0 41 7 49 16 8 10
22 14 38 10 14 -3 40 -8 58 -12 24 -5 40 -1 63 16 17 12 37 19 45 16 8 -3 17
-18 21 -33 3 -15 7 -34 10 -41 2 -7 19 -19 38 -27 18 -8 36 -22 40 -30 3 -9 6
-44 5 -78 0 -34 -5 -87 -10 -117 -5 -30 -14 -90 -20 -132 -7 -56 -7 -96 1
-150 6 -40 15 -93 20 -118 4 -25 19 -72 34 -105 14 -33 26 -73 26 -88 0 -16 5
-37 10 -48 6 -10 20 -19 31 -19 11 0 36 -17 55 -39 32 -36 40 -39 104 -45 l69
-7 66 51 66 51 50 -12 c45 -12 51 -11 71 8 13 11 41 30 63 41 22 12 65 31 95
42 38 15 72 38 110 78 30 31 70 65 88 74 18 9 37 30 43 45 5 15 33 52 62 81
29 30 69 62 89 73 23 12 45 34 57 58 11 21 27 41 36 45 9 3 28 6 41 6 14 0 38
7 54 15 16 9 37 30 46 48 9 17 32 49 50 69 18 20 38 56 44 80 7 24 20 51 31
61 10 10 26 31 34 47 9 17 24 30 34 30 10 0 24 8 32 18 8 9 20 28 28 42 8 14
20 36 28 50 7 14 13 38 13 53 0 15 7 41 15 56 8 17 25 31 42 34 15 3 47 20 70
37 25 19 46 44 52 63 5 18 17 52 26 77 8 25 25 63 37 85 11 22 31 51 44 65 12
14 36 52 52 85 17 33 34 74 38 90 3 17 15 40 26 52 11 12 28 52 38 90 10 37
26 90 35 116 12 33 26 52 46 62 19 10 32 27 38 53 6 20 11 49 11 63 0 14 -9
36 -19 48 -11 13 -25 47 -31 78 -7 30 -9 60 -6 68 2 7 15 15 27 17 15 2 31 21
53 62 21 40 48 73 85 102 30 24 66 44 79 46 14 2 28 10 32 18 5 8 13 28 19 43
8 20 27 36 69 54 31 15 73 36 92 48 19 12 46 26 60 30 14 4 33 14 43 23 9 8
17 23 17 34 0 10 3 18 8 19 4 1 55 3 114 5 60 2 118 9 130 15 12 7 67 20 123
30 55 9 120 27 145 38 25 11 64 21 87 21 40 0 47 5 145 103 57 56 112 119 122
140 11 20 24 38 30 38 6 1 29 3 51 4 22 2 63 6 90 10 32 5 55 15 64 27 10 16
21 18 47 13 19 -3 53 0 76 6 24 7 50 18 59 26 8 7 24 13 35 13 10 0 24 4 29 8
6 4 22 24 37 44 17 22 43 41 65 49 21 6 53 25 71 40 18 16 42 29 53 29 11 0
29 5 40 10 10 6 19 21 19 34 0 13 8 30 18 38 9 9 42 23 72 33 30 10 81 33 113
52 31 19 57 40 57 47 0 7 11 25 25 40 16 17 34 26 55 26 20 0 39 9 53 24 12
13 42 46 67 74 26 30 54 51 66 51 11 1 27 -7 36 -16 8 -10 20 -31 26 -47 11
-25 9 -37 -14 -97 -19 -49 -37 -77 -62 -95 -32 -25 -34 -30 -29 -71 4 -38 1
-47 -22 -71 -21 -20 -29 -41 -34 -81 -4 -36 -14 -63 -30 -80 -12 -14 -38 -48
-56 -74 -18 -27 -35 -65 -38 -86 -3 -24 -22 -60 -50 -97 -31 -42 -43 -66 -40
-83 3 -13 1 -36 -5 -51 -5 -15 -20 -32 -33 -38 -14 -7 -25 -20 -25 -30 0 -9
-7 -28 -16 -40 -8 -12 -24 -48 -35 -79 -10 -32 -23 -67 -28 -78 -6 -11 -20
-42 -31 -69 -12 -26 -19 -58 -16 -70 3 -12 1 -27 -3 -34 -5 -8 -19 -19 -31
-25 -13 -7 -29 -30 -37 -51 -7 -22 -20 -47 -28 -56 -8 -9 -15 -25 -15 -36 0
-10 -9 -32 -20 -49 -11 -16 -20 -44 -20 -62 0 -23 -13 -46 -50 -90 -28 -32
-54 -74 -59 -93 -5 -19 -12 -47 -15 -62 -3 -14 -17 -39 -30 -55 -13 -15 -30
-42 -39 -59 -9 -17 -23 -36 -31 -43 -9 -8 -21 -31 -26 -52 -6 -21 -28 -69 -50
-107 -25 -44 -40 -82 -40 -103 0 -19 4 -50 10 -68 8 -28 6 -38 -7 -53 -9 -10
-30 -18 -50 -18 -19 0 -41 -8 -52 -19 -11 -11 -23 -37 -27 -58 -3 -21 -17 -57
-30 -80 -15 -25 -24 -58 -24 -83 0 -23 -5 -51 -12 -63 -6 -12 -31 -41 -55 -64
-24 -24 -48 -43 -53 -43 -5 0 -18 -12 -30 -27 -16 -20 -20 -37 -17 -63 4 -33
-2 -41 -76 -115 -44 -44 -88 -93 -98 -110 -11 -16 -19 -42 -19 -57 0 -15 -5
-39 -11 -55 -5 -15 -23 -41 -39 -58 -15 -16 -31 -44 -34 -61 -4 -17 -18 -41
-31 -52 -13 -12 -39 -50 -56 -84 -17 -35 -37 -70 -44 -78 -7 -8 -18 -34 -24
-57 -6 -23 -27 -60 -46 -83 -31 -37 -35 -49 -35 -96 0 -49 -3 -55 -25 -64 -14
-5 -30 -22 -36 -37 -5 -16 -21 -38 -35 -51 -14 -14 -24 -34 -24 -51 0 -16 10
-37 24 -50 14 -13 37 -22 57 -23 19 0 66 -1 104 -2 41 0 84 5 103 13 19 8 44
31 57 51 16 26 33 39 55 43 17 4 46 23 66 44 19 21 42 52 51 68 9 17 27 43 40
59 20 24 24 38 21 73 -2 34 0 44 14 49 10 3 18 9 18 13 0 4 18 13 40 20 34 10
45 21 76 77 22 40 46 69 61 75 13 5 35 9 48 9 13 0 43 15 66 33 24 18 58 52
76 76 24 31 33 53 33 82 0 34 3 39 28 45 15 4 33 12 41 18 7 6 32 20 55 31 22
11 51 36 64 55 13 19 33 40 45 47 12 6 38 32 57 58 19 25 46 59 58 75 13 17
32 30 42 30 11 0 29 18 45 46 15 25 34 52 43 59 10 8 49 40 87 71 39 31 92 82
119 113 26 31 59 61 72 66 13 6 30 20 39 30 8 11 15 31 15 43 0 13 6 36 14 50
8 15 17 35 20 44 4 14 9 15 35 5 24 -9 36 -8 57 4 15 7 29 22 32 31 2 10 28
34 58 53 30 20 54 40 54 45 0 5 28 23 63 40 34 18 70 39 80 48 9 8 17 23 17
32 0 10 7 24 17 31 9 8 38 14 65 14 43 0 53 4 76 32 15 17 39 34 55 37 15 4
27 10 27 15 0 5 16 18 36 30 20 12 40 34 46 51 6 20 24 38 47 50 21 10 43 26
50 34 8 9 17 16 22 16 4 0 28 14 53 30 25 17 48 40 51 51 6 18 9 17 31 -13 13
-18 29 -43 36 -56 10 -19 9 -28 -5 -52 -9 -15 -17 -44 -17 -64 0 -31 -4 -37
-27 -42 -16 -4 -34 -11 -40 -17 -7 -5 -18 -27 -23 -48 -8 -28 -22 -46 -54 -68
-35 -24 -46 -39 -55 -75 -6 -25 -11 -67 -11 -93 0 -39 -6 -56 -29 -83 -15 -19
-38 -53 -50 -75 -11 -22 -21 -49 -21 -60 0 -11 -9 -40 -20 -64 -11 -24 -20
-54 -20 -67 0 -14 -7 -27 -17 -31 -10 -4 -21 -11 -25 -17 -4 -6 -8 -24 -8 -41
0 -16 -7 -39 -15 -49 -9 -12 -15 -42 -15 -72 0 -41 -5 -59 -25 -82 -14 -17
-25 -39 -25 -51 0 -12 5 -30 12 -40 9 -15 7 -23 -10 -41 -12 -13 -23 -42 -27
-73 -3 -29 -6 -110 -5 -182 1 -99 6 -138 18 -165 14 -28 23 -35 47 -35 17 -1
35 -4 42 -8 6 -4 19 -33 28 -65 9 -31 22 -63 27 -69 7 -8 38 -13 86 -13 42 0
90 -5 107 -11 28 -11 38 -9 83 16 39 21 58 26 79 20 15 -4 58 -9 94 -12 l65
-4 36 39 c19 22 39 46 44 54 5 8 23 24 41 36 22 16 46 22 84 22 42 0 58 5 78
24 15 14 44 31 66 38 36 12 40 17 43 51 2 20 7 37 11 37 4 0 13 11 19 25 8 18
19 25 40 25 15 0 38 7 50 16 12 8 22 23 22 33 0 10 6 23 13 28 6 6 30 16 52
23 22 7 46 19 53 28 6 9 12 24 12 35 0 10 7 35 17 54 9 19 26 39 38 45 13 6
28 21 34 34 8 19 18 24 45 24 33 0 36 3 84 93 28 50 62 103 76 116 14 14 26
31 26 39 0 8 10 31 22 51 11 20 38 52 59 72 21 19 41 48 45 64 4 16 2 43 -5
62 -11 29 -10 38 4 60 12 18 15 37 11 62 -4 27 0 43 16 66 14 22 38 37 77 51
48 16 59 25 81 65 14 25 41 59 60 76 21 18 43 51 53 79 9 27 17 56 17 65 0 9
9 27 19 41 11 13 23 38 26 54 4 16 13 46 21 67 8 20 14 58 14 83 0 32 7 55 24
77 13 18 31 56 41 85 16 50 16 55 -1 103 l-19 51 38 32 c20 17 37 39 37 49 0
10 6 32 14 50 11 26 27 38 84 62 54 23 73 37 84 60 11 25 23 32 74 45 33 9 71
24 84 33 14 9 36 17 50 17 14 0 38 7 55 16 22 11 45 13 91 9 61 -7 62 -7 85
25 13 18 40 40 60 50 19 10 41 25 48 34 7 8 50 33 95 55 46 22 89 47 96 56 9
10 23 13 49 9 30 -5 40 -1 60 20 13 14 39 29 58 32 19 4 46 19 61 33 16 17 43
30 67 34 28 4 49 16 70 41 27 31 36 34 92 38 34 2 69 11 79 19 11 9 41 14 83
14 66 0 66 0 75 32 9 27 13 31 36 26 18 -3 38 3 66 22 33 22 40 33 46 72 4 25
13 50 20 54 7 5 27 9 45 9 23 0 37 7 52 29 13 17 34 31 53 35 18 4 40 7 48 7
8 0 36 -3 62 -7 26 -3 53 -13 59 -20 6 -8 27 -14 46 -14 19 0 55 -7 81 -15 33
-11 54 -26 70 -50 17 -24 22 -40 17 -57 -4 -13 -14 -32 -21 -43 -8 -11 -14
-32 -14 -48 0 -16 5 -37 10 -48 9 -16 7 -19 -8 -19 -10 0 -28 -9 -41 -21 -19
-18 -21 -28 -16 -60 5 -30 2 -45 -14 -68 -12 -16 -21 -33 -21 -38 0 -5 -11
-24 -25 -43 -15 -20 -25 -47 -25 -66 0 -18 5 -36 10 -39 6 -3 10 -9 10 -13 0
-4 -17 -16 -38 -28 -20 -12 -49 -24 -64 -28 -20 -4 -29 -14 -33 -34 -4 -15
-15 -46 -26 -70 -10 -23 -19 -62 -19 -87 0 -28 -9 -61 -26 -92 -19 -36 -25
-58 -21 -89 3 -30 -2 -52 -19 -85 -13 -24 -24 -50 -24 -57 0 -7 -21 -33 -46
-58 -46 -45 -47 -45 -41 -99 5 -52 4 -55 -28 -80 -23 -17 -38 -40 -46 -67 -6
-23 -21 -55 -32 -71 -12 -16 -36 -44 -53 -62 -20 -21 -41 -62 -57 -112 -14
-43 -27 -89 -29 -103 -2 -20 -10 -26 -38 -30 l-35 -5 -9 -89 c-7 -64 -6 -94 2
-107 7 -10 12 -26 12 -35 0 -9 -9 -28 -19 -43 -11 -15 -23 -40 -27 -57 -4 -16
-15 -40 -26 -53 -13 -17 -18 -41 -18 -88 0 -64 -1 -66 -45 -109 -31 -30 -45
-52 -45 -70 0 -14 -11 -39 -25 -56 -15 -18 -25 -42 -25 -61 0 -18 -9 -45 -20
-62 -12 -17 -20 -47 -20 -70 0 -36 -4 -43 -36 -60 -20 -11 -40 -30 -45 -43 -5
-13 -9 -52 -9 -88 0 -38 -6 -77 -15 -93 -8 -16 -26 -32 -40 -35 -23 -6 -26
-11 -23 -43 2 -30 8 -39 28 -44 22 -6 23 -7 4 -8 -14 -1 -26 -11 -33 -28 -8
-21 -8 -40 2 -78 9 -35 19 -51 32 -54 10 -2 24 5 31 14 8 11 28 18 53 19 31 2
41 -2 44 -16 4 -13 15 -18 40 -18 26 0 37 5 42 19 3 10 1 30 -5 45 -5 15 -10
40 -10 55 0 15 9 36 19 45 10 9 22 37 25 61 4 24 15 54 25 67 12 15 20 49 25
102 5 63 11 85 28 104 13 13 37 32 55 43 18 12 36 31 39 43 3 13 -2 41 -11 62
-10 23 -17 72 -18 120 l-2 81 48 57 c38 48 47 66 47 97 l0 39 39 -6 38 -6 32
63 c17 34 31 71 31 82 0 10 9 32 21 48 11 16 35 35 52 43 19 8 44 32 61 59 22
35 40 50 70 60 25 8 46 23 53 38 6 13 16 36 22 51 6 15 28 39 51 53 29 18 40
32 40 50 0 15 12 33 33 49 19 15 47 26 62 26 20 0 39 12 66 40 32 34 44 40 79
40 29 0 40 4 40 15 0 9 11 27 25 40 16 17 35 25 58 25 18 0 55 11 83 25 27 14
56 30 64 36 12 8 34 0 97 -36 46 -26 95 -61 111 -79 16 -18 36 -35 45 -39 9
-3 17 -14 17 -24 0 -9 12 -34 26 -55 15 -20 35 -40 46 -44 16 -5 19 -11 13
-32 -3 -15 -9 -39 -12 -54 -4 -24 -1 -28 28 -36 29 -7 37 -16 53 -61 l19 -54
-21 -41 c-12 -22 -22 -54 -22 -69 0 -19 10 -38 30 -55 17 -15 30 -34 30 -43 0
-10 -11 -30 -24 -46 -14 -16 -26 -48 -30 -78 -4 -27 -12 -67 -18 -88 -9 -29
-8 -43 2 -65 9 -17 13 -55 11 -107 -2 -76 -1 -83 31 -130 25 -38 33 -60 33
-95 0 -25 -7 -67 -15 -93 -10 -35 -11 -52 -4 -65 6 -9 21 -22 34 -29 12 -6 27
-17 31 -25 5 -7 9 -25 9 -39 0 -15 10 -53 23 -85 12 -33 30 -70 40 -84 10 -14
28 -41 40 -60 12 -19 33 -37 45 -40 15 -3 33 -23 50 -55 21 -38 33 -51 53 -53
20 -2 32 4 49 28 21 30 23 30 84 24 51 -5 64 -3 75 10 12 15 12 22 -1 50 -14
27 -14 36 -2 57 7 13 13 39 14 56 0 27 -7 37 -40 58 -22 14 -47 36 -56 50 -12
19 -15 37 -10 74 3 26 2 100 -4 164 -5 63 -17 143 -26 178 -15 58 -15 65 0 90
16 27 16 28 -14 49 -23 17 -30 29 -30 55 0 24 9 45 30 68 18 21 30 46 30 63 0
15 -9 57 -21 93 l-21 66 27 59 c20 44 26 71 24 110 -2 28 -2 73 -1 100 2 42 7
53 38 81 29 27 37 42 40 80 3 26 9 56 15 67 6 11 17 42 25 68 11 37 13 84 10
187 -3 88 -1 142 6 150 6 8 8 52 4 125 -3 62 -9 140 -12 174 -5 49 -2 68 14
98 17 31 19 50 15 124 -5 73 -10 95 -34 135 -16 26 -29 51 -29 56 0 5 -9 29
-20 53 -11 25 -39 65 -63 89 -23 24 -61 60 -83 80 -36 32 -51 38 -128 49 -67
10 -97 20 -126 41 -27 20 -42 40 -50 68 -5 21 -17 45 -26 52 -9 7 -34 15 -57
18 -40 6 -42 8 -50 49 -7 35 -5 47 8 62 9 9 18 33 21 52 3 19 1 51 -4 72 -8
28 -7 45 4 71 7 18 25 50 39 71 14 20 25 50 25 65 0 19 -12 43 -36 69 -34 38
-36 44 -36 107 0 37 -4 74 -11 81 -6 7 -29 23 -51 34 -34 17 -51 19 -120 14
-45 -4 -104 -13 -132 -21 -27 -8 -86 -19 -130 -25 -43 -5 -101 -14 -129 -19
-27 -5 -77 -20 -110 -35 -33 -14 -70 -26 -83 -26 -13 0 -37 -14 -54 -30 -16
-17 -38 -35 -48 -40 -10 -6 -30 -10 -44 -10 -13 0 -38 -12 -54 -27 -17 -16
-36 -34 -44 -41 -7 -7 -24 -25 -37 -38 -24 -24 -27 -25 -132 -18 -104 7 -109
6 -153 -20 -24 -14 -51 -26 -59 -26 -8 0 -21 -8 -28 -17 -8 -9 -63 -41 -124
-71 -60 -30 -130 -66 -155 -79 -38 -20 -54 -23 -98 -18 -51 6 -53 6 -89 -34
-32 -37 -41 -41 -82 -41 -33 0 -57 -7 -84 -26 -37 -25 -41 -25 -101 -15 -34 6
-70 11 -80 11 -9 0 -28 -12 -41 -26 -22 -24 -25 -25 -48 -9 -20 13 -40 15
-104 9 -43 -4 -88 -10 -99 -15 -14 -5 -28 -3 -40 6 -11 8 -29 15 -41 15 -12 0
-43 18 -70 40 -26 22 -55 46 -65 54 -13 12 -15 28 -11 93 5 65 2 91 -16 144
-19 55 -29 69 -62 89 -21 14 -41 32 -44 40 -3 8 -28 35 -56 59 -28 24 -67 48
-87 54 -20 5 -69 12 -108 14 -59 4 -79 1 -113 -16 -27 -15 -46 -33 -55 -56 -8
-19 -27 -51 -41 -70 -15 -19 -51 -46 -81 -60 -37 -18 -58 -35 -66 -53 -6 -15
-11 -51 -12 -81 l-1 -55 -39 0 c-28 -1 -42 -7 -50 -21 -6 -11 -20 -36 -32 -55
-12 -19 -27 -52 -34 -72 -6 -20 -22 -53 -36 -73 -14 -21 -24 -50 -24 -71 0
-19 9 -52 20 -74 11 -22 20 -54 20 -72 0 -18 -3 -43 -6 -56 -4 -12 -19 -29
-34 -37 -15 -8 -51 -17 -81 -21 -50 -6 -59 -11 -122 -75 -37 -38 -76 -69 -86
-69 -10 0 -50 -29 -89 -65 -39 -36 -86 -72 -106 -80 -19 -8 -51 -15 -70 -15
-24 0 -49 -11 -82 -36 -26 -20 -71 -52 -101 -71 -30 -19 -74 -55 -99 -81 -25
-26 -56 -59 -71 -74 -14 -16 -34 -28 -43 -28 -10 0 -33 -12 -50 -26 -17 -15
-61 -42 -97 -60 -36 -19 -73 -34 -83 -34 -9 0 -30 -17 -47 -37 -16 -21 -37
-52 -46 -69 -9 -18 -29 -36 -46 -42 -17 -6 -37 -24 -45 -41 -9 -16 -16 -37
-16 -46 0 -8 -9 -15 -19 -15 -11 0 -26 -3 -35 -6 -8 -3 -20 -21 -26 -40 -11
-32 -13 -33 -54 -28 -42 6 -43 6 -70 -40 -20 -35 -33 -46 -51 -46 -14 0 -29
-8 -35 -19 -5 -11 -10 -31 -10 -45 0 -24 -3 -26 -49 -26 -28 0 -53 -4 -56 -10
-3 -5 -22 -10 -42 -10 -30 0 -44 -8 -78 -44 -23 -24 -45 -56 -49 -72 -4 -16
-16 -39 -27 -50 -11 -12 -24 -34 -28 -50 -5 -16 -14 -28 -21 -26 -6 1 -21 0
-32 -4 -11 -3 -48 -31 -82 -61 -33 -30 -73 -66 -88 -81 -16 -14 -28 -36 -28
-49 0 -23 -2 -23 -48 -17 -48 6 -49 6 -85 -38 -21 -25 -42 -59 -48 -77 -8 -21
-19 -33 -37 -37 -15 -3 -37 -7 -49 -10 -14 -3 -25 -14 -28 -29 -3 -14 -7 -36
-10 -50 -4 -18 -22 -32 -78 -58 -39 -19 -82 -38 -94 -41 -13 -4 -43 -4 -69 0
-25 3 -48 13 -51 20 -3 7 5 25 16 40 12 15 21 37 21 50 0 12 5 26 10 29 6 3
10 17 10 29 0 13 8 34 19 47 10 13 22 40 26 59 4 20 24 51 44 72 20 20 51 54
69 76 17 22 32 44 32 49 0 5 14 22 30 38 27 26 30 35 30 89 0 59 1 61 45 102
45 40 45 41 45 107 0 62 2 67 30 87 17 12 37 38 45 57 8 20 15 50 15 69 0 18
-5 36 -10 39 -6 4 -5 12 4 20 8 8 12 24 9 35 -3 11 2 31 10 44 14 21 22 23 60
19 37 -4 49 -1 67 17 17 17 21 30 17 56 -4 24 0 40 15 59 16 21 19 36 15 70
-3 29 0 48 8 55 7 6 18 30 24 54 7 29 28 63 61 99 40 44 51 64 56 101 4 25 16
74 28 108 18 52 27 66 53 77 20 9 36 26 42 43 6 16 8 42 5 57 -5 25 -2 30 25
39 17 6 31 17 31 24 -1 7 -7 24 -15 38 -8 14 -14 30 -15 37 0 6 20 21 46 33
25 12 51 32 58 44 8 11 17 41 20 66 4 25 23 74 42 109 25 46 34 73 30 91 -4
21 2 32 26 53 16 15 34 27 39 27 5 0 12 18 15 39 5 32 14 45 45 65 23 16 41
37 45 54 4 15 20 40 36 56 16 17 36 42 43 57 8 14 21 56 31 92 9 36 25 75 35
86 10 11 26 24 35 29 8 5 19 26 24 48 5 21 10 52 10 69 0 18 10 40 25 55 14
14 41 45 60 69 19 23 38 55 42 70 3 14 20 43 36 63 21 27 31 52 35 87 4 43 9
53 38 73 19 13 39 38 45 56 6 17 15 32 19 32 5 0 18 10 30 22 11 12 20 35 20
53 0 18 5 47 12 66 6 19 24 49 40 67 15 18 28 38 28 44 0 7 12 29 26 50 15 20
27 51 29 67 1 21 17 43 56 79 l54 50 0 83 c0 46 4 94 8 107 7 17 16 22 43 22
28 0 36 5 44 26 6 14 10 36 10 48 0 13 9 35 21 50 19 24 26 26 64 20 37 -5 44
-3 48 13 3 10 5 32 5 49 1 17 8 48 16 69 9 20 32 59 51 85 19 26 45 51 58 54
12 3 37 28 55 54 23 35 32 60 32 89 0 33 4 42 25 51 14 7 32 12 40 12 8 0 17
6 22 12 4 7 10 39 14 71 4 33 21 86 39 123 24 49 30 72 25 95 -5 22 -2 36 11
50 9 10 25 19 34 19 10 0 25 11 34 25 9 13 16 35 16 47 0 13 4 28 8 33 4 6 19
11 35 12 17 0 41 15 66 39 34 35 39 46 45 104 4 37 3 85 -3 110 -8 36 -7 48 4
60 12 12 21 12 48 2 18 -7 41 -12 51 -12 9 0 19 6 22 14 3 8 1 23 -4 33 -7 13
-6 26 4 43 7 14 13 37 14 52 0 20 -6 28 -22 31 l-23 4 23 8 c12 4 22 14 22 21
0 8 -3 14 -8 14 -4 0 -12 10 -17 23 -9 20 -17 22 -95 23z m4 -77 c11 1 17 -2
13 -5 -3 -3 -12 -4 -19 -1 -8 3 -5 6 6 6z m-112 -4300 c20 1 48 -3 61 -8 13
-5 31 -17 40 -26 10 -9 17 -27 17 -41 0 -17 10 -31 33 -45 24 -15 43 -19 76
-16 33 4 48 0 63 -15 10 -10 23 -30 28 -44 7 -17 5 -37 -4 -67 -8 -23 -18 -79
-21 -123 -4 -45 -10 -86 -14 -92 -4 -6 -24 -17 -46 -24 -29 -10 -41 -19 -43
-36 -2 -13 4 -32 13 -42 15 -16 14 -21 -10 -66 -14 -27 -34 -58 -45 -69 -10
-11 -26 -40 -35 -65 -9 -25 -25 -73 -34 -106 -10 -34 -28 -79 -41 -100 -13
-22 -31 -48 -41 -59 -9 -11 -20 -36 -24 -55 -4 -19 -23 -58 -41 -87 -18 -28
-42 -57 -53 -63 -12 -6 -24 -23 -27 -38 -4 -15 -27 -65 -51 -112 -25 -47 -51
-92 -58 -100 -7 -8 -16 -27 -20 -42 -6 -21 -14 -28 -46 -33 -35 -6 -40 -11
-49 -46 -8 -27 -33 -61 -88 -117 -42 -43 -95 -91 -117 -108 -22 -17 -64 -43
-94 -58 -30 -16 -67 -41 -83 -56 -15 -16 -49 -36 -76 -44 -32 -11 -97 -18
-193 -20 l-145 -4 -1 96 c0 68 -5 106 -16 127 -10 21 -13 46 -10 80 3 28 14
70 25 95 12 25 31 56 43 70 12 14 31 42 43 63 13 23 22 55 22 80 0 23 -9 61
-19 84 -16 35 -17 44 -6 59 7 10 32 27 56 38 31 16 45 29 51 51 4 16 15 36 24
42 10 7 31 41 48 75 26 51 37 64 64 70 29 8 32 12 32 46 0 24 11 54 30 84 20
33 39 49 57 53 16 4 38 10 51 15 18 8 22 17 22 52 0 24 8 54 18 69 9 14 27 41
39 60 13 19 23 40 23 47 0 8 9 25 20 39 13 17 20 41 20 68 0 39 4 46 41 74 23
16 54 33 70 36 16 4 36 16 44 28 8 12 15 34 15 49 0 16 9 37 20 48 12 12 33
20 55 20 25 0 42 7 55 23 11 12 37 40 58 62 21 22 60 59 88 82 38 32 58 42 86
42z"/>
<path d="M7329 12070 c-29 0 -45 -7 -71 -34 -18 -18 -39 -41 -46 -50 -8 -10
-27 -16 -51 -16 -31 0 -44 -7 -70 -36 -22 -24 -38 -33 -49 -29 -10 4 -28 9
-42 12 -14 2 -56 -5 -93 -17 -38 -12 -89 -39 -116 -60 -26 -21 -62 -45 -79
-54 -18 -9 -44 -34 -58 -56 -15 -22 -34 -42 -44 -45 -9 -3 -30 -1 -45 5 -16 6
-41 8 -57 4 -17 -3 -34 -16 -40 -30 -9 -19 -19 -24 -50 -24 -33 0 -38 -3 -38
-22 0 -13 -4 -28 -8 -33 -4 -6 -30 -10 -59 -10 -38 0 -59 -6 -82 -22 -19 -14
-45 -23 -68 -23 -21 0 -59 -7 -85 -15 -28 -8 -63 -29 -83 -49 -20 -20 -40 -36
-45 -36 -5 0 -49 -24 -97 -53 -48 -29 -97 -58 -108 -64 -11 -6 -48 -23 -83
-37 -35 -14 -75 -26 -89 -26 -16 0 -38 -13 -58 -35 -19 -19 -62 -57 -98 -84
-35 -27 -90 -62 -123 -79 -32 -16 -73 -33 -91 -36 -17 -4 -44 -19 -58 -34 -15
-15 -33 -39 -41 -54 -8 -15 -23 -32 -35 -38 -11 -7 -37 -9 -57 -5 -28 4 -50 0
-90 -20 -31 -15 -56 -35 -61 -48 -5 -13 -41 -56 -79 -95 -39 -40 -75 -72 -80
-72 -5 0 -15 -14 -22 -31 -9 -21 -26 -37 -55 -49 -23 -10 -58 -32 -78 -49 -19
-18 -56 -39 -81 -47 -36 -12 -47 -22 -52 -42 -3 -15 -9 -38 -13 -51 -4 -15
-27 -34 -61 -53 -30 -16 -66 -39 -80 -51 -14 -13 -44 -37 -67 -55 -23 -18 -53
-36 -67 -42 -13 -5 -43 -36 -65 -69 -23 -33 -45 -63 -51 -66 -6 -4 -20 -25
-31 -48 -12 -23 -42 -65 -68 -94 -25 -29 -59 -57 -76 -63 -16 -5 -55 -35 -85
-65 -30 -30 -71 -71 -89 -92 -19 -21 -68 -81 -109 -133 -41 -52 -85 -107 -99
-122 -21 -22 -25 -34 -20 -62 6 -35 4 -37 -42 -57 -32 -13 -60 -36 -84 -68
-21 -27 -37 -58 -37 -70 0 -13 -19 -40 -46 -67 -39 -37 -45 -49 -41 -72 3 -15
-1 -51 -9 -80 -11 -36 -25 -59 -45 -74 -16 -12 -32 -31 -35 -42 -4 -12 -26
-61 -49 -111 -24 -49 -55 -124 -69 -166 -15 -41 -38 -92 -52 -113 -14 -20 -28
-53 -31 -74 -4 -20 -28 -70 -55 -112 -26 -41 -50 -91 -53 -110 -3 -19 -12 -55
-19 -80 -8 -25 -14 -79 -14 -120 0 -47 -6 -89 -17 -113 -9 -22 -26 -82 -37
-135 -12 -54 -22 -133 -22 -177 -1 -62 -7 -90 -24 -125 -22 -44 -23 -47 -8
-109 8 -35 19 -67 24 -70 6 -4 6 -59 -1 -145 -10 -138 -10 -140 11 -154 12 -8
22 -22 22 -31 0 -9 9 -31 21 -50 11 -19 18 -42 16 -53 -3 -11 7 -35 28 -62 18
-24 38 -53 44 -64 6 -11 11 -41 11 -66 0 -33 6 -52 20 -66 11 -11 26 -20 33
-20 7 0 24 -15 37 -32 14 -18 23 -41 22 -50 -2 -10 5 -32 15 -50 10 -18 25
-41 33 -52 8 -10 25 -22 37 -27 13 -5 26 -22 32 -44 5 -20 25 -54 45 -75 21
-23 38 -54 42 -77 4 -21 11 -46 16 -57 8 -15 17 -17 59 -12 43 6 50 4 64 -18
9 -14 34 -29 60 -36 24 -7 55 -10 68 -6 14 3 32 -1 45 -10 12 -8 22 -21 22
-28 0 -6 15 -26 33 -43 17 -17 43 -36 56 -43 13 -7 36 -9 52 -6 20 4 35 0 48
-12 11 -9 27 -24 37 -32 10 -8 31 -25 48 -37 16 -13 39 -23 50 -23 11 0 37 -8
58 -17 l39 -18 -5 -50 c-3 -27 -8 -72 -11 -100 -3 -27 -14 -66 -25 -85 -10
-19 -30 -73 -44 -121 -14 -47 -26 -90 -26 -97 0 -6 -11 -22 -24 -35 -14 -14
-26 -41 -30 -68 -4 -25 -4 -52 -1 -61 3 -8 -9 -36 -28 -64 -19 -27 -39 -59
-46 -71 -9 -18 -8 -30 4 -59 8 -20 15 -42 15 -49 0 -7 -15 -22 -34 -33 -25
-15 -35 -29 -40 -58 -4 -22 -23 -68 -43 -104 -19 -36 -42 -85 -49 -110 -8 -25
-11 -52 -9 -61 3 -9 -13 -72 -35 -139 -35 -107 -40 -135 -40 -212 l0 -89 -42
-54 c-24 -30 -56 -73 -73 -96 -16 -23 -35 -51 -41 -61 -8 -13 -9 -32 -3 -56 5
-20 6 -52 3 -70 -4 -18 -15 -49 -25 -69 -11 -21 -19 -57 -19 -80 0 -26 -10
-63 -24 -92 -14 -26 -35 -60 -48 -76 -13 -15 -36 -40 -52 -55 -17 -18 -32 -45
-37 -72 -4 -23 -8 -62 -9 -86 0 -26 -5 -45 -13 -48 -8 -3 -27 -6 -43 -7 -19
-2 -32 -10 -40 -27 -7 -14 -20 -51 -29 -82 -10 -32 -29 -67 -42 -80 -13 -12
-28 -40 -34 -62 -6 -23 -13 -66 -14 -96 -1 -31 -12 -78 -23 -105 -12 -28 -41
-103 -67 -169 -25 -65 -54 -131 -65 -146 -11 -16 -20 -40 -20 -54 0 -20 -8
-29 -35 -40 -24 -10 -36 -23 -41 -43 -4 -15 -13 -38 -21 -50 -8 -12 -13 -27
-12 -35 1 -7 -2 -26 -5 -43 -5 -18 -23 -42 -47 -59 -21 -16 -42 -39 -45 -50
-4 -12 -28 -65 -55 -120 -27 -54 -49 -107 -49 -117 0 -10 -23 -40 -51 -68 -46
-45 -50 -52 -44 -84 5 -23 1 -45 -9 -66 -9 -17 -41 -49 -71 -71 -30 -22 -59
-49 -65 -59 -5 -11 -10 -31 -10 -45 0 -15 -8 -30 -20 -36 -11 -6 -23 -22 -26
-35 -4 -18 -13 -25 -29 -25 -15 0 -42 -20 -79 -60 -43 -47 -60 -75 -75 -126
-15 -48 -36 -83 -81 -137 -33 -40 -84 -88 -113 -107 -35 -24 -53 -43 -55 -60
-2 -14 -11 -31 -20 -37 -9 -7 -31 -13 -50 -13 -18 0 -53 -12 -77 -26 -25 -14
-54 -41 -65 -59 -12 -19 -31 -37 -43 -41 -12 -3 -31 -14 -41 -23 -10 -9 -26
-28 -36 -43 -9 -15 -38 -50 -64 -79 -45 -49 -49 -51 -90 -47 -24 3 -51 1 -61
-5 -9 -5 -74 -10 -144 -11 -87 -2 -140 2 -171 12 -25 8 -58 27 -75 43 -16 15
-42 32 -58 38 -15 6 -32 23 -38 38 -6 16 -20 48 -32 73 -11 25 -42 65 -67 90
-31 30 -50 60 -59 90 -7 25 -22 70 -34 100 -12 30 -24 75 -28 100 -4 25 -21
86 -38 135 -17 50 -35 102 -40 116 -6 19 -3 41 11 75 11 27 26 64 34 82 8 18
14 38 14 46 0 7 -12 23 -26 37 -14 13 -32 36 -40 52 -14 26 -13 32 17 94 27
56 30 72 24 112 -3 25 -9 62 -12 82 -3 24 1 48 13 70 10 19 22 61 27 94 4 33
9 105 11 160 1 59 9 127 20 165 10 38 16 81 13 104 -3 21 1 56 9 79 8 23 21
48 28 57 8 8 26 38 41 65 18 34 25 59 21 78 -4 20 1 37 17 59 12 17 32 42 45
56 12 14 27 43 33 66 6 23 17 53 25 67 7 15 42 54 78 88 36 36 66 73 69 89 3
15 29 51 56 81 28 29 51 58 51 63 0 6 21 29 46 52 39 36 47 50 51 89 4 29 14
54 27 67 11 11 38 34 58 51 20 17 40 39 43 50 4 11 25 29 48 41 23 11 66 45
94 75 29 30 53 57 53 60 0 3 14 18 30 33 22 21 30 37 30 64 0 26 4 34 14 30 8
-3 22 3 31 13 9 10 24 28 33 41 14 19 28 24 77 25 42 2 72 9 96 25 20 12 53
22 73 22 25 0 52 11 89 36 28 20 59 43 68 50 9 8 48 23 88 33 41 11 78 24 85
31 6 6 15 27 21 47 8 29 24 46 73 80 46 31 73 43 99 43 20 0 54 5 77 12 22 6
59 24 80 40 22 15 51 28 65 28 18 0 31 9 43 30 13 23 29 32 75 45 32 8 72 20
88 26 17 6 54 17 82 25 29 7 84 29 121 48 37 19 88 39 112 46 25 6 56 22 68
33 13 12 31 36 40 52 8 17 19 53 23 80 4 28 10 57 14 66 4 12 -2 19 -23 27
-16 5 -42 26 -57 46 -18 24 -35 36 -52 36 -14 0 -51 -16 -83 -36 -51 -32 -61
-34 -81 -23 -13 7 -39 16 -58 20 -23 5 -46 3 -73 -8 -21 -8 -48 -13 -60 -10
-13 4 -54 -2 -91 -11 -62 -16 -70 -21 -90 -57 -17 -29 -33 -44 -62 -54 -22 -7
-78 -14 -125 -15 -74 -1 -90 -5 -126 -28 -22 -14 -74 -59 -114 -100 -56 -55
-85 -76 -119 -86 -25 -7 -72 -19 -104 -27 -40 -9 -70 -24 -100 -50 -23 -21
-62 -59 -87 -85 -34 -36 -55 -50 -85 -55 -22 -4 -46 -12 -52 -18 -7 -5 -13
-22 -13 -37 0 -15 -8 -38 -19 -51 -10 -13 -26 -39 -35 -58 -10 -18 -36 -53
-58 -77 -22 -24 -43 -58 -47 -76 -5 -26 -13 -34 -39 -39 -19 -4 -44 -17 -57
-29 -13 -12 -29 -35 -35 -50 -8 -19 -25 -33 -54 -44 -30 -12 -53 -31 -76 -64
-19 -26 -59 -72 -90 -102 -31 -30 -83 -84 -117 -120 -34 -36 -80 -80 -102 -99
-22 -18 -59 -60 -81 -93 -22 -33 -40 -69 -40 -79 0 -12 -14 -28 -35 -40 -19
-12 -35 -27 -35 -35 0 -8 -20 -35 -45 -61 -25 -25 -45 -55 -45 -67 0 -11 -14
-50 -30 -85 -26 -55 -31 -76 -29 -135 0 -44 -5 -84 -14 -106 -8 -19 -29 -45
-46 -58 -17 -12 -31 -31 -31 -40 0 -10 -11 -33 -25 -52 -16 -22 -25 -47 -25
-70 0 -24 -7 -43 -19 -54 -11 -10 -23 -32 -26 -50 -4 -17 -16 -58 -27 -91 -11
-32 -28 -71 -39 -86 -12 -18 -19 -44 -19 -75 0 -27 -10 -72 -21 -100 -21 -51
-21 -54 -5 -101 10 -26 21 -66 26 -88 7 -34 5 -43 -16 -68 -13 -16 -24 -33
-24 -37 0 -5 11 -35 25 -66 14 -31 25 -64 25 -73 0 -9 -11 -46 -24 -82 -13
-37 -29 -77 -36 -89 -9 -17 -8 -30 3 -58 11 -29 12 -66 6 -172 -5 -101 -3
-148 7 -185 7 -27 20 -96 28 -152 11 -73 12 -112 5 -138 -6 -20 -9 -41 -7 -47
2 -6 22 -17 44 -23 30 -8 38 -16 37 -31 -1 -10 -5 -33 -9 -51 -5 -25 -1 -39
19 -65 14 -18 32 -55 41 -81 9 -26 16 -55 16 -63 0 -9 16 -36 36 -60 20 -24
43 -44 51 -44 7 0 29 -16 49 -35 19 -19 45 -35 57 -35 13 0 38 -15 57 -35 19
-19 39 -35 46 -35 7 0 27 -14 45 -32 17 -18 51 -44 74 -59 42 -27 45 -27 166
-22 75 3 132 10 145 18 14 9 41 11 86 8 63 -5 68 -4 126 33 33 22 68 51 77 66
9 16 37 37 66 49 33 15 66 41 99 80 32 36 62 60 79 64 16 3 36 14 44 23 8 9
20 36 27 60 11 42 13 44 123 96 74 36 124 67 148 92 20 22 40 52 43 68 4 16
25 50 47 74 22 25 53 74 70 108 17 35 40 66 51 69 10 4 26 17 34 31 9 13 22
24 29 24 6 0 19 8 28 18 9 10 20 33 23 52 4 18 15 41 26 52 10 10 18 32 18 48
0 25 8 35 50 61 44 27 50 35 50 65 0 25 11 45 45 84 25 28 45 55 45 60 0 5 18
21 40 35 24 15 40 33 40 45 0 10 -5 30 -11 44 -10 20 -8 31 12 63 12 21 38 57
57 80 18 23 38 58 44 79 5 20 18 49 28 63 10 14 26 51 35 81 10 30 25 72 33
93 8 21 31 52 51 70 28 26 43 53 68 129 18 53 33 112 33 132 0 30 5 37 34 51
19 9 41 24 49 33 8 9 26 40 41 67 14 28 29 67 32 88 5 25 17 46 38 63 17 15
36 36 43 48 7 11 13 44 13 71 0 39 10 67 44 131 24 44 46 97 50 116 4 20 15
47 24 59 10 13 23 40 29 59 6 19 25 73 42 119 17 46 31 94 31 107 0 14 16 42
38 67 22 23 46 64 55 91 10 27 17 64 17 82 0 17 18 67 40 111 23 44 43 97 47
119 3 24 18 52 38 74 17 19 37 49 43 65 6 17 14 59 17 95 4 36 18 89 31 117
13 29 26 65 30 80 4 16 17 46 29 68 12 22 28 61 34 86 6 26 20 66 31 90 11 24
34 69 51 99 16 30 34 73 39 95 5 22 15 70 23 107 7 37 18 73 24 80 5 7 23 47
40 88 17 41 40 100 53 130 12 30 29 75 37 100 9 25 23 63 33 85 10 22 29 64
44 92 14 29 26 61 26 72 0 11 10 27 22 35 12 9 34 16 49 16 15 0 40 -7 55 -15
18 -9 42 -12 65 -9 32 5 40 2 64 -24 26 -29 30 -31 104 -30 58 1 83 6 106 21
17 11 38 30 47 41 10 12 18 28 18 36 0 10 -22 21 -67 34 -38 10 -74 20 -81 22
-7 2 -22 19 -33 39 -12 19 -31 37 -43 39 -11 3 -57 12 -101 21 -44 9 -87 20
-95 24 -8 4 -21 20 -29 36 -7 15 -15 44 -18 64 -4 29 2 47 26 86 17 28 35 75
41 105 6 30 17 58 24 62 8 5 24 23 35 42 12 18 21 44 21 58 0 13 9 41 20 63
11 22 20 48 20 60 0 11 27 73 60 138 59 116 60 119 54 180 -6 58 -4 65 25 104
17 24 31 52 31 63 0 11 -6 29 -12 40 -10 16 -10 24 0 38 7 9 22 37 33 62 11
25 47 70 80 101 l59 57 -6 53 c-3 30 -1 66 4 81 6 14 29 36 52 49 26 15 43 32
46 49 4 14 14 52 24 85 11 33 23 74 29 90 6 17 13 42 16 57 3 18 20 38 46 55
25 16 50 45 64 74 13 25 29 68 36 95 8 32 23 59 45 79 27 26 33 40 38 90 4 33
14 84 24 114 13 40 29 65 65 97 30 27 52 57 58 78 5 20 21 49 35 65 14 17 36
58 50 92 14 33 38 84 53 113 16 28 32 64 35 79 4 16 22 51 41 79 19 28 35 61
35 75 0 13 7 36 15 51 8 15 41 54 74 86 51 51 58 62 49 79 -5 11 -8 34 -5 51
3 18 22 63 43 100 23 43 51 78 75 95 22 15 43 40 49 59 7 17 15 32 20 32 4 0
15 18 24 40 9 22 16 60 16 83 0 37 6 48 43 84 23 23 53 43 67 45 20 2 28 12
38 48 7 25 19 55 25 66 7 12 39 44 72 72 50 42 70 69 120 163 40 76 76 128
107 158 33 31 50 56 54 80 4 21 22 52 43 76 21 22 45 52 54 67 10 15 31 35 47
43 17 9 44 34 60 57 17 23 35 60 41 82 6 23 18 55 26 73 8 18 24 35 34 38 11
4 47 41 81 83 33 42 69 97 80 121 10 25 37 64 58 88 22 23 40 49 40 56 0 8 24
34 53 58 28 24 70 60 92 81 22 20 60 52 85 70 31 24 57 57 87 113 23 44 43 92
43 107 0 16 13 43 33 65 17 21 39 43 47 50 8 7 27 13 42 13 19 0 35 11 57 39
17 22 38 55 46 75 8 19 15 60 15 90 0 31 8 75 17 98 9 24 29 58 45 76 21 24
28 43 28 73 0 22 -5 49 -10 60 -9 16 -22 19 -74 19 -47 0 -67 4 -77 17 -8 9
-32 29 -53 45 -26 19 -51 28 -77 28z m-481 -551 c13 1 32 -4 43 -9 10 -6 28
-28 39 -50 11 -22 20 -52 20 -68 0 -16 -7 -35 -15 -42 -8 -6 -24 -37 -35 -68
-12 -32 -30 -66 -40 -77 -10 -11 -28 -42 -40 -69 -11 -27 -46 -76 -77 -109
-30 -34 -62 -76 -69 -93 -7 -18 -25 -41 -40 -53 -14 -11 -34 -23 -44 -26 -9
-3 -31 -31 -48 -63 -17 -31 -40 -63 -51 -69 -12 -7 -35 -41 -52 -75 -18 -35
-51 -84 -75 -111 -23 -26 -64 -90 -91 -143 -32 -65 -60 -106 -85 -126 -25 -19
-38 -38 -38 -53 0 -16 -12 -33 -35 -51 -22 -17 -39 -40 -45 -65 -6 -21 -23
-47 -38 -59 -15 -12 -48 -46 -74 -76 -27 -31 -48 -65 -48 -76 0 -11 -19 -39
-43 -62 -24 -23 -61 -78 -85 -125 -24 -46 -51 -96 -61 -110 -10 -14 -24 -43
-30 -63 -7 -21 -26 -47 -42 -59 -24 -17 -29 -27 -29 -64 0 -36 -4 -47 -22 -56
-13 -6 -33 -23 -46 -38 -13 -14 -32 -46 -43 -71 -15 -32 -18 -55 -13 -83 5
-35 3 -43 -28 -76 -19 -20 -42 -57 -52 -82 -12 -35 -25 -49 -52 -62 -34 -17
-35 -19 -29 -56 5 -33 3 -41 -13 -50 -11 -6 -25 -23 -31 -39 -7 -16 -24 -38
-39 -49 -19 -14 -32 -37 -41 -74 -11 -41 -27 -67 -66 -109 -28 -30 -64 -77
-80 -105 -23 -40 -29 -63 -31 -120 -1 -49 -8 -82 -23 -110 -11 -21 -21 -46
-21 -55 0 -9 -11 -27 -24 -40 -14 -12 -28 -36 -31 -51 -4 -16 -27 -53 -51 -81
-30 -35 -47 -65 -51 -92 -4 -29 -16 -49 -41 -71 -19 -16 -46 -48 -60 -70 -22
-34 -26 -55 -31 -146 -6 -104 -7 -107 -49 -170 -37 -55 -42 -68 -37 -100 5
-30 1 -45 -19 -76 -15 -22 -40 -50 -57 -62 -29 -22 -31 -26 -24 -68 5 -37 3
-49 -14 -67 -11 -12 -27 -37 -35 -57 -8 -20 -32 -58 -54 -85 -21 -27 -41 -56
-44 -64 -3 -8 -2 -27 3 -42 6 -21 2 -31 -17 -49 -13 -12 -29 -38 -35 -58 -7
-20 -20 -52 -30 -71 -10 -20 -23 -60 -29 -89 -6 -32 -21 -68 -38 -89 -15 -19
-32 -42 -39 -51 -6 -9 -14 -43 -16 -76 -3 -33 -15 -87 -27 -120 -12 -33 -27
-80 -32 -105 -6 -25 -23 -60 -39 -78 -20 -23 -29 -43 -29 -68 0 -24 -8 -43
-25 -59 -14 -15 -36 -25 -53 -25 -17 0 -37 9 -48 21 -10 11 -57 46 -104 77
-46 30 -102 72 -125 92 -22 20 -65 54 -95 75 -30 21 -59 45 -64 53 -4 8 -16
22 -26 32 -10 10 -27 31 -36 46 -10 15 -34 33 -53 41 -20 9 -59 40 -88 71 -40
41 -58 71 -74 121 -12 36 -28 80 -37 96 -8 17 -26 42 -39 57 -22 23 -25 33
-21 78 5 49 4 53 -34 88 -34 32 -38 41 -33 69 4 24 0 37 -19 57 -14 16 -27 46
-31 74 -5 26 -7 120 -6 209 1 146 0 165 -19 201 -15 29 -19 50 -15 75 4 18 1
53 -5 76 -9 35 -8 55 5 108 9 36 23 80 32 98 13 28 13 36 -1 78 -12 36 -13 53
-4 77 7 23 7 38 0 56 -7 13 -9 31 -6 39 4 9 19 22 35 31 16 8 29 16 29 19 0 2
-4 15 -9 29 -8 20 -5 32 23 68 18 24 39 60 45 81 7 21 12 66 11 100 -1 34 -2
78 -1 98 1 27 14 53 55 106 30 38 62 88 71 110 9 23 32 56 52 73 19 18 42 49
51 69 8 20 18 56 21 81 5 39 11 47 41 62 29 15 37 27 55 85 12 38 30 83 39
102 10 18 47 62 82 97 36 35 71 79 79 97 8 18 21 39 29 47 9 7 16 19 16 27 0
8 18 32 40 54 22 22 46 52 55 67 8 15 31 38 52 52 20 14 53 41 73 61 21 20 52
40 71 44 19 4 45 17 59 30 14 12 41 25 61 29 24 4 52 23 90 59 30 29 69 71 87
93 18 21 46 56 63 77 17 20 37 37 44 37 7 0 24 9 39 21 14 11 26 27 26 35 0 9
-11 30 -25 49 l-26 33 53 7 c29 4 73 16 97 27 26 13 50 34 60 51 9 17 33 49
53 71 28 32 55 48 118 71 63 23 89 38 109 64 14 19 33 40 41 48 8 7 54 46 103
87 48 40 115 87 148 104 49 25 74 32 121 32 56 0 61 2 106 45 26 25 63 50 82
55 19 6 39 10 44 10 6 0 20 10 33 22 15 14 23 33 23 53 0 18 8 39 18 47 9 9
33 21 52 26 19 6 62 20 94 32 32 12 73 32 91 46 17 13 40 24 49 24 10 0 42 25
72 55 31 31 69 62 86 71 28 15 34 14 68 -1 37 -17 39 -17 82 9 25 14 55 26 67
26 13 0 40 13 60 29 22 18 53 31 81 34 25 3 65 9 90 14 38 7 48 14 65 45 11
20 34 43 52 52 19 9 43 16 54 16 12 0 33 13 47 28 15 16 34 31 42 35 8 3 25 6
38 6z"/>
<path d="M16685 11602 c-11 3 -33 -1 -48 -9 -22 -12 -34 -12 -63 -3 -33 11
-38 10 -62 -12 -15 -14 -45 -35 -67 -48 -22 -13 -58 -26 -79 -29 -34 -5 -42
-12 -60 -48 -12 -23 -37 -54 -57 -70 -19 -15 -54 -49 -77 -74 -23 -25 -42 -51
-42 -58 0 -6 -15 -28 -33 -48 -19 -21 -48 -64 -66 -96 -18 -31 -41 -62 -51
-67 -10 -5 -26 -32 -35 -59 -9 -27 -24 -55 -33 -64 -9 -8 -27 -18 -39 -21 -15
-5 -26 -19 -32 -44 -5 -20 -13 -53 -16 -72 -4 -19 -14 -47 -21 -62 -8 -15 -23
-32 -34 -38 -11 -6 -33 -39 -49 -74 -16 -34 -33 -75 -36 -89 -4 -15 -20 -41
-36 -58 -23 -24 -35 -30 -53 -25 -14 3 -28 2 -31 -4 -3 -6 1 -17 9 -26 9 -8
16 -24 16 -33 0 -10 -7 -36 -16 -57 -9 -22 -28 -52 -43 -69 -16 -16 -41 -61
-56 -99 -17 -40 -40 -77 -56 -88 -21 -16 -30 -37 -44 -96 -10 -43 -28 -94 -42
-114 -15 -22 -28 -61 -34 -100 -4 -35 -16 -88 -25 -118 -9 -30 -18 -84 -19
-120 -1 -36 -11 -95 -22 -132 -11 -37 -26 -74 -32 -82 -6 -7 -18 -48 -26 -90
-8 -43 -20 -86 -25 -97 -6 -11 -10 -48 -10 -82 1 -34 0 -105 -3 -157 -2 -59
-10 -107 -20 -125 -8 -17 -22 -56 -32 -87 -13 -45 -14 -65 -5 -97 6 -22 23
-55 38 -73 23 -27 27 -40 25 -90 -1 -49 2 -60 19 -69 11 -6 31 -8 44 -5 14 4
32 22 44 46 11 22 24 40 29 40 5 0 17 7 26 17 12 12 15 25 10 50 -4 20 0 53 9
81 8 26 17 79 21 117 4 39 20 120 35 180 16 61 33 123 39 138 6 16 11 42 11
58 0 16 7 46 17 67 9 20 19 72 23 115 6 67 10 81 36 108 16 17 44 39 62 51 18
11 32 28 32 39 0 11 -7 33 -15 49 -13 26 -13 36 0 92 8 35 15 85 15 111 0 26
7 61 15 76 11 22 12 37 5 62 -6 19 -10 48 -10 66 0 24 15 49 67 110 36 43 75
92 85 108 10 17 18 45 18 63 0 23 8 41 26 57 15 14 30 25 34 25 4 0 13 13 20
29 6 16 20 37 31 47 10 9 19 28 19 41 0 13 11 35 25 49 22 22 32 25 64 19 33
-5 40 -3 54 19 10 14 17 34 17 44 0 11 -7 25 -15 32 -8 7 -15 24 -15 39 0 15
13 42 29 61 23 27 28 42 24 67 -4 25 -1 34 20 48 14 9 31 33 38 53 6 20 23 51
38 67 15 17 34 47 44 67 11 26 25 40 44 44 18 5 38 1 62 -12 34 -18 36 -22 34
-64 -2 -25 -3 -65 -3 -90 -1 -25 -7 -88 -15 -140 -7 -52 -29 -139 -49 -194
-22 -63 -33 -108 -30 -125 4 -18 -3 -46 -20 -81 -14 -30 -26 -64 -26 -76 0
-12 -9 -33 -20 -47 -11 -14 -27 -44 -34 -65 -8 -22 -21 -78 -30 -124 -8 -45
-18 -114 -22 -151 -5 -47 -14 -79 -30 -103 -13 -19 -24 -42 -24 -50 0 -8 -7
-28 -15 -43 -8 -16 -17 -48 -21 -72 -4 -24 -15 -61 -25 -81 -11 -21 -19 -52
-19 -70 0 -18 -9 -51 -19 -74 -10 -22 -30 -52 -44 -66 -15 -15 -29 -39 -32
-55 -3 -15 -16 -50 -28 -78 -15 -36 -21 -71 -22 -123 0 -70 -2 -75 -31 -100
-22 -18 -34 -40 -39 -66 -3 -21 -17 -63 -31 -94 -19 -43 -24 -71 -24 -137 0
-69 -4 -87 -21 -109 -12 -15 -36 -62 -54 -106 -19 -43 -42 -93 -52 -112 -11
-21 -18 -55 -19 -93 0 -33 -8 -82 -17 -108 -9 -26 -17 -62 -17 -79 0 -17 -10
-45 -23 -62 -13 -17 -34 -48 -47 -70 -14 -24 -28 -70 -36 -123 -8 -55 -20 -96
-33 -114 -12 -15 -21 -42 -21 -58 0 -17 -4 -40 -9 -53 -5 -13 -13 -45 -19 -73
-6 -27 -16 -79 -23 -115 -11 -54 -20 -73 -56 -111 -35 -38 -43 -53 -43 -85 0
-21 -10 -68 -21 -104 -12 -36 -30 -83 -39 -105 -10 -22 -34 -80 -53 -130 -19
-49 -38 -103 -43 -119 -5 -18 -22 -35 -41 -45 -24 -12 -34 -25 -39 -49 -3 -17
-19 -48 -35 -68 -16 -20 -29 -42 -29 -48 0 -6 -11 -32 -25 -58 -17 -32 -23
-56 -19 -75 3 -17 -7 -76 -26 -148 -17 -66 -39 -129 -48 -140 -9 -11 -25 -25
-34 -32 -9 -7 -25 -28 -36 -45 -13 -21 -18 -43 -15 -60 4 -21 -11 -61 -61
-159 -36 -72 -66 -142 -66 -155 0 -13 -4 -24 -10 -24 -5 0 -17 -14 -25 -31 -9
-17 -14 -37 -11 -44 3 -9 -4 -15 -22 -17 -24 -3 -29 -10 -43 -63 -9 -34 -24
-76 -34 -95 -10 -19 -28 -47 -40 -62 -16 -18 -25 -47 -30 -90 -7 -55 -12 -67
-44 -98 -21 -20 -54 -70 -74 -114 -20 -43 -37 -90 -37 -104 0 -18 -15 -41 -44
-72 -25 -25 -56 -65 -70 -90 -14 -25 -39 -74 -56 -108 -16 -35 -30 -69 -30
-76 0 -6 -12 -28 -26 -49 -21 -31 -24 -45 -19 -76 5 -29 2 -42 -10 -55 -9 -9
-28 -16 -41 -16 -19 0 -28 -8 -38 -32 -8 -18 -19 -57 -26 -87 -10 -44 -19 -57
-46 -73 -23 -13 -43 -38 -59 -73 -14 -28 -25 -69 -25 -91 -1 -21 -7 -56 -15
-77 -7 -22 -23 -46 -34 -54 -12 -8 -26 -34 -32 -59 -7 -28 -21 -51 -35 -61
-13 -8 -35 -40 -50 -70 -14 -31 -33 -78 -41 -105 l-14 -50 39 -47 c21 -25 47
-61 56 -79 14 -28 22 -33 39 -27 12 4 46 9 75 12 50 5 54 8 97 64 41 54 45 64
45 116 0 55 2 60 45 103 42 43 45 49 35 74 -5 15 -10 31 -10 35 0 4 16 29 36
54 20 26 43 47 51 47 8 0 21 16 29 35 7 19 14 50 14 69 0 21 12 56 31 87 16
29 41 66 55 84 13 18 35 59 49 92 13 34 48 96 78 139 30 44 58 90 62 104 4 14
26 51 47 82 34 48 41 66 42 111 1 51 5 59 59 121 31 38 61 84 67 105 5 21 19
46 30 56 11 10 29 42 40 72 11 29 20 67 20 83 0 21 12 41 45 73 25 25 56 69
70 98 14 30 25 59 25 64 0 6 18 51 40 100 22 50 40 100 40 112 0 13 18 41 40
64 22 23 40 46 40 51 0 5 17 40 37 76 22 39 36 77 35 92 -2 16 8 41 26 66 16
22 46 73 66 114 22 45 39 97 43 130 5 48 11 60 48 95 41 39 42 41 29 68 -13
24 -13 28 6 44 11 10 29 26 40 36 14 11 20 30 20 57 0 30 7 46 31 71 16 17 34
42 40 56 5 13 9 40 9 59 0 23 11 51 30 79 17 24 43 52 59 61 16 10 34 27 40
38 6 12 15 40 21 63 6 24 26 58 48 81 20 22 44 55 53 73 9 19 26 68 39 109 13
41 33 86 44 100 12 14 31 39 43 56 11 17 36 66 53 110 18 43 37 83 41 89 5 5
9 31 9 57 0 44 4 53 39 86 22 20 64 66 95 101 37 42 60 79 67 107 6 23 28 65
50 94 21 28 41 67 45 87 4 20 24 61 45 91 29 41 39 65 39 94 0 22 7 52 15 68
9 17 22 30 29 30 7 0 33 26 57 58 42 55 44 60 42 120 -1 35 4 83 12 106 8 23
37 67 65 96 28 30 58 71 66 91 8 20 26 41 39 47 15 7 30 30 45 69 12 32 33 70
47 85 14 14 36 29 50 33 20 5 24 11 22 38 -2 18 4 54 12 82 10 35 31 67 72
111 31 34 57 65 57 70 0 5 20 35 43 66 24 32 62 71 86 89 43 30 43 32 37 76
-6 43 -4 47 39 91 28 28 47 58 51 79 4 20 15 38 28 45 11 6 37 24 56 40 24 20
46 28 72 28 l38 0 0 51 c0 47 2 51 31 61 16 6 40 25 52 43 12 17 39 55 60 82
20 28 52 62 70 76 18 14 48 53 66 87 21 39 43 65 59 73 15 6 42 24 59 39 18
15 50 31 70 37 21 5 50 12 64 15 15 3 49 25 75 49 27 24 72 58 99 76 28 18 66
51 85 72 29 32 51 44 125 68 58 18 96 26 106 20 9 -5 19 -21 22 -36 2 -16 10
-44 17 -63 7 -19 20 -53 29 -75 11 -28 15 -64 13 -122 -2 -68 0 -83 14 -91 11
-6 20 -29 25 -66 4 -31 3 -71 -2 -89 -5 -18 -6 -54 -3 -81 6 -39 3 -57 -14
-90 -11 -23 -28 -63 -37 -91 -9 -27 -20 -70 -24 -95 -5 -25 -13 -58 -20 -75
-7 -16 -23 -52 -37 -79 -14 -30 -24 -67 -24 -93 0 -33 -7 -50 -30 -76 -24 -27
-34 -55 -50 -132 -11 -53 -25 -126 -30 -162 -6 -36 -19 -82 -29 -102 -10 -20
-24 -60 -31 -89 -7 -30 -28 -76 -46 -104 -19 -27 -34 -55 -34 -62 0 -6 -20
-32 -45 -56 -37 -37 -47 -54 -56 -102 -7 -32 -16 -61 -20 -64 -5 -3 -9 -26 -9
-52 0 -36 -12 -70 -50 -147 -27 -55 -50 -110 -50 -123 0 -12 -8 -39 -19 -60
-10 -20 -21 -62 -24 -92 -5 -47 -12 -60 -44 -90 -21 -19 -42 -42 -48 -51 -5
-9 -23 -33 -39 -53 -15 -20 -28 -48 -28 -63 0 -16 -7 -57 -16 -93 -8 -36 -19
-70 -24 -76 -5 -7 -22 -40 -39 -74 -17 -35 -35 -88 -40 -119 -6 -31 -21 -86
-34 -123 -14 -38 -33 -85 -43 -105 -11 -21 -25 -61 -32 -90 -11 -41 -11 -58
-2 -78 7 -14 12 -36 12 -49 0 -14 -10 -30 -25 -40 -13 -9 -30 -16 -37 -16 -7
0 -20 -10 -27 -22 -8 -13 -18 -64 -22 -115 -4 -64 -14 -106 -29 -139 -18 -35
-24 -66 -24 -123 -1 -47 -8 -89 -18 -111 -9 -19 -21 -50 -27 -68 -6 -19 -16
-93 -22 -165 -7 -74 -18 -139 -25 -147 -7 -8 -16 -31 -21 -50 -6 -23 -18 -39
-37 -48 -19 -9 -26 -19 -23 -30 3 -10 15 -44 27 -77 16 -43 24 -91 28 -173 4
-99 7 -115 24 -125 11 -7 28 -29 39 -49 10 -20 35 -50 54 -65 19 -15 35 -36
35 -45 0 -13 8 -18 30 -18 24 0 35 -7 51 -34 11 -20 33 -39 51 -45 17 -6 45
-11 62 -11 18 0 37 -5 44 -12 7 -7 29 -14 50 -15 20 -2 93 -5 162 -7 90 -2
135 1 160 10 19 8 64 18 100 23 36 5 94 17 129 26 35 9 82 25 104 36 22 12 48
18 59 16 10 -3 40 2 65 10 25 9 59 30 74 48 15 17 52 44 81 60 29 15 66 39 82
53 22 18 37 22 59 18 22 -5 36 0 59 19 16 14 38 25 47 25 10 0 31 5 48 10 16
6 40 25 53 42 13 17 23 44 22 61 0 17 -8 37 -16 45 -14 14 -29 14 -144 -1 -70
-9 -143 -17 -161 -17 -18 0 -63 -15 -100 -34 -36 -19 -84 -36 -106 -39 -22 -2
-62 -13 -90 -25 -27 -11 -73 -25 -102 -32 -39 -9 -57 -9 -73 0 -16 8 -30 9
-52 1 -17 -6 -47 -11 -65 -11 -26 0 -42 8 -63 30 -15 17 -31 30 -35 30 -4 0
-14 -9 -23 -20 -10 -11 -46 -29 -82 -40 l-65 -20 -35 40 c-19 22 -42 40 -50
40 -9 0 -21 5 -28 12 -7 7 -12 20 -12 30 0 10 -13 30 -30 45 -29 25 -30 30
-30 106 0 44 5 97 12 118 9 31 8 51 -2 95 -12 48 -11 64 3 122 9 37 19 103 23
147 3 44 12 110 20 147 7 38 25 86 39 108 14 22 25 46 25 53 0 8 9 22 20 32
11 10 20 26 20 36 0 10 -5 21 -11 25 -7 4 -9 23 -5 54 3 26 24 101 45 166 21
65 46 133 54 149 8 17 20 42 26 58 6 15 18 27 29 27 9 0 28 7 40 16 12 8 22
22 22 30 0 8 -9 14 -19 14 -10 0 -21 6 -24 14 -3 7 6 44 19 82 13 38 24 88 24
112 0 30 7 53 24 75 13 18 29 49 35 69 7 21 24 47 39 59 18 14 29 34 33 62 4
23 13 67 21 98 8 30 34 90 57 132 23 42 51 82 62 87 12 7 19 21 19 39 0 16 7
48 15 71 8 23 15 69 15 102 0 53 3 62 34 93 25 25 42 58 65 130 17 53 31 103
31 111 0 8 -5 23 -12 34 -11 16 -8 23 14 47 15 15 34 45 42 65 9 21 16 46 16
57 0 11 13 35 28 53 16 18 41 56 55 83 15 28 34 68 44 89 15 36 16 42 1 85 -9
25 -14 59 -11 74 4 18 15 33 32 40 14 6 36 20 49 31 12 11 22 26 22 34 0 8 13
38 29 66 25 43 30 66 36 153 7 98 9 104 47 154 35 48 38 56 32 95 -3 24 -3 55
0 69 4 14 23 43 43 65 34 39 35 42 29 95 -4 39 -2 64 8 83 8 15 28 37 45 50
l32 23 -21 26 c-15 19 -20 41 -20 85 0 55 2 61 36 92 31 28 34 35 22 47 -8 8
-19 23 -25 33 -8 15 -7 30 3 60 12 32 13 58 5 126 -5 47 -14 98 -20 113 -6 16
-11 42 -11 58 0 16 -9 47 -20 69 -11 21 -24 42 -30 45 -6 4 -22 29 -36 56 -19
39 -29 49 -43 44 -10 -3 -38 1 -62 8 -24 8 -63 20 -86 27 -27 8 -64 11 -105 6
-35 -3 -85 -10 -113 -14 -27 -5 -65 -16 -84 -26 -19 -10 -55 -39 -80 -65 -30
-30 -69 -56 -111 -73 -36 -15 -74 -28 -85 -30 -11 -2 -29 -20 -40 -40 -11 -20
-39 -50 -60 -67 -22 -17 -61 -47 -88 -67 -27 -22 -50 -49 -53 -63 -3 -14 -8
-33 -10 -42 -3 -9 -24 -23 -47 -32 -23 -8 -53 -18 -67 -21 -15 -4 -38 -25 -57
-53 -18 -27 -73 -91 -124 -143 -53 -55 -97 -109 -104 -130 -9 -25 -25 -42 -61
-63 -27 -16 -69 -47 -92 -70 -24 -23 -59 -64 -77 -92 -18 -27 -51 -69 -74 -92
-34 -36 -41 -49 -41 -83 0 -30 -6 -47 -24 -63 -13 -12 -46 -40 -74 -62 -28
-22 -55 -49 -60 -60 -5 -11 -23 -46 -38 -78 -19 -39 -47 -75 -85 -108 l-58
-50 6 -48 c5 -43 2 -51 -26 -84 -28 -32 -30 -38 -19 -56 10 -16 10 -25 2 -39
-6 -9 -22 -17 -35 -18 -13 0 -34 -4 -46 -8 -12 -4 -32 -19 -43 -33 -11 -14
-20 -41 -20 -60 0 -28 -6 -37 -33 -53 -22 -13 -55 -54 -95 -119 -34 -54 -62
-110 -62 -124 0 -14 4 -36 9 -50 5 -13 6 -28 3 -33 -4 -5 -26 -24 -49 -42 -23
-18 -69 -70 -102 -117 -33 -47 -70 -102 -81 -122 -12 -21 -27 -49 -35 -63 -7
-14 -18 -44 -24 -66 -10 -37 -17 -45 -76 -75 -50 -25 -68 -30 -77 -21 -9 9 -8
21 2 53 8 22 24 48 36 56 13 8 31 38 40 66 10 29 31 74 47 100 26 43 29 53 22
103 -6 50 -4 59 25 106 18 29 39 70 46 91 8 22 27 54 43 72 15 18 32 50 35 71
4 22 17 49 29 62 15 16 20 33 19 65 -1 23 7 71 18 107 11 36 20 81 20 100 0
19 12 67 26 105 14 39 29 94 34 123 5 34 19 66 37 89 15 19 34 43 40 52 7 10
18 39 23 67 6 27 14 82 19 121 6 53 15 81 33 105 14 18 33 48 43 67 13 26 16
47 11 88 -4 38 -2 62 9 83 8 16 15 39 15 52 0 13 9 41 20 63 11 22 31 57 44
78 13 22 26 64 30 94 5 44 3 60 -10 74 -15 17 -15 22 11 71 15 29 34 61 43 71
8 9 21 17 28 17 9 0 11 10 7 34 -3 22 0 42 12 60 15 22 15 31 5 55 -10 24 -8
35 8 67 13 26 22 73 27 144 5 58 9 139 10 180 1 41 8 89 16 107 11 27 10 39
-6 90 -10 32 -29 87 -43 122 -25 61 -25 64 -9 93 9 16 17 33 17 38 0 4 -10 14
-22 22 -13 8 -32 17 -43 20z"/>
<path d="M9065 11560 c-12 0 -39 -13 -59 -29 -21 -17 -53 -35 -71 -41 -25 -8
-40 -8 -55 0 -14 8 -43 9 -80 5 -38 -4 -60 -3 -64 4 -4 6 -17 11 -30 11 -13 0
-31 -9 -41 -20 -13 -15 -31 -20 -66 -20 -27 0 -53 -6 -58 -12 -6 -7 -26 -33
-44 -58 -23 -32 -45 -49 -77 -60 -44 -15 -45 -17 -48 -63 -3 -41 -8 -51 -40
-75 -20 -15 -51 -41 -69 -58 -20 -19 -33 -42 -33 -57 0 -13 -12 -46 -27 -73
-14 -27 -38 -74 -53 -104 -15 -30 -33 -72 -39 -92 -7 -21 -28 -56 -47 -79 -19
-22 -34 -51 -34 -64 0 -12 -10 -44 -21 -70 -19 -42 -20 -53 -9 -89 6 -23 22
-59 35 -81 12 -22 26 -54 29 -71 4 -17 20 -44 36 -59 16 -15 32 -41 35 -57 5
-21 22 -39 60 -64 31 -19 67 -34 84 -34 16 0 58 -9 93 -20 34 -11 77 -20 94
-20 17 0 50 7 73 15 23 8 56 25 74 38 17 14 43 28 57 32 14 4 59 25 101 46 41
22 81 39 88 39 6 0 29 9 50 20 22 11 50 34 64 51 20 26 34 33 68 36 24 2 47 9
51 16 4 6 8 23 8 37 0 14 7 38 15 54 8 15 15 39 15 52 0 12 18 44 40 69 22 25
40 56 40 67 0 12 14 45 30 75 17 29 41 88 55 131 14 42 25 95 25 116 0 22 5
54 12 73 8 22 9 41 2 60 -6 19 -21 32 -44 39 -32 11 -35 16 -47 72 -7 34 -22
81 -34 104 -12 24 -36 63 -54 88 -18 25 -36 56 -40 70 -4 14 -12 31 -17 38 -6
6 -21 12 -33 12z m-241 -450 c17 -1 42 -7 56 -15 14 -8 38 -14 54 -15 15 0 50
-14 77 -32 40 -25 49 -37 49 -60 0 -16 -9 -46 -20 -67 -11 -22 -38 -60 -60
-86 -22 -25 -40 -53 -40 -61 0 -7 -16 -31 -35 -53 -19 -21 -41 -54 -49 -73 -8
-19 -21 -39 -28 -45 -7 -5 -66 -18 -131 -27 l-118 -17 -63 29 c-62 29 -64 31
-81 88 -9 33 -21 71 -25 86 -6 19 -3 43 9 78 10 28 34 65 54 85 20 20 37 42
37 49 0 8 8 24 18 36 17 21 20 22 49 7 30 -16 31 -16 62 13 19 19 41 30 59 30
15 0 43 11 62 25 19 14 47 25 64 25z"/>
<path d="M39467 10529 c-17 0 -54 -11 -82 -25 -27 -13 -60 -24 -71 -24 -12 0
-42 -19 -66 -42 -24 -24 -52 -55 -61 -70 -10 -16 -34 -35 -54 -43 -19 -8 -52
-30 -72 -48 -20 -18 -52 -42 -71 -55 -19 -12 -50 -39 -68 -60 -18 -20 -49 -64
-69 -97 -19 -33 -41 -78 -47 -100 -8 -27 -21 -44 -39 -53 -15 -7 -40 -32 -54
-55 -15 -23 -33 -69 -40 -102 -8 -33 -26 -77 -40 -97 -19 -28 -24 -44 -18 -65
3 -15 1 -54 -6 -87 -11 -57 -10 -66 16 -139 15 -43 36 -89 47 -102 10 -13 31
-25 46 -27 23 -3 27 -8 30 -40 2 -22 -1 -38 -7 -38 -6 0 -11 -7 -11 -15 0 -8
18 -31 40 -51 22 -21 54 -46 70 -56 17 -10 48 -18 69 -18 21 0 58 11 85 25 26
14 56 25 66 25 11 0 34 15 52 34 18 19 41 46 51 60 10 15 28 26 40 26 12 0 27
4 33 8 6 4 16 17 23 29 6 12 11 34 11 50 0 17 14 45 35 72 32 40 35 49 35 112
0 58 4 72 25 98 14 16 33 54 41 83 9 29 26 64 38 78 12 14 34 43 49 66 15 22
27 52 27 68 0 15 -7 41 -16 57 -8 17 -18 52 -21 80 -5 41 1 70 32 165 l38 116
-11 98 c-5 53 -17 112 -26 129 -14 25 -22 31 -49 30z m-412 -685 c28 -5 79 -9
115 -9 52 -1 64 -4 61 -15 -3 -8 -5 -41 -6 -72 -1 -32 -9 -73 -17 -90 -9 -18
-24 -53 -34 -78 -10 -25 -29 -58 -43 -73 -14 -16 -40 -37 -58 -48 -24 -15 -41
-18 -66 -14 -19 4 -48 15 -64 25 -21 13 -34 31 -43 66 -13 44 -12 50 9 87 14
24 25 63 28 101 5 51 11 67 37 94 30 32 33 33 81 26z"/>
<path d="M22946 9469 c-17 -1 -44 -7 -61 -13 -16 -6 -42 -19 -57 -29 -23 -16
-32 -17 -66 -6 -36 10 -47 9 -112 -17 -59 -23 -75 -26 -91 -16 -10 7 -35 12
-56 12 -20 0 -71 -12 -112 -26 -42 -14 -88 -37 -102 -50 -25 -24 -31 -25 -165
-25 -129 0 -143 -2 -194 -26 -30 -14 -70 -40 -88 -57 -25 -23 -40 -30 -65 -28
-18 2 -57 -8 -88 -22 -31 -14 -85 -30 -120 -37 -35 -6 -84 -18 -109 -26 -25
-9 -52 -21 -60 -28 -8 -7 -40 -20 -71 -29 -39 -11 -69 -28 -99 -57 -28 -27
-57 -45 -84 -51 -23 -5 -64 -25 -93 -45 -28 -19 -76 -62 -105 -94 -30 -33 -64
-61 -80 -64 -14 -4 -32 -13 -38 -20 -6 -8 -10 -31 -8 -52 3 -36 1 -38 -27 -41
-16 -2 -38 -11 -47 -19 -10 -9 -18 -29 -18 -45 0 -23 -9 -34 -47 -58 -26 -17
-53 -30 -60 -30 -7 0 -21 -17 -32 -38 -11 -21 -27 -44 -35 -51 -10 -9 -16 -30
-16 -60 0 -42 -4 -51 -40 -85 -23 -21 -40 -47 -40 -59 0 -12 -5 -52 -11 -89
-10 -54 -10 -76 1 -108 13 -38 12 -40 -19 -69 -17 -16 -31 -33 -31 -38 -1 -4
-3 -48 -6 -98 -3 -49 -9 -103 -15 -119 -5 -16 -9 -46 -9 -68 0 -21 13 -67 29
-102 15 -34 32 -85 36 -112 4 -27 13 -64 21 -82 9 -21 24 -37 44 -43 17 -6 37
-24 46 -41 9 -18 32 -36 58 -48 24 -10 57 -34 72 -54 27 -34 31 -36 74 -30 39
5 48 2 67 -18 13 -12 43 -46 68 -74 l45 -51 81 -1 c70 -1 87 -5 118 -26 24
-17 51 -26 76 -26 22 0 46 -7 57 -16 10 -10 41 -21 69 -25 39 -6 66 -19 107
-52 38 -29 60 -56 69 -82 7 -21 13 -49 14 -64 0 -14 -5 -47 -11 -73 -7 -31
-24 -60 -46 -82 -29 -29 -34 -41 -34 -81 0 -32 -6 -55 -20 -72 -11 -14 -20
-37 -20 -50 0 -16 -10 -29 -31 -41 -17 -9 -42 -25 -55 -35 -14 -11 -31 -42
-42 -78 -15 -47 -25 -64 -51 -80 -29 -18 -33 -24 -27 -50 5 -25 0 -36 -23 -60
-18 -17 -37 -53 -48 -91 -16 -55 -23 -65 -56 -80 -23 -12 -44 -32 -57 -57 -10
-22 -38 -61 -61 -87 -40 -46 -41 -50 -35 -100 3 -30 1 -65 -5 -81 -7 -18 -8
-66 -3 -136 4 -60 12 -113 18 -118 6 -5 20 -16 31 -23 19 -14 19 -15 1 -48
-12 -23 -17 -44 -12 -61 3 -14 15 -29 27 -32 11 -4 43 -27 70 -51 42 -38 56
-44 93 -44 30 0 48 6 61 20 13 14 31 20 63 20 34 0 53 7 82 30 21 17 54 37 74
45 19 8 51 29 70 45 19 17 51 36 73 44 27 9 44 24 57 50 13 23 29 39 45 42 14
3 55 17 91 31 35 14 76 38 91 54 14 15 38 30 52 33 15 3 38 8 51 11 20 4 25
12 28 42 3 35 6 38 40 44 20 3 49 14 64 23 15 10 69 61 121 113 52 52 112 102
133 112 21 9 50 31 64 49 15 17 54 48 87 67 39 25 66 49 78 73 10 21 27 44 37
53 11 9 43 29 72 43 49 25 52 28 52 65 0 24 8 48 21 65 11 14 27 26 35 26 8 0
14 6 14 13 0 6 19 20 43 29 23 9 52 19 64 23 13 3 35 27 50 52 17 29 38 50 59
59 18 8 43 14 54 14 12 0 28 13 40 33 11 17 19 43 18 57 -3 20 4 28 36 43 21
9 51 17 66 17 16 0 36 3 45 6 9 4 25 24 35 45 11 21 20 44 20 51 0 7 20 33 44
58 43 43 45 47 48 115 3 61 1 70 -15 73 -12 2 -31 -11 -54 -38 -19 -22 -56
-51 -82 -65 -25 -13 -52 -33 -59 -44 -6 -11 -28 -27 -47 -35 -26 -11 -37 -23
-41 -45 -4 -17 -17 -37 -30 -46 -15 -9 -24 -25 -24 -41 0 -13 -6 -26 -12 -29
-7 -2 -29 -6 -49 -9 -26 -5 -53 -23 -102 -72 -37 -36 -67 -68 -67 -72 0 -4
-27 -18 -60 -31 -34 -14 -73 -38 -91 -58 -17 -19 -44 -39 -60 -45 -19 -6 -37
-24 -49 -49 -11 -21 -20 -45 -20 -52 0 -8 -9 -26 -20 -40 -13 -16 -36 -29 -63
-34 -38 -8 -44 -13 -70 -66 -21 -43 -35 -59 -55 -63 -15 -4 -36 -14 -47 -24
-11 -10 -30 -23 -42 -29 -12 -6 -37 -11 -56 -11 -23 0 -48 -11 -77 -32 -24
-18 -57 -43 -74 -56 -17 -12 -48 -27 -69 -33 -21 -5 -41 -17 -44 -26 -3 -8
-26 -28 -51 -44 -25 -15 -53 -41 -62 -57 -10 -16 -31 -32 -47 -36 -15 -4 -59
-11 -98 -16 -38 -5 -106 -18 -150 -29 -44 -11 -108 -24 -143 -29 -34 -4 -67
-5 -72 -2 -6 3 -7 47 -3 109 5 86 10 108 28 130 12 14 28 44 35 66 7 22 32 66
56 98 24 33 44 65 44 71 0 7 9 21 20 31 13 12 20 29 19 49 -2 17 1 41 5 53 4
12 20 32 36 43 16 11 42 44 58 73 17 28 42 88 57 132 25 74 34 86 116 169 79
80 89 94 89 126 0 28 8 46 36 76 19 21 51 56 70 76 18 20 34 47 34 59 0 13 12
35 26 50 20 21 28 43 34 95 5 38 6 79 3 91 -3 12 -12 24 -21 27 -10 2 -32 7
-49 11 -18 4 -43 19 -55 34 -13 15 -41 38 -62 51 -27 17 -71 28 -140 38 -56 7
-118 16 -139 19 -28 4 -43 0 -57 -12 -18 -16 -21 -16 -62 17 -24 19 -68 42
-99 51 -31 9 -70 17 -87 17 -17 0 -46 9 -64 20 -19 11 -70 26 -113 35 -69 13
-84 20 -110 49 -16 19 -39 37 -51 40 -12 4 -26 18 -33 32 -6 14 -26 31 -45 39
-26 11 -35 22 -40 50 -5 26 -13 36 -32 41 -13 3 -29 14 -34 24 -6 10 -10 29
-10 41 0 12 -12 43 -27 68 -26 45 -27 49 -24 201 2 146 4 157 27 191 13 19 24
47 24 61 0 15 -9 31 -22 40 -21 14 -20 15 34 46 30 18 69 32 86 32 24 0 32 6
42 31 12 28 11 33 -8 48 -20 15 -20 17 -3 38 10 12 31 23 47 25 23 2 30 9 34
32 4 26 15 33 90 65 47 20 111 53 142 75 38 26 61 49 68 70 8 25 23 37 73 60
34 17 82 33 107 37 25 4 65 13 90 20 25 6 61 20 81 30 20 11 56 19 80 19 33 0
51 6 72 25 15 14 27 32 27 40 0 8 17 19 41 25 30 8 45 8 52 1 6 -6 20 -11 30
-11 11 0 28 11 39 25 14 18 29 25 52 25 19 0 45 9 60 21 15 12 45 23 67 26 31
5 43 12 54 33 11 22 24 30 57 35 24 3 55 11 69 16 21 8 37 6 74 -11 l46 -21
64 21 c48 16 75 19 115 14 29 -4 67 -2 88 4 20 6 58 15 84 20 40 8 53 6 78 -9
16 -10 30 -24 30 -30 0 -7 19 -29 42 -51 26 -24 47 -55 57 -86 12 -35 22 -48
39 -50 12 -2 29 4 38 12 10 11 34 16 74 16 46 0 61 4 68 18 5 9 12 33 16 53 4
21 17 52 30 71 12 19 26 48 30 64 4 16 10 47 14 69 3 22 5 53 5 70 0 16 -5 31
-12 33 -6 2 -29 21 -52 43 -22 21 -46 39 -54 39 -7 0 -18 7 -25 15 -7 8 -27
15 -45 15 -18 0 -38 -6 -44 -14 -6 -8 -20 -16 -31 -19 -12 -3 -28 6 -46 24
-20 21 -37 29 -58 28z"/>
<path d="M6045 7159 c-5 -1 -30 -5 -55 -8 -25 -4 -56 -14 -69 -23 -21 -15 -26
-15 -67 0 l-44 16 -70 -69 c-56 -56 -73 -81 -90 -129 -11 -33 -30 -70 -42 -83
-12 -13 -27 -23 -33 -23 -7 0 -24 -9 -39 -21 -18 -14 -26 -30 -26 -51 0 -16
-8 -42 -19 -56 -10 -15 -22 -38 -26 -51 -4 -13 -22 -40 -39 -60 -18 -20 -37
-44 -42 -54 -7 -12 -4 -46 8 -105 17 -85 17 -88 -2 -114 -14 -19 -20 -44 -21
-90 -1 -34 4 -92 10 -126 7 -35 17 -76 22 -90 5 -15 28 -43 51 -63 32 -28 41
-43 41 -68 0 -22 -9 -42 -31 -64 -22 -22 -32 -43 -32 -63 0 -20 -9 -39 -25
-54 -14 -13 -29 -38 -34 -54 -4 -17 -4 -45 1 -62 4 -16 6 -93 5 -170 -2 -80
-9 -149 -15 -161 -7 -12 -12 -55 -12 -95 1 -44 6 -83 15 -98 8 -14 14 -35 15
-47 0 -13 -9 -31 -19 -40 -11 -10 -27 -24 -35 -31 -9 -7 -16 -24 -16 -37 0
-14 -12 -33 -30 -47 -16 -13 -40 -44 -53 -69 -14 -25 -28 -64 -32 -86 l-6 -41
-70 -16 c-38 -10 -78 -15 -88 -11 -11 3 -63 7 -116 9 -93 3 -97 2 -126 -25
-25 -24 -29 -34 -29 -83 0 -54 -1 -56 -41 -82 l-41 -25 7 -50 c6 -44 4 -55
-20 -89 -22 -32 -27 -50 -26 -97 0 -32 0 -87 1 -123 0 -36 5 -92 12 -124 6
-33 23 -80 36 -104 14 -24 39 -53 56 -63 17 -10 38 -19 47 -19 9 0 43 13 75
30 32 16 84 35 114 41 30 6 69 18 85 26 17 9 38 22 48 31 9 8 17 23 17 34 0
10 16 35 35 57 19 21 35 48 35 60 0 12 7 37 14 56 10 24 27 40 53 52 21 9 46
24 56 32 10 9 17 28 17 52 0 26 11 53 36 90 19 29 39 71 43 94 4 22 17 56 27
75 11 19 41 67 67 107 26 39 47 77 47 84 0 7 -5 27 -12 45 -10 29 -8 44 15
112 15 44 27 98 27 120 0 23 11 62 25 90 14 27 29 81 35 120 5 39 19 127 30
195 11 69 29 146 40 172 14 32 20 66 18 104 -1 31 4 66 11 79 7 13 14 44 17
69 3 31 -1 54 -11 69 -8 13 -15 32 -15 43 0 11 5 23 10 26 6 3 10 22 10 41 0
19 14 62 30 95 23 45 42 67 77 89 26 17 51 30 57 30 5 0 43 19 82 41 49 28 77
51 84 70 7 15 21 36 32 46 11 9 35 45 53 78 19 33 57 82 84 109 29 29 53 62
57 80 3 17 13 44 21 60 9 17 23 58 33 91 14 49 16 76 9 126 -4 35 -14 91 -22
124 -8 33 -18 67 -21 76 -5 11 -20 16 -51 16 -24 0 -50 5 -58 11 -7 7 -49 19
-93 27 -43 8 -83 14 -89 14z"/>
<path d="M7293 5740 c-4 -1 -26 -9 -49 -20 -33 -15 -60 -19 -143 -17 -100 2
-103 1 -124 -24 -12 -14 -27 -35 -33 -45 -8 -13 -23 -19 -50 -19 -36 0 -41 -3
-62 -45 -12 -25 -39 -60 -58 -78 -35 -32 -36 -35 -32 -92 3 -40 11 -66 24 -81
10 -11 28 -40 39 -63 15 -31 27 -42 46 -44 15 -2 35 -12 45 -23 9 -10 27 -19
40 -19 13 0 47 15 77 33 29 17 86 66 125 109 39 42 78 90 86 106 9 17 29 40
46 52 17 12 38 36 47 53 9 18 22 59 29 92 7 33 13 68 14 77 0 10 -13 24 -30
33 -16 8 -33 15 -37 15z"/>
</g>
</svg>
