<?xml version="1.0" encoding="UTF-8" standalone="no"?>
<!-- Created with Inkscape (http://www.inkscape.org/) -->

<svg
   version="1.1"
   id="svg1"
   width="141.33333"
   height="141.33333"
   viewBox="0 0 141.33333 141.33333"
   sodipodi:docname="ICC_V2_Logo_cmyk.svg"
   inkscape:version="1.4.3 (1:1.4.3+202512261035+0d15f75042)"
   xmlns:inkscape="http://www.inkscape.org/namespaces/inkscape"
   xmlns:sodipodi="http://sodipodi.sourceforge.net/DTD/sodipodi-0.dtd"
   xmlns="http://www.w3.org/2000/svg"
   xmlns:svg="http://www.w3.org/2000/svg">
  <defs
     id="defs1">
    <clipPath
       clipPathUnits="userSpaceOnUse"
       id="clipPath26">
      <path
         d="M 14.0078,526.52299 C 14.0078,813.141 246.34401,1045.47 532.95301,1045.47 819.56302,1045.47 1051.89,813.141 1051.89,526.52299 1051.89,239.92198 819.56302,7.5781052 532.95301,7.5781052 246.34401,7.5781052 14.0078,239.92198 14.0078,526.52299 Z"
         id="path26" />
    </clipPath>
  </defs>
  <sodipodi:namedview
     id="namedview1"
     pagecolor="#ffffff"
     bordercolor="#000000"
     borderopacity="0.25"
     inkscape:showpageshadow="2"
     inkscape:pageopacity="0.0"
     inkscape:pagecheckerboard="0"
     inkscape:deskcolor="#d1d1d1"
     inkscape:zoom="6.5660381"
     inkscape:cx="70.590514"
     inkscape:cy="70.666663"
     inkscape:window-width="1920"
     inkscape:window-height="1168"
     inkscape:window-x="2560"
     inkscape:window-y="0"
     inkscape:window-maximized="1"
     inkscape:current-layer="g1">
    <inkscape:page
       x="0"
       y="0"
       inkscape:label="1"
       id="page1"
       width="141.33333"
       height="141.33333"
       margin="0"
       bleed="0" />
  </sodipodi:namedview>
  <g
     id="g1"
     inkscape:groupmode="layer"
     inkscape:label="1">
    <path
       id="path1"
       d="M 537.402,524.82 128.148,848.207 C 56.7813,759.137 14,646.172 14,523.152 14,482.668 18.7734,443.313 27.5234,405.48 l 509.8636,119.321 0.015,0.019 v 0"
       style="fill:#009857;fill-opacity:1;fill-rule:nonzero;stroke:none"
       transform="matrix(0.13333333,0,0,-0.13333333,0,141.33333)" />
    <path
       id="path2"
       d="m 537.379,1043.46 c -1.008,0 -1.992,0.08 -3,0.08 -164.383,0 -310.863,-76.298 -406.231,-195.333 l 409.254,-323.387 -0.023,518.64 v 0"
       style="fill:#e31b22;fill-opacity:1;fill-rule:nonzero;stroke:none"
       transform="matrix(0.13333333,0,0,-0.13333333,0,141.33333)" />
    <path
       id="path3"
       d="M 940.566,848.262 C 845.793,966.527 700.52,1042.54 537.379,1043.46 l 0.023,-518.64 403.164,323.442 v 0"
       style="fill:#00adef;fill-opacity:1;fill-rule:nonzero;stroke:none"
       transform="matrix(0.13333333,0,0,-0.13333333,0,141.33333)" />
    <path
       id="path4"
       d="M 940.566,848.262 537.402,524.82 l 0.047,-0.007 h 0.024 -0.024 L 1042.4,410.586 c 8.01,36.262 12.36,73.894 12.36,112.566 0,123.039 -42.8,236.028 -114.194,325.11 v 0"
       style="fill:#ec008c;fill-opacity:1;fill-rule:nonzero;stroke:none"
       transform="matrix(0.13333333,0,0,-0.13333333,0,141.33333)" />
    <path
       id="path5"
       d="M 537.414,524.805 763.711,55.9961 C 903.586,124.797 1007.98,254.52 1042.4,410.586 l -504.951,114.227 -0.035,-0.008 v 0"
       style="fill:#fff200;fill-opacity:1;fill-rule:nonzero;stroke:none"
       transform="matrix(0.13333333,0,0,-0.13333333,0,141.33333)" />
    <path
       id="path6"
       d="M 27.5234,405.48 C 63.7734,248.762 170.707,119.172 313.047,52.1563 L 537.387,524.801 27.5234,405.48 v 0"
       style="fill:#214395;fill-opacity:1;fill-rule:nonzero;stroke:none"
       transform="matrix(0.13333333,0,0,-0.13333333,0,141.33333)" />
    <path
       id="path7"
       d="M 537.387,524.801 313.047,52.1563 C 380.227,20.5391 455.215,2.77344 534.379,2.77344 c 82.32,0 160.133,19.19136 229.332,53.22266 l -226.297,468.8089 -0.027,-0.004 v 0"
       style="fill:#0e0d0f;fill-opacity:1;fill-rule:nonzero;stroke:none"
       transform="matrix(0.13333333,0,0,-0.13333333,0,141.33333)" />
    <path
       id="path8"
       d="m 14.0078,526.523 c 0,286.618 232.3362,518.947 518.9452,518.947 286.61,0 518.937,-232.329 518.937,-518.947 C 1051.89,239.922 819.563,7.57813 532.953,7.57813 246.344,7.57813 14.0078,239.922 14.0078,526.523 Z"
       style="fill:none;stroke:#231f20;stroke-width:10;stroke-linecap:butt;stroke-linejoin:miter;stroke-miterlimit:3.8637;stroke-dasharray:none;stroke-opacity:1"
       transform="matrix(0.13333333,0,0,-0.13333333,0,141.33333)" />
    <path
       id="path9"
       d="m 107.719,521.598 c 0,235.437 190.855,426.293 426.289,426.293 235.433,0 426.297,-190.856 426.297,-426.293 0,-235.434 -190.864,-426.2855 -426.297,-426.2855 -235.434,0 -426.289,190.8515 -426.289,426.2855 v 0"
       style="fill:#0e0d0f;fill-opacity:1;fill-rule:nonzero;stroke:none"
       transform="matrix(0.13333333,0,0,-0.13333333,0,141.33333)" />
    <path
       id="path10"
       d="m 107.719,521.598 c 0,235.437 190.855,426.293 426.289,426.293 235.433,0 426.297,-190.856 426.297,-426.293 0,-235.434 -190.864,-426.2855 -426.297,-426.2855 -235.434,0 -426.289,190.8515 -426.289,426.2855 z"
       style="fill:none;stroke:#0e0d0f;stroke-width:26.508;stroke-linecap:butt;stroke-linejoin:miter;stroke-miterlimit:3.8637;stroke-dasharray:none;stroke-opacity:1"
       transform="matrix(0.13333333,0,0,-0.13333333,0,141.33333)" />
    <path
       id="path11"
       d="m 170.621,329.922 c -4.82,45.285 129.102,222.066 363.719,255.801 233.043,33.511 425.125,-67.95 415.711,-143.567 C 931.289,291.367 769.441,95.3125 534.008,95.3125 298.574,95.3125 178.477,256.125 170.621,329.922 v 0"
       style="fill:#ffffff;fill-opacity:1;fill-rule:nonzero;stroke:none"
       transform="matrix(0.13333333,0,0,-0.13333333,0,141.33333)" />
    <path
       id="path12"
       d="m 715.691,315.891 c 130.571,134.089 -85.73,216.359 -86.011,201.355 0.566,-1.641 -3.957,1.379 0,-12.812 71.383,-26.055 39.675,-142 -25.637,-142.793 -66.91,-1.536 -85.684,41.464 -82.383,80.554 2.36,49.961 44.297,45.285 34.805,71.368 -1.485,3.578 -92.078,-6.258 -108.024,-73.211 -21.488,-88.016 37.032,-136.497 97.028,-179.383 -214.34,69.89 -140.289,167.273 -161.082,140.957 -111.489,-136.867 -208.149,-120.52 -201.36,-117.16 147.578,75.773 207.145,261.402 351.45,289.218 180.484,36.227 283.824,-83.457 389.91,-102.519 0.867,-0.652 -37.063,-2.129 -60.41,0 -32.832,1.926 -82.004,13.039 -82.383,12.824 53.281,-93.344 -35.239,-178.508 -34.778,-179.387 l -31.125,10.989 v 0"
       style="fill:#ffffff;fill-opacity:1;fill-rule:nonzero;stroke:none"
       transform="matrix(0.13333333,0,0,-0.13333333,0,141.33333)" />
    <path
       id="path13"
       d="m 715.691,315.891 c 130.571,134.089 -85.73,216.359 -86.011,201.355 0.566,-1.641 -3.957,1.379 0,-12.812 71.383,-26.055 39.675,-142 -25.637,-142.793 -66.91,-1.536 -85.684,41.464 -82.383,80.554 2.36,49.961 44.297,45.285 34.805,71.368 -1.485,3.578 -92.078,-6.258 -108.024,-73.211 -21.488,-88.016 37.032,-136.497 97.028,-179.383 -214.34,69.89 -140.289,167.273 -161.082,140.957 -111.489,-136.867 -208.149,-120.52 -201.36,-117.16 147.578,75.773 207.145,261.402 351.45,289.218 180.484,36.227 283.824,-83.457 389.91,-102.519 0.867,-0.652 -37.063,-2.129 -60.41,0 -32.832,1.926 -82.004,13.039 -82.383,12.824 53.281,-93.344 -35.239,-178.508 -34.778,-179.387 l -31.125,10.989 z"
       style="fill:none;stroke:#ffffff;stroke-width:6.627;stroke-linecap:butt;stroke-linejoin:miter;stroke-miterlimit:3.8637;stroke-dasharray:none;stroke-opacity:1"
       transform="matrix(0.13333333,0,0,-0.13333333,0,141.33333)" />
    <path
       id="path14"
       d="m 718.418,303.32 c 130.566,134.082 -85.73,216.36 -86.016,201.348 0.567,-1.641 -3.957,1.387 0,-12.813 71.387,-26.054 39.68,-142 -25.632,-142.785 -66.915,-1.531 -85.68,41.457 -82.383,80.551 2.351,49.961 44.297,45.281 34.801,71.375 -1.481,3.574 -92.079,-6.269 -108.016,-73.223 C 429.68,339.758 488.203,291.289 548.191,248.391 333.852,318.293 407.906,415.676 387.109,389.348 275.621,252.48 178.965,268.828 185.754,272.195 c 147.578,75.774 207.141,261.399 351.449,289.223 180.485,36.219 283.82,-83.457 389.899,-102.523 0.878,-0.653 -37.051,-2.137 -60.403,0 -32.832,1.925 -82.004,13.031 -82.383,12.824 53.282,-93.348 -35.234,-178.516 -34.773,-179.383 l -31.125,10.984 v 0"
       style="fill:#0e0d0f;fill-opacity:1;fill-rule:nonzero;stroke:none"
       transform="matrix(0.13333333,0,0,-0.13333333,0,141.33333)" />
    <path
       id="path15"
       d="m 718.418,303.32 c 130.566,134.082 -85.73,216.36 -86.016,201.348 0.567,-1.641 -3.957,1.387 0,-12.813 71.387,-26.054 39.68,-142 -25.632,-142.785 -66.915,-1.531 -85.68,41.457 -82.383,80.551 2.351,49.961 44.297,45.281 34.801,71.375 -1.481,3.574 -92.079,-6.269 -108.016,-73.223 C 429.68,339.758 488.203,291.289 548.191,248.391 333.852,318.293 407.906,415.676 387.109,389.348 275.621,252.48 178.965,268.828 185.754,272.195 c 147.578,75.774 207.141,261.399 351.449,289.223 180.485,36.219 283.82,-83.457 389.899,-102.523 0.878,-0.653 -37.051,-2.137 -60.403,0 -32.832,1.925 -82.004,13.031 -82.383,12.824 53.282,-93.348 -35.234,-178.516 -34.773,-179.383 l -31.125,10.984 z"
       style="fill:none;stroke:#0e0d0f;stroke-width:6.627;stroke-linecap:butt;stroke-linejoin:miter;stroke-miterlimit:3.8637;stroke-dasharray:none;stroke-opacity:1"
       transform="matrix(0.13333333,0,0,-0.13333333,0,141.33333)" />
    <path
       id="path16"
       d="m 107.719,521.598 c 0,235.437 190.855,426.293 426.289,426.293 235.433,0 426.297,-190.856 426.297,-426.293 0,-235.434 -190.864,-426.2855 -426.297,-426.2855 -235.434,0 -426.289,190.8515 -426.289,426.2855 z"
       style="fill:none;stroke:#0e0d0f;stroke-width:26.508;stroke-linecap:butt;stroke-linejoin:miter;stroke-miterlimit:3.8637;stroke-dasharray:none;stroke-opacity:1"
       transform="matrix(0.13333333,0,0,-0.13333333,0,141.33333)" />
    <path
       id="path17"
       d="M 356.938,611.887 H 425 l 73.445,202.922 H 441.152 L 392.699,667.258 h -0.765 l -43.071,147.551 h -60.371 l 68.446,-202.922 v 0"
       style="fill:#0e0d0f;fill-opacity:1;fill-rule:nonzero;stroke:none"
       transform="matrix(0.13333333,0,0,-0.13333333,0,141.33333)" />
    <path
       id="path18"
       d="m 316.914,837.848 -0.039,118.886 h -32.078 l 0.039,-118.886 h 32.078 v 0"
       style="fill:#0e0d0f;fill-opacity:1;fill-rule:nonzero;stroke:none"
       transform="matrix(0.13333333,0,0,-0.13333333,0,141.33333)" />
    <path
       id="path19"
       d="m 384.609,835.875 c 29.957,0 46.309,10.203 46.297,41.98 h -31.652 c -0.426,-9.382 0.219,-24.203 -14.652,-24.203 -18.059,0 -20.403,13.172 -20.414,43.637 -0.004,30.465 2.328,43.633 20.386,43.633 9.563,0 13.176,-5.926 13.18,-21.734 h 31.441 c 1.266,25.523 -11.91,39.519 -44.625,39.519 -52.906,0.004 -52.894,-29.969 -52.886,-61.418 0.011,-31.117 0.027,-61.414 52.925,-61.414 v 0"
       style="fill:#0e0d0f;fill-opacity:1;fill-rule:nonzero;stroke:none"
       transform="matrix(0.13333333,0,0,-0.13333333,0,141.33333)" />
    <path
       id="path20"
       d="m 376.48,595.145 h 68.067 l 73.441,202.921 H 460.691 L 412.242,650.512 h -0.765 L 368.402,798.066 H 308.031 L 376.48,595.145 v 0"
       style="fill:#ffffff;fill-opacity:1;fill-rule:nonzero;stroke:none"
       transform="matrix(0.13333333,0,0,-0.13333333,0,141.33333)" />
    <path
       id="path21"
       d="m 333.652,821.109 -0.039,118.887 h -32.082 l 0.039,-118.887 h 32.082 v 0"
       style="fill:#ffffff;fill-opacity:1;fill-rule:nonzero;stroke:none"
       transform="matrix(0.13333333,0,0,-0.13333333,0,141.33333)" />
    <path
       id="path22"
       d="m 401.348,819.133 c 29.957,0 46.312,10.203 46.297,41.984 h -31.653 c -0.422,-9.383 0.219,-24.203 -14.648,-24.203 -18.063,0 -20.403,13.176 -20.41,43.633 -0.012,30.465 2.324,43.637 20.379,43.637 9.562,0 13.175,-5.926 13.179,-21.735 h 31.446 c 1.265,25.52 -11.915,39.52 -44.629,39.52 -52.903,0 -52.891,-29.965 -52.879,-61.418 0.008,-31.121 0.015,-61.418 52.918,-61.418 v 0"
       style="fill:#ffffff;fill-opacity:1;fill-rule:nonzero;stroke:none"
       transform="matrix(0.13333333,0,0,-0.13333333,0,141.33333)" />
    <path
       id="path23"
       d="m 508.762,819.133 c 29.953,0 46.304,10.203 46.297,41.984 h -31.657 c -0.418,-9.387 0.223,-24.203 -14.652,-24.203 -18.059,0 -20.395,13.168 -20.406,43.633 -0.008,30.465 2.324,43.637 20.383,43.637 9.558,0 13.171,-5.926 13.175,-21.735 l 31.45,-0.004 c 1.257,25.524 -11.914,39.52 -44.629,39.524 -52.903,0 -52.891,-29.965 -52.883,-61.422 0.012,-31.117 0.019,-61.414 52.922,-61.414 v 0"
       style="fill:#ffffff;fill-opacity:1;fill-rule:nonzero;stroke:none"
       transform="matrix(0.13333333,0,0,-0.13333333,0,141.33333)" />
    <path
       id="path24"
       d="M 971.563,251.875 947.676,218.359 644.27,324.895 971.563,251.875 v 0"
       style="fill:#0e0d0f;fill-opacity:1;fill-rule:nonzero;stroke:none"
       transform="matrix(0.13333333,0,0,-0.13333333,0,141.33333)" />
    <path
       id="path25"
       d="M 883.547,143.176 861.262,125.539 644.023,324.758 904.395,163.855 883.547,143.176 v 0"
       style="fill:#00adef;fill-opacity:1;fill-rule:nonzero;stroke:none"
       transform="matrix(0.13333333,0,0,-0.13333333,0,141.33333)"
       clip-path="url(#clipPath26)" />
    <path
       id="path27"
       d="M 850.039,114.316 792.488,77.6055 644.004,324.688 850.039,114.316 v 0"
       style="fill:#ec008c;fill-opacity:1;fill-rule:nonzero;stroke:none"
       transform="matrix(0.13333333,0,0,-0.13333333,0,141.33333)"
       clip-path="url(#clipPath26)" />
    <path
       id="path28"
       d="M 930.039,192.715 910.801,173.477 644.199,324.766 942.859,208.75 930.039,192.715 v 0"
       style="fill:#fff200;fill-opacity:1;fill-rule:nonzero;stroke:none"
       transform="matrix(0.13333333,0,0,-0.13333333,0,141.33333)" />
    <path
       id="path29"
       d="m 14.0078,526.523 c 0,286.618 232.3362,518.947 518.9452,518.947 286.61,0 518.937,-232.329 518.937,-518.947 C 1051.89,239.922 819.563,7.57813 532.953,7.57813 246.344,7.57813 14.0078,239.922 14.0078,526.523 Z"
       style="fill:none;stroke:#0e0d0f;stroke-width:10;stroke-linecap:butt;stroke-linejoin:miter;stroke-miterlimit:3.8637;stroke-dasharray:none;stroke-opacity:1"
       transform="matrix(0.13333333,0,0,-0.13333333,0,141.33333)" />
    <path
       id="path30"
       d="m 662.695,823.996 v 16.43 c 0,17.344 2.785,48.844 32.344,50.211 25.645,1.824 35.129,-16.434 35.129,-33.778 0,-25.105 -6.691,-39.714 -26.77,-57.972 l -42.382,-36.512 c -44.61,-40.168 -87.547,-89.012 -87.547,-145.613 v -11.41 h 250.379 v 61.621 H 679.426 c 5.015,19.172 40.144,47.929 55.203,59.797 l 36.25,28.757 c 35.684,30.582 52.414,55.231 52.414,98.137 0,63.445 -45.727,94.027 -121.008,94.027 -84.199,0 -128.262,-38.339 -128.262,-105.894 v -17.801 h 88.672 v 0"
       style="fill:#0e0d0f;fill-opacity:1;fill-rule:nonzero;stroke:none"
       transform="matrix(0.13333333,0,0,-0.13333333,0,141.33333)" />
    <path
       id="path31"
       d="m 662.695,823.996 v 16.43 c 0,17.344 2.785,48.844 32.344,50.211 25.645,1.824 35.129,-16.434 35.129,-33.778 0,-25.105 -6.691,-39.714 -26.77,-57.972 l -42.382,-36.512 c -44.61,-40.168 -87.547,-89.012 -87.547,-145.613 v -11.41 h 250.379 v 61.621 H 679.426 c 5.015,19.172 40.144,47.929 55.203,59.797 l 36.25,28.757 c 35.684,30.582 52.414,55.231 52.414,98.137 0,63.445 -45.727,94.027 -121.008,94.027 -84.199,0 -128.262,-38.339 -128.262,-105.894 v -17.801 h 88.672 z"
       style="fill:none;stroke:#0e0d0f;stroke-width:17.201;stroke-linecap:butt;stroke-linejoin:miter;stroke-miterlimit:3.8637;stroke-dasharray:none;stroke-opacity:1"
       transform="matrix(0.13333333,0,0,-0.13333333,0,141.33333)" />
    <path
       id="path32"
       d="m 653.738,818.047 v 16.433 c 0,17.344 2.785,48.836 32.348,50.211 25.652,1.825 35.125,-16.433 35.125,-33.785 0,-25.101 -6.691,-39.707 -26.77,-57.968 L 652.063,756.426 C 607.449,716.262 564.512,667.418 564.512,610.82 v -11.418 h 250.383 v 61.629 H 670.469 c 5.019,19.168 40.144,47.926 55.207,59.789 l 36.25,28.762 c 35.679,30.578 52.41,55.227 52.41,98.133 0,63.449 -45.723,94.027 -121.004,94.027 -84.199,0 -128.254,-38.34 -128.254,-105.898 v -17.797 h 88.66 v 0"
       style="fill:#ffffff;fill-opacity:1;fill-rule:nonzero;stroke:none"
       transform="matrix(0.13333333,0,0,-0.13333333,0,141.33333)" />
  </g>
</svg>
