<svg width="971.49" height="427.53" viewBox="0 0 971.49 427.53" xmlns="http://www.w3.org/2000/svg" xmlns:xlink="http://www.w3.org/1999/xlink" id="Layer_2" overflow="hidden"><path d="M546.32 54.3C548.31 53.86 550.3 53.39 552.31 53.07 550.3 53.39 548.31 53.86 546.32 54.3Z" fill="none"/><path d="M220.97 282.36C219 285.13 217.07 287.89 215.13 290.6 213.24 293.35 211.37 296.08 209.53 298.8 211.37 296.08 213.24 293.35 215.13 290.6 217.07 287.88 219 285.13 220.97 282.36Z" fill="none"/><path d="M397.95 157.99C396.46 159.15 395 160.37 393.53 161.55 395 160.37 396.46 159.16 397.95 157.99Z" fill="none"/><path d="M204.09 306.91C205.87 304.22 207.68 301.52 209.52 298.81 207.68 301.53 205.87 304.23 204.09 306.91Z" fill="none"/><path d="M36.6 423.99C40.52 415.76 46.28 404.2 54.01 389.96 61.78 375.76 71.48 358.85 83.37 340.05 95.29 321.26 109.26 300.48 125.7 278.68 133.84 267.74 142.73 256.61 152.06 245.24 156.83 239.62 161.57 233.85 166.65 228.17 169.17 225.32 171.66 222.42 174.26 219.56 176.87 216.71 179.5 213.84 182.14 210.95 184.76 208.05 187.51 205.21 190.26 202.34 193.02 199.48 195.73 196.56 198.58 193.72 204.29 188.03 209.98 182.24 216.01 176.6 217.5 175.18 219 173.76 220.5 172.33 221.99 170.9 223.5 169.48 225.06 168.09 228.15 165.29 231.25 162.48 234.37 159.66L236.71 157.55 239.11 155.48C240.71 154.1 242.32 152.72 243.93 151.33 247.17 148.57 250.34 145.75 253.71 143.07 257.04 140.36 260.38 137.65 263.73 134.92 267.09 132.2 270.59 129.61 274.03 126.94 280.87 121.56 288.12 116.53 295.25 111.35 298.88 108.82 302.58 106.37 306.26 103.87 308.1 102.63 309.94 101.38 311.79 100.14 313.68 98.94 315.56 97.75 317.45 96.55 321.23 94.17 325.02 91.78 328.82 89.39 332.7 87.12 336.59 84.84 340.48 82.56 342.43 81.43 344.36 80.27 346.33 79.17 348.32 78.09 350.31 77.02 352.31 75.94 356.3 73.8 360.27 71.61 364.3 69.52 368.37 67.51 372.45 65.49 376.53 63.47 378.58 62.48 380.59 61.42 382.67 60.49L388.91 57.68C393.08 55.83 397.21 53.9 401.42 52.13 405.65 50.42 409.89 48.71 414.12 47 416.25 46.17 418.33 45.25 420.49 44.5L426.94 42.18C431.25 40.66 435.51 39.06 439.84 37.61L452.89 33.51C455.07 32.84 457.22 32.12 459.41 31.51L466 29.73C470.38 28.56 474.77 27.38 479.15 26.21 483.57 25.22 487.99 24.22 492.4 23.23L499 21.76C501.2 21.29 503.43 20.94 505.64 20.52 510.06 19.73 514.48 18.93 518.89 18.14 521.08 17.71 523.31 17.45 525.52 17.14 527.73 16.84 529.94 16.54 532.15 16.24 534.35 15.94 536.56 15.65 538.76 15.35 540.96 15.05 543.15 14.73 545.36 14.57 580.6 10.84 615.28 10.88 648.22 13.87 681.18 16.83 712.39 22.7 741.25 30.1 755.72 33.64 769.5 38.03 782.79 42.13 789.36 44.41 795.81 46.65 802.15 48.85 803.73 49.4 805.3 49.95 806.87 50.49 808.44 51.03 809.96 51.68 811.49 52.26 814.54 53.45 817.57 54.63 820.56 55.8 844.54 64.97 865.76 74.95 884.39 83.94 885.56 84.5 886.71 85.05 887.86 85.6 888.99 86.19 890.11 86.77 891.22 87.35 893.44 88.5 895.62 89.64 897.76 90.75 902.04 92.97 906.16 95.12 910.12 97.18 912.09 98.22 914.05 99.2 915.92 100.23 917.78 101.28 919.61 102.31 921.39 103.31 924.95 105.31 928.35 107.23 931.57 109.04 938.01 112.67 943.78 115.84 948.65 118.89 953.55 121.86 957.72 124.38 961.1 126.43 967.85 130.52 971.45 132.7 971.45 132.7 971.45 132.7 967.91 130.41 961.27 126.11 957.94 123.96 953.83 121.3 949.01 118.18 944.21 114.98 938.52 111.63 932.17 107.8 928.99 105.88 925.64 103.87 922.12 101.75 920.36 100.69 918.56 99.61 916.71 98.5 914.86 97.41 912.93 96.37 910.97 95.27 907.05 93.08 902.97 90.81 898.74 88.45 896.62 87.27 894.46 86.06 892.26 84.84 891.16 84.23 890.05 83.61 888.93 82.99 887.79 82.41 886.65 81.82 885.49 81.22 867.03 71.64 845.95 60.98 822.03 51.04 819.04 49.78 816.03 48.5 812.98 47.21 811.45 46.58 809.93 45.88 808.37 45.29 806.81 44.7 805.23 44.1 803.66 43.5 797.32 41.1 790.86 38.65 784.29 36.16 770.97 31.64 757.15 26.8 742.58 22.81 713.54 14.51 681.97 7.67 648.42 3.76 614.89-0.18 579.38-1.15 543.07 1.77 540.79 1.89 538.53 2.15 536.26 2.4 533.99 2.65 531.72 2.9 529.44 3.14 527.16 3.39 524.88 3.64 522.6 3.9 520.32 4.16 518.02 4.37 515.75 4.76 511.19 5.46 506.62 6.16 502.05 6.87 499.76 7.24 497.45 7.55 495.17 7.98L488.33 9.33C483.75 10.24 479.18 11.16 474.59 12.07 470.04 13.17 465.49 14.27 460.94 15.37L454.09 17.04C451.81 17.62 449.57 18.31 447.31 18.94L433.73 22.85C429.22 24.23 424.78 25.77 420.29 27.24L413.56 29.48C411.31 30.21 409.13 31.1 406.92 31.91 402.5 33.57 398.08 35.24 393.66 36.9 389.26 38.62 384.95 40.51 380.59 42.32L374.06 45.07C371.88 45.98 369.78 47.02 367.63 47.99 363.36 49.98 359.09 51.96 354.82 53.94 350.6 56 346.45 58.16 342.26 60.28 340.17 61.35 338.08 62.41 335.99 63.48 333.93 64.58 331.9 65.72 329.85 66.84 325.76 69.1 321.68 71.36 317.61 73.62 313.62 76 309.64 78.37 305.67 80.73 303.68 81.92 301.7 83.12 299.72 84.31 297.78 85.55 295.84 86.79 293.91 88.03 290.05 90.52 286.15 92.97 282.34 95.5 274.84 100.67 267.21 105.71 260.01 111.09 256.39 113.76 252.7 116.37 249.16 119.09 245.62 121.82 242.1 124.55 238.59 127.26 235.04 129.95 231.69 132.79 228.27 135.55 226.57 136.94 224.87 138.33 223.18 139.72L220.64 141.8 218.16 143.92C214.87 146.76 211.59 149.59 208.33 152.4 206.68 153.8 205.09 155.23 203.51 156.67 201.93 158.11 200.34 159.54 198.77 160.97 192.4 166.65 186.37 172.48 180.33 178.21 177.31 181.08 174.44 184.02 171.52 186.9 168.62 189.8 165.7 192.66 162.92 195.59 160.12 198.51 157.33 201.4 154.57 204.28 151.82 207.17 149.17 210.09 146.5 212.97 141.12 218.71 136.08 224.54 131.01 230.22 121.09 241.71 111.63 252.97 102.96 264.05 85.44 286.13 70.5 307.22 57.71 326.33 44.95 345.46 34.49 362.7 26.08 377.25 17.71 391.84 11.41 403.77 7.1 412.36 2.79 420.98 0.4 426.38-0.04 427.64L34.9 427.64C35.41 426.53 35.96 425.36 36.56 424.1Z" fill="#ED1C24"/><path d="M948.69 118.84C943.82 115.79 938.05 112.62 931.61 108.99 928.39 107.18 924.99 105.26 921.43 103.26 919.65 102.26 917.82 101.23 915.96 100.18 914.08 99.15 912.13 98.17 910.16 97.13 906.2 95.07 902.07 92.92 897.8 90.7 895.66 89.59 893.48 88.45 891.26 87.3 890.15 86.72 889.03 86.14 887.9 85.55 886.75 85 885.6 84.45 884.43 83.89 865.81 74.9 844.58 64.93 820.6 55.75 817.61 54.58 814.58 53.4 811.53 52.21 810 51.63 808.47 50.98 806.91 50.44 805.35 49.9 803.77 49.35 802.19 48.8 795.85 46.6 789.4 44.36 782.83 42.08 769.54 37.98 755.76 33.58 741.29 30.05 712.43 22.65 681.22 16.79 648.26 13.82 615.32 10.84 580.64 10.79 545.4 14.52 543.19 14.69 541 15.01 538.8 15.3 536.6 15.6 534.4 15.89 532.19 16.19 529.98 16.49 527.77 16.79 525.56 17.09 523.35 17.4 521.12 17.66 518.93 18.09 514.52 18.88 510.1 19.68 505.68 20.47 503.47 20.88 501.24 21.24 499.04 21.71L492.44 23.18C488.03 24.17 483.61 25.17 479.19 26.16 474.81 27.33 470.43 28.51 466.04 29.68L459.45 31.46C457.26 32.07 455.11 32.8 452.93 33.46L439.88 37.56C435.55 39 431.29 40.6 426.98 42.13L420.53 44.45C418.37 45.2 416.29 46.12 414.16 46.95 409.92 48.66 405.69 50.37 401.46 52.08 397.25 53.85 393.13 55.78 388.95 57.63L382.71 60.44C380.62 61.37 378.62 62.43 376.57 63.42 372.49 65.44 368.41 67.46 364.34 69.47 360.31 71.56 356.35 73.75 352.35 75.89 350.36 76.97 348.36 78.05 346.37 79.12 344.4 80.23 342.47 81.38 340.52 82.51 336.62 84.79 332.74 87.07 328.86 89.34 325.06 91.73 321.27 94.12 317.49 96.5 315.6 97.7 313.71 98.9 311.83 100.09 309.98 101.33 308.14 102.58 306.3 103.82 302.63 106.32 298.92 108.77 295.29 111.3 288.16 116.48 280.91 121.51 274.07 126.89 270.63 129.56 267.13 132.16 263.77 134.87 260.42 137.6 257.07 140.31 253.75 143.02 250.38 145.7 247.21 148.53 243.97 151.28 242.36 152.67 240.75 154.05 239.15 155.43L236.75 157.5 234.41 159.61C231.29 162.43 228.19 165.24 225.1 168.04 223.54 169.43 222.03 170.85 220.54 172.28 219.04 173.71 217.54 175.13 216.05 176.55 210.02 182.19 204.32 187.98 198.62 193.67 195.77 196.52 193.06 199.44 190.3 202.29 187.56 205.16 184.8 208 182.18 210.9 179.53 213.79 176.91 216.66 174.3 219.51 171.7 222.37 169.21 225.27 166.69 228.12 161.62 233.8 156.87 239.57 152.1 245.19 142.76 256.56 133.88 267.68 125.74 278.63 109.3 300.44 95.33 321.21 83.41 340 71.52 358.81 61.82 375.71 54.05 389.91 46.32 404.14 40.55 415.71 36.64 423.94 36.04 425.2 35.49 426.38 34.98 427.48L69.85 427.48C73.03 420.66 77.04 412.34 81.95 402.73 89.07 388.87 98.02 372.31 109.04 353.82 120.09 335.35 133.09 314.88 148.45 293.35 156.05 282.54 164.38 271.55 173.12 260.31 177.59 254.75 182.04 249.04 186.8 243.41 189.17 240.59 191.51 237.72 193.95 234.88 196.4 232.06 198.87 229.22 201.36 226.36 203.82 223.48 206.41 220.67 208.99 217.82 211.59 214.99 214.14 212.09 216.82 209.27 222.2 203.63 227.56 197.87 233.25 192.28 234.66 190.87 236.07 189.46 237.48 188.04 238.89 186.62 240.31 185.2 241.78 183.82 244.69 181.04 247.62 178.24 250.57 175.44 252.03 174.03 253.53 172.64 255.05 171.28 256.57 169.91 258.09 168.53 259.61 167.15 262.67 164.41 265.67 161.59 268.85 158.92 272 156.22 275.16 153.51 278.33 150.79 281.51 148.08 284.82 145.49 288.08 142.82 294.55 137.44 301.42 132.42 308.18 127.22 311.62 124.69 315.13 122.23 318.62 119.72 320.37 118.47 322.12 117.23 323.87 115.98 325.66 114.78 327.45 113.58 329.25 112.37 332.84 109.98 336.44 107.58 340.05 105.17 343.74 102.88 347.44 100.59 351.14 98.29 353 97.15 354.83 95.98 356.71 94.86 358.6 93.77 360.5 92.68 362.4 91.59 366.2 89.42 369.98 87.21 373.81 85.09 377.69 83.04 381.58 81 385.47 78.94 387.42 77.93 389.34 76.86 391.33 75.91L397.29 73.04C401.27 71.15 405.21 69.18 409.23 67.37 413.28 65.61 417.33 63.85 421.38 62.09 423.41 61.23 425.4 60.29 427.47 59.51L433.65 57.11C437.77 55.53 441.86 53.87 446.01 52.37L458.53 48.07C460.62 47.37 462.69 46.61 464.79 45.96L471.12 44.07C475.34 42.82 479.55 41.57 483.76 40.32 488.02 39.24 492.27 38.17 496.52 37.1L502.88 35.5C505 34.99 507.16 34.59 509.29 34.13 513.56 33.24 517.83 32.36 522.09 31.48 524.21 31 526.36 30.69 528.5 30.34 530.64 29.99 532.78 29.64 534.92 29.29 537.05 28.94 539.19 28.6 541.32 28.25 543.45 27.9 545.57 27.54 547.72 27.32 581.88 22.78 615.73 21.89 648.08 23.92 680.45 25.93 711.31 30.83 739.98 37.32 754.36 40.4 768.08 44.36 781.35 48.03 787.91 50.1 794.37 52.14 800.7 54.13 802.28 54.63 803.85 55.13 805.42 55.62 806.99 56.11 808.51 56.71 810.05 57.24 813.11 58.33 816.14 59.42 819.14 60.49 843.18 68.89 864.55 78.19 883.33 86.58 884.51 87.1 885.67 87.62 886.83 88.13 887.97 88.68 889.1 89.23 890.22 89.77 892.46 90.85 894.66 91.92 896.83 92.96 901.15 95.05 905.32 97.06 909.33 99 911.33 99.98 913.3 100.89 915.2 101.86 917.09 102.85 918.93 103.82 920.74 104.77 924.35 106.66 927.79 108.47 931.05 110.18 937.57 113.61 943.42 116.6 948.36 119.49 953.34 122.31 957.57 124.7 961 126.64 967.86 130.52 971.51 132.59 971.51 132.59 971.51 132.59 967.91 130.41 961.16 126.32 957.78 124.27 953.61 121.75 948.71 118.78Z" fill="#F7941D"/><path d="M948.34 119.56C943.4 116.66 937.55 113.68 931.03 110.25 927.77 108.54 924.33 106.73 920.72 104.84 918.92 103.89 917.07 102.92 915.18 101.93 913.28 100.96 911.31 100.04 909.31 99.07 905.31 97.13 901.14 95.12 896.81 93.03 894.65 91.98 892.44 90.92 890.2 89.84 889.08 89.3 887.95 88.75 886.81 88.2 885.65 87.69 884.49 87.17 883.31 86.65 864.52 78.26 843.16 68.96 819.12 60.56 816.12 59.49 813.09 58.4 810.03 57.31 808.49 56.78 806.97 56.18 805.4 55.69 803.83 55.2 802.26 54.7 800.68 54.2 794.35 52.2 787.89 50.17 781.33 48.1 768.06 44.43 754.34 40.47 739.96 37.39 711.29 30.9 680.43 26 648.06 23.99 615.71 21.96 581.86 22.85 547.7 27.39 545.55 27.61 543.43 27.98 541.3 28.32 539.17 28.67 537.04 29.01 534.9 29.36 532.76 29.71 530.62 30.06 528.48 30.41 526.34 30.77 524.18 31.07 522.07 31.55 517.81 32.43 513.54 33.32 509.27 34.2 507.14 34.66 504.98 35.06 502.86 35.57L496.5 37.17C492.25 38.24 488 39.32 483.74 40.39 479.53 41.64 475.31 42.89 471.1 44.14L464.77 46.03C462.66 46.68 460.6 47.44 458.51 48.14L445.99 52.44C441.84 53.94 437.75 55.6 433.63 57.18L427.45 59.58C425.38 60.36 423.39 61.31 421.36 62.16 417.31 63.92 413.26 65.68 409.21 67.44 405.19 69.25 401.25 71.23 397.27 73.11L391.31 75.98C389.32 76.93 387.41 78 385.45 79.01 381.56 81.06 377.67 83.11 373.79 85.16 369.95 87.28 366.18 89.5 362.38 91.66 360.48 92.75 358.59 93.84 356.69 94.93 354.82 96.05 352.98 97.22 351.12 98.36 347.42 100.66 343.72 102.95 340.03 105.24 336.42 107.65 332.82 110.04 329.23 112.44 327.44 113.64 325.64 114.85 323.85 116.05 322.1 117.3 320.35 118.55 318.6 119.79 315.11 122.29 311.6 124.76 308.16 127.29 301.4 132.48 294.53 137.51 288.06 142.89 284.8 145.56 281.49 148.15 278.31 150.86 275.14 153.58 271.98 156.29 268.83 158.99 265.65 161.66 262.65 164.48 259.59 167.22 258.07 168.6 256.55 169.98 255.03 171.35 253.5 172.72 252 174.1 250.55 175.51 247.61 178.32 244.68 181.11 241.76 183.89 240.29 185.27 238.86 186.68 237.46 188.11 236.05 189.53 234.64 190.94 233.23 192.35 227.54 197.95 222.18 203.7 216.8 209.34 214.12 212.16 211.57 215.06 208.97 217.89 206.39 220.74 203.8 223.55 201.34 226.43 198.85 229.29 196.38 232.13 193.93 234.95 191.49 237.78 189.15 240.66 186.78 243.48 182.01 249.1 177.57 254.82 173.1 260.38 164.35 271.63 156.03 282.62 148.43 293.42 133.07 314.95 120.07 335.42 109.02 353.89 98 372.38 89.05 388.94 81.93 402.8 77.03 412.41 73.01 420.73 69.83 427.55L104.26 427.55C105.95 423.85 107.8 419.87 109.82 415.61 116.3 402.1 124.48 385.88 134.64 367.71 144.82 349.56 156.85 329.39 171.13 308.14 178.2 297.47 185.95 286.62 194.11 275.49 198.29 270 202.43 264.34 206.89 258.77 209.1 255.98 211.29 253.13 213.57 250.33 215.87 247.53 218.18 244.72 220.5 241.89 222.8 239.03 225.23 236.25 227.65 233.43 230.09 230.62 232.47 227.74 234.99 224.94 240.03 219.35 245.07 213.63 250.41 208.07 251.73 206.67 253.06 205.26 254.39 203.86 255.71 202.44 257.05 201.04 258.43 199.67 261.17 196.9 263.93 194.12 266.69 191.33 268.06 189.92 269.47 188.55 270.91 187.19 272.34 185.82 273.77 184.45 275.2 183.08 278.08 180.35 280.9 177.54 283.91 174.88 286.88 172.19 289.85 169.49 292.84 166.78 295.83 164.07 298.96 161.49 302.04 158.83 308.15 153.46 314.64 148.44 321.02 143.23 324.27 140.7 327.59 138.23 330.89 135.72 332.54 134.47 334.2 133.22 335.85 131.96 337.54 130.75 339.24 129.55 340.94 128.34 344.34 125.93 347.75 123.52 351.17 121.1 354.67 118.79 358.17 116.48 361.68 114.17 363.44 113.02 365.18 111.84 366.96 110.71L372.36 107.41C375.97 105.22 379.56 102.98 383.2 100.83 386.89 98.75 390.59 96.67 394.29 94.59 396.15 93.57 397.97 92.47 399.86 91.5L405.53 88.58C409.32 86.65 413.08 84.64 416.91 82.78 420.77 80.97 424.63 79.17 428.5 77.36 430.44 76.48 432.34 75.51 434.32 74.7L440.22 72.21C444.16 70.57 448.07 68.85 452.04 67.29L464.03 62.8C466.03 62.07 468.01 61.27 470.03 60.59L476.11 58.59C480.16 57.26 484.21 55.94 488.25 54.61 492.35 53.45 496.44 52.3 500.53 51.14L506.66 49.41C508.71 48.85 510.78 48.41 512.84 47.91 516.96 46.93 521.08 45.96 525.19 44.99 527.23 44.47 529.32 44.11 531.39 43.71 533.46 43.31 535.53 42.92 537.59 42.52 539.66 42.12 541.72 41.73 543.78 41.33 545.84 40.94 547.9 40.52 549.98 40.25 583.07 34.9 616.09 33.07 647.85 34.16 679.63 35.22 710.13 39.16 738.62 44.74 752.9 47.36 766.58 50.88 779.82 54.13 786.38 55.99 792.83 57.82 799.16 59.61 800.74 60.06 802.32 60.5 803.88 60.95 805.45 61.39 806.98 61.94 808.51 62.42 811.58 63.42 814.61 64.4 817.62 65.38 841.72 73.02 863.23 81.63 882.18 89.43 883.37 89.91 884.54 90.39 885.71 90.87 886.86 91.38 888 91.89 889.13 92.4 891.39 93.41 893.62 94.41 895.8 95.38 900.17 97.33 904.38 99.22 908.43 101.03 910.45 101.94 912.44 102.8 914.36 103.71 916.27 104.64 918.14 105.55 919.97 106.44 923.62 108.22 927.1 109.92 930.41 111.53 937.02 114.76 942.95 117.57 947.96 120.31 953.01 122.97 957.31 125.24 960.79 127.07 967.75 130.74 971.47 132.7 971.47 132.7 971.47 132.7 967.81 130.63 960.96 126.75 957.53 124.81 953.3 122.41 948.32 119.6Z" fill="#FFDE17"/><path d="M947.98 120.27C942.97 117.53 937.04 114.72 930.43 111.49 927.13 109.88 923.64 108.18 919.99 106.4 918.16 105.51 916.29 104.6 914.38 103.67 912.46 102.76 910.46 101.91 908.45 100.99 904.4 99.18 900.19 97.3 895.82 95.34 893.63 94.36 891.41 93.37 889.15 92.36 888.02 91.85 886.88 91.34 885.73 90.83 884.56 90.35 883.39 89.88 882.2 89.39 863.25 81.59 841.74 72.98 817.64 65.34 814.63 64.36 811.6 63.38 808.53 62.38 806.99 61.9 805.46 61.35 803.9 60.91 802.33 60.47 800.76 60.02 799.18 59.57 792.85 57.78 786.4 55.95 779.84 54.09 766.6 50.84 752.92 47.32 738.64 44.7 710.16 39.12 679.65 35.19 647.87 34.12 616.11 33.04 583.09 34.86 550 40.21 547.92 40.48 545.87 40.9 543.8 41.29 541.74 41.69 539.67 42.08 537.61 42.48 535.54 42.88 533.48 43.27 531.41 43.67 529.34 44.07 527.26 44.43 525.21 44.95 521.1 45.92 516.98 46.9 512.86 47.87 510.8 48.37 508.73 48.81 506.68 49.37L500.55 51.1C496.46 52.25 492.37 53.41 488.27 54.57 484.23 55.89 480.18 57.22 476.13 58.55L470.05 60.55C468.03 61.23 466.05 62.03 464.05 62.76L452.06 67.25C448.09 68.82 444.18 70.54 440.24 72.17L434.34 74.66C432.36 75.47 430.46 76.44 428.52 77.32 424.66 79.13 420.79 80.94 416.93 82.74 413.1 84.6 409.34 86.61 405.55 88.54L399.88 91.46C397.99 92.43 396.17 93.52 394.31 94.55 390.61 96.63 386.91 98.71 383.22 100.79 379.57 102.94 375.99 105.18 372.38 107.37L366.98 110.67C365.2 111.8 363.46 112.98 361.7 114.13 358.19 116.45 354.68 118.76 351.19 121.06 347.77 123.48 344.36 125.89 340.96 128.3 339.26 129.51 337.56 130.72 335.87 131.92 334.21 133.17 332.56 134.43 330.91 135.68 327.61 138.19 324.29 140.66 321.04 143.19 314.65 148.39 308.16 153.42 302.06 158.79 298.99 161.45 295.86 164.04 292.86 166.74 289.87 169.45 286.89 172.15 283.93 174.84 280.93 177.5 278.11 180.31 275.22 183.04 273.79 184.41 272.36 185.78 270.93 187.15 269.49 188.51 268.08 189.88 266.71 191.29 263.94 194.08 261.19 196.86 258.45 199.63 257.07 201 255.73 202.41 254.41 203.82 253.08 205.23 251.76 206.63 250.43 208.03 245.08 213.59 240.05 219.3 235.01 224.9 232.49 227.7 230.1 230.58 227.67 233.39 225.25 236.21 222.82 239 220.52 241.85 218.19 244.68 215.88 247.5 213.59 250.29 211.31 253.1 209.12 255.94 206.91 258.73 202.45 264.29 198.31 269.95 194.13 275.45 185.97 286.57 178.21 297.43 171.15 308.1 156.86 329.35 144.84 349.52 134.66 367.67 124.5 385.84 116.32 402.06 109.84 415.57 107.82 419.82 105.96 423.81 104.28 427.51L138.13 427.51C143.91 414.52 151.2 398.95 160.29 381.5 169.61 363.67 180.66 343.8 193.87 322.84 197.14 317.57 200.57 312.26 204.13 306.89 205.91 304.2 207.72 301.5 209.56 298.79 211.4 296.07 213.27 293.34 215.16 290.59 217.1 287.87 219.03 285.12 221 282.35 222.97 279.58 224.97 276.81 227.04 274.05 229.1 271.29 231.13 268.47 233.26 265.69 235.4 262.92 237.55 260.13 239.72 257.33 241.86 254.5 244.13 251.74 246.39 248.95 248.66 246.17 250.89 243.31 253.24 240.53 257.95 234.98 262.65 229.3 267.65 223.79 268.89 222.4 270.13 221 271.37 219.6 272.61 218.19 273.86 216.8 275.16 215.43 277.73 212.68 280.31 209.92 282.9 207.14 284.18 205.74 285.51 204.37 286.86 203.02 288.2 201.66 289.54 200.3 290.88 198.93 293.58 196.21 296.23 193.41 299.05 190.76 301.84 188.08 304.63 185.38 307.44 182.68 310.25 179.98 313.2 177.41 316.09 174.74 321.83 169.37 327.94 164.35 333.96 159.14 337.02 156.6 340.16 154.13 343.27 151.61 344.83 150.35 346.39 149.1 347.95 147.84 349.55 146.63 351.15 145.42 352.75 144.2 355.96 141.78 359.18 139.35 362.41 136.92 365.72 134.6 369.03 132.27 372.35 129.93 374.01 128.77 375.66 127.58 377.35 126.44L382.46 123.11C385.88 120.9 389.27 118.63 392.73 116.44 396.23 114.33 399.74 112.22 403.25 110.1 405.01 109.06 406.74 107.94 408.54 106.96L413.93 103.98C417.53 102.01 421.1 99.95 424.75 98.05 428.42 96.2 432.1 94.34 435.78 92.48 437.63 91.57 439.44 90.57 441.32 89.74L446.95 87.17C450.71 85.48 454.44 83.7 458.23 82.07L469.69 77.38C471.61 76.61 473.5 75.79 475.43 75.07L481.25 72.97C485.13 71.57 489.01 70.17 492.89 68.77 496.82 67.53 500.75 66.3 504.68 65.06L510.57 63.2C512.54 62.6 514.54 62.12 516.52 61.57 520.49 60.5 524.45 59.44 528.41 58.37 530.38 57.8 532.39 57.4 534.39 56.95L540.38 55.62C542.38 55.18 544.37 54.73 546.36 54.29 548.35 53.85 550.34 53.38 552.35 53.06 584.37 46.9 616.55 44.14 647.72 44.27 678.91 44.38 709.06 47.35 737.36 52.02 751.55 54.19 765.17 57.27 778.39 60.09 784.95 61.74 791.39 63.36 797.72 64.95 799.3 65.35 800.88 65.74 802.45 66.14 804.02 66.53 805.55 67.03 807.09 67.46 810.16 68.36 813.21 69.25 816.22 70.13 840.38 77 862.03 84.92 881.14 92.13 882.34 92.58 883.52 93.02 884.7 93.46 885.86 93.94 887.01 94.41 888.16 94.88 890.45 95.82 892.69 96.75 894.9 97.65 899.32 99.47 903.57 101.22 907.66 102.9 909.7 103.75 911.72 104.55 913.66 105.4 915.59 106.27 917.48 107.12 919.33 107.96 923.03 109.63 926.55 111.22 929.9 112.72 936.59 115.74 942.6 118.37 947.69 120.96 952.81 123.47 957.17 125.6 960.71 127.33 967.78 130.79 971.55 132.64 971.55 132.64 971.55 132.64 967.84 130.68 960.87 127.01 957.39 125.17 953.09 122.91 948.04 120.25Z" fill="#8DC63F"/><path d="M947.63 120.98C942.55 118.39 936.53 115.77 929.84 112.74 926.49 111.23 922.97 109.64 919.27 107.98 917.42 107.15 915.53 106.29 913.6 105.42 911.66 104.57 909.64 103.78 907.6 102.92 903.51 101.24 899.26 99.48 894.84 97.67 892.63 96.76 890.39 95.84 888.1 94.9 886.96 94.43 885.81 93.96 884.64 93.48 883.46 93.04 882.28 92.6 881.08 92.15 861.97 84.94 840.31 77.02 816.16 70.15 813.15 69.27 810.11 68.38 807.03 67.48 805.49 67.04 803.96 66.55 802.39 66.16 800.82 65.77 799.25 65.37 797.66 64.97 791.33 63.38 784.89 61.76 778.33 60.11 765.11 57.28 751.49 54.21 737.3 52.04 709.01 47.37 678.85 44.4 647.66 44.29 616.49 44.16 584.31 46.91 552.29 53.08 550.28 53.4 548.29 53.87 546.3 54.31 544.31 54.75 542.31 55.2 540.32 55.64L534.33 56.97C532.33 57.42 530.32 57.82 528.35 58.39 524.39 59.45 520.43 60.52 516.46 61.59 514.48 62.14 512.48 62.62 510.51 63.22L504.62 65.08C500.69 66.32 496.76 67.55 492.83 68.79 488.95 70.19 485.07 71.59 481.19 72.99L475.37 75.09C473.44 75.81 471.54 76.64 469.63 77.4L458.17 82.09C454.38 83.72 450.65 85.5 446.89 87.19L441.26 89.76C439.37 90.59 437.57 91.59 435.72 92.5 432.04 94.36 428.36 96.21 424.69 98.07 421.04 99.97 417.48 102.03 413.87 104L408.48 106.98C406.68 107.97 404.95 109.08 403.19 110.12 399.68 112.24 396.17 114.35 392.67 116.46 389.21 118.64 385.82 120.91 382.4 123.13L377.29 126.46C375.61 127.6 373.96 128.79 372.29 129.95 368.97 132.28 365.66 134.61 362.35 136.94 359.12 139.37 355.9 141.8 352.69 144.22 351.09 145.43 349.49 146.65 347.89 147.86 346.33 149.12 344.77 150.38 343.21 151.63 340.1 154.15 336.97 156.62 333.9 159.16 327.88 164.38 321.77 169.39 316.03 174.76 313.14 177.42 310.2 180 307.38 182.7 304.57 185.4 301.77 188.1 298.99 190.78 296.17 193.42 293.52 196.23 290.82 198.95 289.48 200.32 288.13 201.68 286.8 203.04 285.45 204.39 284.13 205.76 282.84 207.16 280.25 209.94 277.67 212.7 275.1 215.45 273.8 216.81 272.55 218.21 271.31 219.62 270.07 221.02 268.83 222.42 267.59 223.81 262.59 229.33 257.89 235.01 253.18 240.55 250.83 243.33 248.6 246.18 246.33 248.97 244.07 251.77 241.8 254.52 239.66 257.35 237.49 260.16 235.34 262.95 233.2 265.71 231.07 268.49 229.04 271.31 226.98 274.07 224.9 276.82 222.91 279.6 220.94 282.37 218.97 285.14 217.04 287.9 215.1 290.61 213.21 293.36 211.34 296.09 209.5 298.81 207.66 301.53 205.85 304.23 204.07 306.91 200.51 312.28 197.08 317.59 193.81 322.86 180.6 343.83 169.55 363.7 160.23 381.52 151.14 398.97 143.85 414.54 138.07 427.53L171.27 427.53C175.41 417.83 180.24 407.03 185.85 395.34 194.3 377.83 204.38 358.27 216.51 337.58 222.5 327.18 229.13 316.6 236.11 305.72 239.7 300.35 243.25 294.81 247.09 289.36 249 286.63 250.88 283.83 252.85 281.08 254.83 278.34 256.83 275.58 258.84 272.8 260.83 269.99 262.93 267.27 265.03 264.49 267.14 261.73 269.21 258.9 271.39 256.14 275.77 250.64 280.14 245 284.8 239.52 285.95 238.14 287.11 236.75 288.26 235.36 289.41 233.96 290.58 232.57 291.79 231.22 294.18 228.49 296.59 225.74 299.01 222.97 300.21 221.57 301.44 220.21 302.7 218.87 303.95 217.52 305.2 216.16 306.46 214.8 308.98 212.09 311.46 209.3 314.09 206.66 316.69 203.99 319.31 201.3 321.94 198.6 324.57 195.9 327.33 193.34 330.03 190.68 335.4 185.31 341.14 180.3 346.78 175.08 349.66 172.54 352.6 170.07 355.52 167.54 356.98 166.28 358.45 165.02 359.92 163.75 361.42 162.53 362.93 161.32 364.44 160.1 367.46 157.66 370.49 155.22 373.53 152.78 376.65 150.44 379.77 148.09 382.89 145.74 384.46 144.57 386.01 143.37 387.6 142.21L392.42 138.84C395.65 136.6 398.85 134.3 402.12 132.09 405.43 129.95 408.74 127.8 412.06 125.66 413.73 124.6 415.36 123.47 417.07 122.46L422.17 119.42C425.58 117.41 428.96 115.31 432.42 113.36 435.91 111.46 439.4 109.55 442.89 107.65 444.65 106.72 446.37 105.69 448.16 104.83L453.51 102.18C457.09 100.43 460.64 98.59 464.25 96.9L475.18 92.02C477.01 91.22 478.82 90.36 480.66 89.6L486.22 87.39C489.93 85.91 493.65 84.44 497.36 82.96 501.13 81.64 504.9 80.32 508.66 79.01L514.31 77.03C516.2 76.39 518.12 75.86 520.02 75.27 523.84 74.11 527.65 72.96 531.46 71.8 533.36 71.18 535.29 70.73 537.22 70.23L543 68.75C544.93 68.26 546.85 67.76 548.77 67.27 550.69 66.78 552.61 66.26 554.56 65.89 585.51 58.92 616.85 55.23 647.44 54.41 678.03 53.57 707.84 55.57 735.94 59.33 750.03 61.04 763.61 63.68 776.8 66.08 783.35 67.52 789.79 68.93 796.12 70.32 797.7 70.67 799.28 71.01 800.85 71.36 802.42 71.7 803.95 72.15 805.5 72.53 808.58 73.33 811.63 74.12 814.65 74.91 838.86 81.01 860.66 88.25 879.94 94.86 881.15 95.27 882.34 95.67 883.53 96.08 884.7 96.52 885.86 96.96 887.02 97.4 889.33 98.27 891.6 99.13 893.82 99.97 898.28 101.65 902.58 103.27 906.71 104.83 908.77 105.62 910.81 106.35 912.78 107.14 914.74 107.95 916.65 108.75 918.52 109.52 922.26 111.07 925.83 112.56 929.22 113.96 935.99 116.78 942.08 119.23 947.24 121.66 952.44 124.02 956.86 126.02 960.44 127.64 967.62 130.89 971.45 132.63 971.45 132.63 971.45 132.63 967.68 130.78 960.61 127.32 957.08 125.59 952.72 123.46 947.59 120.95Z" fill="#00AEEF"/><path d="M947.28 121.69C942.12 119.26 936.03 116.81 929.26 113.99 925.87 112.58 922.3 111.1 918.56 109.55 916.69 108.77 914.78 107.98 912.82 107.17 910.86 106.38 908.82 105.65 906.75 104.86 902.62 103.3 898.32 101.68 893.86 100 891.63 99.16 889.36 98.3 887.06 97.43 885.91 97 884.74 96.56 883.57 96.11 882.38 95.71 881.18 95.3 879.98 94.89 860.7 88.28 838.9 81.03 814.69 74.94 811.67 74.16 808.62 73.36 805.54 72.56 804 72.17 802.46 71.73 800.89 71.39 799.32 71.05 797.75 70.7 796.16 70.35 789.84 68.96 783.4 67.55 776.84 66.11 763.65 63.71 750.07 61.07 735.98 59.36 707.87 55.6 678.07 53.59 647.48 54.44 616.9 55.26 585.55 58.95 554.6 65.92 552.65 66.29 550.73 66.81 548.81 67.3 546.89 67.79 544.96 68.29 543.04 68.78L537.26 70.26C535.34 70.76 533.4 71.21 531.5 71.83 527.69 72.98 523.88 74.14 520.06 75.3 518.16 75.89 516.24 76.42 514.35 77.06L508.7 79.04C504.94 80.36 501.17 81.67 497.4 82.99 493.69 84.47 489.98 85.94 486.26 87.42L480.7 89.63C478.85 90.38 477.05 91.25 475.22 92.05L464.29 96.93C460.68 98.62 457.13 100.46 453.55 102.21L448.2 104.86C446.41 105.72 444.69 106.75 442.93 107.68 439.44 109.58 435.95 111.49 432.46 113.39 429 115.34 425.62 117.44 422.21 119.45L417.11 122.49C415.41 123.49 413.77 124.63 412.1 125.69 408.78 127.84 405.47 129.98 402.16 132.12 398.89 134.33 395.69 136.63 392.46 138.87L387.64 142.24C386.05 143.39 384.5 144.59 382.93 145.77 379.8 148.12 376.68 150.47 373.57 152.81 370.53 155.26 367.5 157.7 364.48 160.13 362.97 161.35 361.47 162.57 359.96 163.78 358.49 165.04 357.02 166.31 355.56 167.57 352.64 170.1 349.7 172.57 346.82 175.11 341.18 180.34 335.44 185.35 330.07 190.71 327.36 193.37 324.61 195.94 321.98 198.63 319.35 201.33 316.74 204.01 314.13 206.69 311.49 209.32 309.02 212.12 306.5 214.83 305.25 216.19 303.99 217.55 302.74 218.9 301.48 220.24 300.25 221.6 299.05 223 296.63 225.76 294.23 228.51 291.83 231.25 290.62 232.6 289.45 233.99 288.3 235.39 287.14 236.78 285.99 238.17 284.84 239.55 280.18 245.03 275.81 250.67 271.43 256.17 269.24 258.92 267.18 261.76 265.07 264.52 262.98 267.3 260.87 270.02 258.88 272.83 256.87 275.61 254.87 278.37 252.89 281.11 250.92 283.86 249.04 286.65 247.13 289.39 243.29 294.83 239.74 300.38 236.15 305.75 229.16 316.63 222.54 327.21 216.55 337.61 204.42 358.3 194.34 377.86 185.89 395.37 180.27 407.06 175.44 417.86 171.31 427.56L203.75 427.56C206.12 421.74 208.71 415.61 211.53 409.19 219.11 392 228.21 372.74 239.27 352.33 244.73 342.07 250.78 331.63 257.19 320.87 260.48 315.57 263.73 310.08 267.27 304.69 269.02 301.98 270.75 299.22 272.56 296.49 274.39 293.77 276.22 291.04 278.07 288.29 279.9 285.51 281.84 282.81 283.77 280.06 285.72 277.33 287.62 274.51 289.64 271.78 293.69 266.33 297.72 260.72 302.04 255.29 303.11 253.92 304.17 252.54 305.25 251.16 306.31 249.77 307.4 248.39 308.52 247.05 310.74 244.33 312.97 241.6 315.22 238.85L316.91 236.79 318.65 234.77C319.81 233.42 320.97 232.07 322.14 230.72 324.49 228.03 326.78 225.23 329.24 222.61 331.66 219.94 334.1 217.26 336.54 214.58 338.99 211.89 341.56 209.33 344.08 206.67 349.09 201.31 354.44 196.3 359.72 191.06 362.41 188.52 365.16 186.04 367.89 183.5 369.26 182.24 370.63 180.97 372.01 179.7 373.42 178.48 374.83 177.26 376.24 176.04 379.07 173.59 381.91 171.14 384.76 168.67 387.68 166.31 390.61 163.95 393.55 161.58 395.02 160.4 396.48 159.19 397.97 158.02L402.51 154.62C405.54 152.36 408.56 150.03 411.64 147.79 414.76 145.62 417.88 143.44 421.01 141.26 422.58 140.18 424.12 139.03 425.73 138.01L430.55 134.91C433.78 132.86 436.97 130.72 440.24 128.72 443.54 126.77 446.85 124.82 450.15 122.86 451.82 121.9 453.44 120.85 455.14 119.96L460.22 117.23C463.62 115.42 466.99 113.53 470.42 111.77L480.82 106.7C482.56 105.86 484.28 104.97 486.04 104.18L491.35 101.86C494.9 100.31 498.44 98.75 501.98 97.2 505.59 95.8 509.19 94.4 512.79 93L518.2 90.89C520.01 90.2 521.85 89.63 523.68 89 527.35 87.75 531.01 86.51 534.67 85.26 536.49 84.6 538.36 84.1 540.21 83.55L545.77 81.93 551.33 80.3C553.19 79.76 555.04 79.19 556.91 78.77 586.79 70.99 617.3 66.36 647.29 64.59 677.29 62.8 706.74 63.83 734.66 66.69 748.65 67.95 762.19 70.15 775.35 72.13 781.9 73.36 788.34 74.57 794.66 75.75 796.24 76.05 797.82 76.34 799.39 76.64 800.96 76.93 802.5 77.33 804.04 77.67 807.13 78.37 810.18 79.07 813.2 79.75 837.47 85.08 859.42 91.64 878.85 97.66 880.07 98.03 881.28 98.4 882.47 98.77 883.65 99.18 884.83 99.58 885.99 99.98 888.32 100.78 890.61 101.56 892.86 102.34 897.37 103.89 901.71 105.38 905.88 106.81 907.97 107.54 910.03 108.21 912.01 108.94 913.99 109.69 915.92 110.43 917.81 111.15 921.6 112.59 925.21 113.97 928.64 115.27 935.5 117.89 941.67 120.16 946.9 122.44 952.17 124.64 956.66 126.51 960.29 128.03 967.57 131.07 971.46 132.7 971.46 132.7 971.46 132.7 967.63 130.97 960.45 127.71 956.87 126.09 952.44 124.08 947.25 121.73Z" fill="#EE509C"/><path d="M960.32 127.99C956.68 126.47 952.2 124.6 946.93 122.4 941.7 120.12 935.53 117.85 928.67 115.23 925.24 113.93 921.63 112.55 917.84 111.11 915.95 110.39 914.01 109.65 912.04 108.9 910.05 108.17 907.99 107.5 905.91 106.77 901.74 105.34 897.39 103.85 892.89 102.3 890.64 101.53 888.35 100.74 886.02 99.94 884.86 99.54 883.68 99.14 882.5 98.73 881.3 98.36 880.09 97.99 878.88 97.62 859.44 91.6 837.5 85.04 813.23 79.71 810.21 79.02 807.15 78.33 804.07 77.63 802.53 77.29 800.99 76.9 799.42 76.6 797.85 76.31 796.27 76.01 794.69 75.71 788.37 74.52 781.93 73.32 775.38 72.09 762.21 70.11 748.68 67.91 734.69 66.65 706.77 63.8 677.32 62.76 647.32 64.55 617.32 66.32 586.81 70.94 556.94 78.73 555.06 79.15 553.21 79.72 551.36 80.26L545.8 81.89 540.24 83.51C538.39 84.06 536.52 84.55 534.7 85.22 531.04 86.46 527.38 87.71 523.71 88.96 521.88 89.6 520.04 90.17 518.23 90.85L512.82 92.96C509.22 94.36 505.61 95.76 502.01 97.16 498.47 98.71 494.92 100.26 491.38 101.82L486.07 104.14C484.31 104.93 482.59 105.83 480.85 106.66L470.45 111.73C467.01 113.48 463.64 115.38 460.25 117.19L455.17 119.92C453.47 120.81 451.84 121.86 450.18 122.82 446.87 124.77 443.57 126.73 440.27 128.68 437 130.68 433.8 132.82 430.58 134.87L425.76 137.97C424.15 138.99 422.61 140.14 421.04 141.22 417.91 143.4 414.79 145.58 411.67 147.75 408.59 149.99 405.58 152.32 402.54 154.58L398 157.98C396.51 159.14 395.05 160.36 393.58 161.54 390.64 163.91 387.71 166.27 384.79 168.63 381.94 171.09 379.1 173.55 376.27 176 374.86 177.22 373.45 178.44 372.04 179.66 370.67 180.93 369.29 182.19 367.92 183.46 365.19 186 362.44 188.47 359.75 191.02 354.48 196.26 349.12 201.26 344.11 206.63 341.59 209.29 339.02 211.85 336.57 214.54 334.13 217.23 331.69 219.91 329.27 222.57 326.82 225.19 324.52 227.98 322.17 230.68 321 232.03 319.84 233.38 318.68 234.73L316.94 236.75 315.25 238.81C313.01 241.56 310.77 244.29 308.55 247.01 307.43 248.35 306.35 249.73 305.28 251.12 304.21 252.5 303.14 253.88 302.07 255.25 297.75 260.69 293.72 266.29 289.67 271.74 287.65 274.47 285.74 277.28 283.8 280.02 281.87 282.77 279.92 285.47 278.1 288.25 276.25 291 274.41 293.74 272.59 296.45 270.78 299.17 269.05 301.94 267.3 304.65 263.77 310.04 260.51 315.53 257.22 320.83 250.82 331.59 244.76 342.04 239.3 352.29 228.25 372.7 219.14 391.96 211.56 409.15 208.74 415.56 206.16 421.7 203.78 427.52L235.4 427.52C235.98 426.02 236.57 424.51 237.18 422.97 243.89 406.1 252.02 387.15 262 367.02 266.92 356.9 272.41 346.59 278.23 335.95 281.22 330.71 284.18 325.28 287.41 319.95 289.01 317.27 290.58 314.53 292.24 311.84 293.91 309.15 295.59 306.44 297.28 303.72 298.95 300.96 300.73 298.29 302.5 295.56 304.29 292.85 306.03 290.06 307.88 287.35 311.6 281.95 315.3 276.38 319.27 270.98 320.25 269.61 321.23 268.24 322.22 266.87 323.2 265.49 324.2 264.12 325.23 262.78 327.28 260.08 329.33 257.36 331.4 254.63L332.96 252.58 334.57 250.58C335.64 249.24 336.72 247.89 337.79 246.55 339.96 243.87 342.08 241.08 344.35 238.47 346.59 235.81 348.85 233.14 351.11 230.46 353.38 227.78 355.76 225.22 358.1 222.57 362.74 217.21 367.72 212.21 372.62 206.96 375.12 204.41 377.68 201.93 380.23 199.39 381.51 198.12 382.78 196.85 384.06 195.58 385.37 194.36 386.69 193.13 388 191.9 390.64 189.44 393.3 186.97 395.95 184.49 398.68 182.11 401.42 179.73 404.17 177.35 405.55 176.16 406.91 174.93 408.31 173.76L412.56 170.32C415.4 168.03 418.23 165.68 421.11 163.41 424.04 161.2 426.97 159 429.91 156.78 431.39 155.69 432.84 154.52 434.35 153.47L438.88 150.32C441.92 148.23 444.92 146.04 448.01 144 451.13 142 454.25 140 457.37 138 458.94 137.02 460.48 135.94 462.09 135.02L466.89 132.21C470.1 130.35 473.3 128.39 476.55 126.58L486.42 121.31C488.07 120.44 489.71 119.51 491.38 118.69L496.43 116.26C499.81 114.63 503.19 113 506.56 111.38 510 109.9 513.45 108.42 516.88 106.94L522.06 104.7C523.79 103.97 525.56 103.36 527.31 102.68 530.83 101.34 534.34 100 537.85 98.67 539.6 97.96 541.39 97.42 543.17 96.82L548.52 95.05 553.88 93.27C555.67 92.68 557.45 92.06 559.26 91.59 588.06 83 617.74 77.44 647.15 74.72 676.56 71.97 705.66 72.04 733.39 73.99 747.29 74.79 760.77 76.55 773.91 78.11 780.46 79.13 786.89 80.13 793.21 81.11 794.79 81.36 796.37 81.6 797.94 81.85 799.51 82.09 801.05 82.44 802.6 82.73 805.69 83.33 808.75 83.93 811.78 84.52 836.11 89.08 858.2 94.95 877.8 100.38 879.03 100.72 880.25 101.05 881.45 101.38 882.64 101.75 883.83 102.12 885 102.48 887.35 103.21 889.66 103.92 891.93 104.63 896.48 106.04 900.87 107.4 905.08 108.71 907.19 109.37 909.27 109.98 911.28 110.66 913.28 111.35 915.24 112.03 917.15 112.69 920.98 114.02 924.64 115.29 928.11 116.49 935.05 118.91 941.3 121 946.6 123.12 951.95 125.17 956.49 126.91 960.18 128.32 967.57 131.15 971.51 132.67 971.51 132.67 971.51 132.67 967.62 131.05 960.34 128Z" fill="#6F2773"/></svg>