<?xml version="1.0" encoding="UTF-8" standalone="no"?>
<svg
   width="1200pt"
   height="1200pt"
   version="1.1"
   viewBox="0 0 1200 1200"
   id="svg3"
   sodipodi:docname="noun-thought-bubble-75855.svg"
   inkscape:version="1.4.3 (0d15f75, 2025-12-25)"
   xmlns:inkscape="http://www.inkscape.org/namespaces/inkscape"
   xmlns:sodipodi="http://sodipodi.sourceforge.net/DTD/sodipodi-0.dtd"
   xmlns="http://www.w3.org/2000/svg"
   xmlns:svg="http://www.w3.org/2000/svg">
  <defs
     id="defs3" />
  <sodipodi:namedview
     id="namedview3"
     pagecolor="#505050"
     bordercolor="#ffffff"
     borderopacity="1"
     inkscape:showpageshadow="0"
     inkscape:pageopacity="0"
     inkscape:pagecheckerboard="1"
     inkscape:deskcolor="#505050"
     inkscape:document-units="pt"
     inkscape:zoom="0.698125"
     inkscape:cx="799.2838"
     inkscape:cy="800"
     inkscape:window-width="2256"
     inkscape:window-height="1398"
     inkscape:window-x="-11"
     inkscape:window-y="-11"
     inkscape:window-maximized="1"
     inkscape:current-layer="svg3" />
  <path
     d="m 146.43,1043 c -26.746,0 -48.504,21.758 -48.504,48.48 0,26.781 21.766,48.551 48.504,48.551 26.746,0 48.504,-21.77 48.504,-48.551 0,-26.727 -21.746,-48.48 -48.504,-48.48 z"
     id="path6" />
  <path
     d="m 146.43,1122.309 c -16.98,0 -30.793,-13.812 -30.793,-30.828 0,-16.969 13.812,-30.758 30.793,-30.758 16.992,0 30.805,13.789 30.805,30.758 0.008,17.016 -13.816,30.828 -30.805,30.828 z"
     id="path1"
     style="fill:#ffffff;fill-opacity:1" />
  <path
     d="m 244.22,874.86 c -39.805,0 -72.203,32.398 -72.203,72.227 0,39.828 32.387,72.215 72.203,72.215 39.84,0 72.254,-32.375 72.254,-72.215 0,-39.824 -32.414,-72.227 -72.254,-72.227 z"
     id="path5" />
  <path
     d="m 244.22,1001.59 c -30.047,0 -54.492,-24.434 -54.492,-54.504 0,-30.059 24.445,-54.516 54.492,-54.516 30.07,0 54.551,24.457 54.551,54.516 0.004,30.07 -24.488,54.504 -54.551,54.504 z"
     id="path2"
     style="fill:#ffffff;fill-opacity:1" />
  <path
     d="m 1114.4,415.67 c 0,-113.7 -92.508,-206.21 -206.24,-206.21 -4.8594,0 -9.9258,0.20312 -15.266,0.63672 -19.848,-87.445 -97.727,-150.1 -188.15,-150.1 -62.531,0 -120.34,29.867 -156.67,80.426 -38.93,-35.977 -89.062,-55.668 -142.31,-55.668 -115.8,0 -210.02,94.211 -210.02,210 0,13.465 1.4141,27.312 4.2344,41.293 -69.672,33.445 -114.28,103.89 -114.28,181.49 0,94.055 65.258,175.33 156.28,196.14 v 0.86328 c 0,74.566 60.648,135.24 135.2,135.24 32.664,0 63.516,-11.484 87.984,-32.555 38.785,53.93 100.56,85.824 167.26,85.824 83.617,0 158.99,-51 190.57,-127.89 16.934,7.3672 34.906,11.113 53.641,11.113 74.555,0 135.21,-60.672 135.21,-135.24 0,-17.809 -3.4922,-35.16 -10.344,-51.637 68.859,-35 112.9,-106.17 112.9,-183.73 z"
     id="path4" />
  <path
     d="m 986.17,587.13 -8.3047,3.7812 4.0312,8.1953 c 8.125,16.43 12.254,33.898 12.254,51.938 0,64.789 -52.715,117.53 -117.5,117.53 -19.152,0 -37.43,-4.4883 -54.348,-13.355 l -9.0234,-4.7539 -3.4219,9.6016 c -26.699,74.953 -97.992,125.29 -177.39,125.29 -64.176,0 -123.36,-32.305 -158.32,-86.41 l -5.9531,-9.2383 -7.7539,7.7773 c -22.188,22.285 -51.742,34.586 -83.219,34.586 -64.789,0 -117.5,-52.727 -117.5,-117.53 0,-1.8711 0.15625,-3.7578 0.28906,-5.6055 l 0.67188,-9.6133 -7.7383,-1.4648 c -86.629,-16.32 -149.5,-92.16 -149.5,-180.34 0,-72.984 43.285,-139.03 110.27,-168.29 l 6.7578,-2.9531 -1.6797,-7.1758 c -3.5273,-15.059 -5.3047,-29.988 -5.3047,-44.363 0,-106.03 86.27,-192.3 192.31,-192.3 52.043,0 100.84,20.543 137.39,57.863 l 7.7773,7.957 6,-9.3828 c 32.484,-50.844 87.742,-81.191 147.78,-81.191 84.637,0 157.15,60.371 172.4,143.55 l 1.4883,8.125 8.2188,-0.92578 c 7.7656,-0.875 14.746,-1.2969 21.336,-1.2969 103.95996,0 188.53996,84.562 188.53996,188.5 -0.016,73.617 -43.43,140.92 -110.55996,171.49 z"
     id="path3"
     style="fill:#ffffff;fill-opacity:1" />
</svg>
