<?xml version="1.0" encoding="UTF-8" standalone="no"?>
<!-- Created with Inkscape (http://www.inkscape.org/) -->

<svg
   width="280mm"
   height="120mm"
   viewBox="0 0 280 120"
   version="1.1"
   id="svg1"
   inkscape:version="1.4.3 (1:1.4.3+202512261035+0d15f75042)"
   sodipodi:docname="ProgramTheRainbow.svg"
   xmlns:inkscape="http://www.inkscape.org/namespaces/inkscape"
   xmlns:sodipodi="http://sodipodi.sourceforge.net/DTD/sodipodi-0.dtd"
   xmlns:xlink="http://www.w3.org/1999/xlink"
   xmlns="http://www.w3.org/2000/svg"
   xmlns:svg="http://www.w3.org/2000/svg">
  <sodipodi:namedview
     id="namedview1"
     pagecolor="#ffffff"
     bordercolor="#000000"
     borderopacity="0.25"
     inkscape:showpageshadow="2"
     inkscape:pageopacity="0.0"
     inkscape:pagecheckerboard="0"
     inkscape:deskcolor="#d1d1d1"
     inkscape:document-units="mm"
     inkscape:zoom="1.0048822"
     inkscape:cx="519.96147"
     inkscape:cy="307.49874"
     inkscape:window-width="1920"
     inkscape:window-height="1168"
     inkscape:window-x="2560"
     inkscape:window-y="0"
     inkscape:window-maximized="1"
     inkscape:current-layer="g30" />
  <defs
     id="defs1">
    <linearGradient
       id="linearGradient36"
       inkscape:collect="always">
      <stop
         style="stop-color:#000000;stop-opacity:1;"
         offset="0"
         id="stop36" />
      <stop
         style="stop-color:#ffffff;stop-opacity:1;"
         offset="1"
         id="stop37" />
    </linearGradient>
    <linearGradient
       inkscape:collect="always"
       xlink:href="#linearGradient36"
       id="linearGradient37"
       x1="16.451159"
       y1="41.670979"
       x2="287.2453"
       y2="74.920319"
       gradientUnits="userSpaceOnUse" />
  </defs>
  <g
     inkscape:label="text"
     inkscape:groupmode="layer"
     id="layer1"
     transform="translate(-11.83069,-25.523087)"
     style="display:none">
    <text
       xml:space="preserve"
       style="font-size:58.7613px;line-height:1;font-family:'Open Sans Condensed';-inkscape-font-specification:'Open Sans Condensed, Normal';text-align:center;letter-spacing:0px;writing-mode:lr-tb;direction:ltr;fill:#cdf8fd;stroke:#000000;stroke-width:2.93808;stroke-linecap:square;stroke-linejoin:round;stroke-miterlimit:0;paint-order:markers stroke fill"
       x="11.820934"
       y="74.98539"
       id="text1"><tspan
         sodipodi:role="line"
         id="tspan1"
         style="font-style:normal;font-variant:normal;font-weight:normal;font-stretch:normal;font-size:61.6996px;font-family:'Archivo Narrow';-inkscape-font-specification:'Archivo Narrow';fill:#ffffff;fill-opacity:1;stroke:#000000;stroke-width:2.93808;stroke-opacity:1"
         x="11.820934"
         y="74.98539">Program the</tspan><tspan
         sodipodi:role="line"
         style="font-style:normal;font-variant:normal;font-weight:normal;font-stretch:normal;font-family:'Archivo Black';-inkscape-font-specification:'Archivo Black, ';fill:#000000;fill-opacity:1;stroke:#ffffff;stroke-width:2.93808;stroke-opacity:1"
         x="11.820934"
         y="133.99684"
         id="tspan2" /></text>
    <text
       xml:space="preserve"
       style="font-size:58.3932px;line-height:1;font-family:'Open Sans Condensed';-inkscape-font-specification:'Open Sans Condensed, Normal';text-align:center;letter-spacing:0px;writing-mode:lr-tb;direction:ltr;fill:#cdf8fd;stroke:#000000;stroke-width:2.91968;stroke-linecap:square;stroke-linejoin:round;stroke-miterlimit:0;paint-order:markers stroke fill"
       x="11.774566"
       y="78.653954"
       id="text4"><tspan
         sodipodi:role="line"
         id="tspan3"
         style="font-style:normal;font-variant:normal;font-weight:normal;font-stretch:normal;font-size:61.3131px;font-family:'Archivo Narrow';-inkscape-font-specification:'Archivo Narrow';stroke-width:2.91968"
         x="11.774566"
         y="78.653954" /><tspan
         sodipodi:role="line"
         style="font-style:normal;font-variant:normal;font-weight:normal;font-stretch:normal;font-family:'Archivo Black';-inkscape-font-specification:'Archivo Black, ';fill:#66efff;fill-opacity:1;stroke-width:2.91968"
         x="11.774566"
         y="139.9781"
         id="tspan4"><tspan
           style="fill:#ff0000;fill-opacity:1"
           id="tspan6">R</tspan><tspan
           style="fill:#fe7f00;fill-opacity:1"
           id="tspan8">a</tspan><tspan
           id="tspan16"
           style="fill:#fefe00;fill-opacity:1">i</tspan><tspan
           id="tspan17"
           style="fill:#00fe00;fill-opacity:1">n</tspan><tspan
           id="tspan18"
           style="fill:#00fefe;fill-opacity:1">b</tspan><tspan
           id="tspan19"
           style="fill:#2a00fe;fill-opacity:1">o</tspan><tspan
           style="fill:#fe00d4;fill-opacity:1"
           id="tspan7">w</tspan></tspan></text>
  </g>
  <g
     inkscape:label="path"
     inkscape:groupmode="layer"
     id="g30"
     transform="translate(-11.83069,-25.523087)">
    <path
       style="font-size:61.6996px;line-height:1;font-family:'Archivo Narrow';-inkscape-font-specification:'Archivo Narrow';text-align:center;letter-spacing:0px;fill:url(#linearGradient37);stroke:#000000;stroke-width:1.05833333;stroke-linecap:square;stroke-linejoin:round;stroke-miterlimit:0;paint-order:markers stroke fill;stroke-dasharray:none"
       d="M 16.139906,74.98539 V 32.659464 h 15.116402 q 4.195573,0 6.972055,1.54249 2.838182,1.54249 4.257273,4.318972 1.41909,2.776482 1.41909,6.478458 0,3.701976 -1.54249,6.540158 -1.54249,2.838181 -4.380671,4.442371 -2.776482,1.54249 -6.725257,1.54249 H 21.569471 V 74.98539 Z m 5.429565,-22.396955 h 9.501739 q 3.270078,0 5.182766,-2.097787 1.974387,-2.097786 1.974387,-5.491264 0,-3.455178 -1.850988,-5.429565 -1.850988,-1.974387 -5.306165,-1.974387 H 21.569471 Z M 49.272647,74.98539 V 42.5314 h 3.825375 l 0.678696,4.257272 h 0.370198 q 0.616996,-1.850988 1.912687,-3.393478 1.295692,-1.604189 3.578577,-1.604189 1.048893,0 1.727589,0.246798 0.678695,0.246799 0.678695,0.246799 v 5.244466 h -1.665889 q -1.604189,0 -3.02328,0.740395 -1.357391,0.678695 -2.221186,2.344585 -0.802095,1.665889 -0.802095,4.56577 V 74.98539 Z m 27.209569,0.740395 q -5.676363,0 -8.637944,-4.072174 -2.961581,-4.133873 -2.961581,-12.895216 0,-8.761343 2.961581,-12.833517 2.961581,-4.133873 8.637944,-4.133873 5.676363,0 8.637944,4.133873 2.961581,4.072174 2.961581,12.833517 0,8.761343 -2.961581,12.895216 -2.961581,4.072174 -8.637944,4.072174 z m 0,-4.504071 q 3.14668,0 4.68917,-2.838182 1.604189,-2.838181 1.604189,-8.452845 v -2.344585 q 0,-5.614663 -1.604189,-8.452845 -1.54249,-2.838181 -4.68917,-2.838181 -3.14668,0 -4.750869,2.838181 -1.54249,2.838182 -1.54249,8.452845 v 2.344585 q 0,5.614664 1.54249,8.452845 1.604189,2.838182 4.750869,2.838182 z m 22.890513,14.993003 q -3.948774,0 -5.984861,-2.282885 -2.036087,-2.221186 -2.036087,-5.429565 0,-2.344585 1.110593,-4.257272 1.172292,-1.912688 3.08498,-2.653083 -1.233992,-0.802095 -1.974387,-2.097787 -0.678696,-1.357391 -0.678696,-2.776482 0,-1.974387 1.233992,-3.393478 1.295692,-1.48079 3.331779,-2.221185 -1.727589,-1.419091 -2.776482,-3.516878 -0.987194,-2.159486 -0.987194,-4.874268 0,-5.121067 2.838182,-8.020948 2.838181,-2.899881 7.774152,-2.899881 2.52968,0 4.68917,1.172292 2.15948,-1.172292 2.96158,-2.653083 0.80209,-1.48079 1.04889,-3.02328 h 4.44237 q 0,2.899881 -1.48079,4.997668 -1.41909,2.097786 -3.94877,2.776482 1.35739,1.357391 2.09778,3.331778 0.8021,1.912688 0.8021,4.318972 0,5.059367 -2.83818,7.959248 -2.77649,2.899882 -7.52735,2.961581 h -3.39348 q -1.233994,0 -2.097789,0.863795 -0.863794,0.802094 -0.863794,2.036086 0,1.172293 0.863794,2.036087 0.925494,0.863795 2.097789,0.863795 h 9.25494 q 3.51687,0 5.55296,2.282885 2.09779,2.221186 2.09779,5.306166 0,2.529683 -1.11059,4.62747 -1.0489,2.097786 -3.20838,3.331778 -2.09779,1.233992 -5.18277,1.233992 z m 0.802091,-4.380672 h 8.94645 q 1.60419,0 2.71478,-1.172292 1.11059,-1.110593 1.11059,-2.653083 0,-1.604189 -0.92549,-2.714782 -0.9255,-1.048893 -2.89988,-1.048893 h -8.94645 q -1.912684,0 -2.838178,1.048893 -0.925494,1.110593 -0.925494,2.714782 0,1.54249 0.925494,2.653083 0.925494,1.172292 2.838178,1.172292 z M 104.247,59.43709 q 2.71478,0 4.13387,-1.789288 1.41909,-1.850988 1.41909,-4.935968 0,-3.270079 -1.41909,-4.997668 -1.41909,-1.727588 -4.13387,-1.727588 -2.65309,0 -4.07218,1.850988 -1.419087,1.789288 -1.419087,4.874268 0,3.208379 1.419087,4.997668 1.41909,1.727588 4.07218,1.727588 z m 18.13964,15.5483 V 42.5314 h 3.82538 l 0.67869,4.257272 h 0.3702 q 0.617,-1.850988 1.91269,-3.393478 1.29569,-1.604189 3.57857,-1.604189 1.0489,0 1.72759,0.246798 0.6787,0.246799 0.6787,0.246799 v 5.244466 h -1.66589 q -1.60419,0 -3.02328,0.740395 -1.35739,0.678695 -2.22119,2.344585 -0.80209,1.665889 -0.80209,4.56577 V 74.98539 Z m 23.75439,0.740395 q -1.17229,0 -2.65308,-0.370198 -1.48079,-0.308498 -2.83819,-1.233992 -1.29569,-0.987193 -2.15948,-2.776482 -0.8638,-1.789288 -0.8638,-4.750869 0,-4.504071 2.09779,-6.786956 2.15949,-2.344585 5.86146,-3.208379 3.76368,-0.863795 8.45285,-0.863795 v -4.195572 q 0,-2.344585 -1.0489,-3.763676 -0.98719,-1.48079 -4.07217,-1.48079 -2.83818,0 -3.94877,1.665889 -1.0489,1.604189 -1.0489,3.455177 v 0.740396 h -4.99766 q -0.0617,-0.308498 -0.0617,-0.616996 0,-0.308498 0,-0.740396 0,-4.442371 2.89988,-6.725256 2.96158,-2.282885 7.52735,-2.282885 4.93597,0 7.34225,2.406284 2.46799,2.344585 2.46799,6.663557 v 18.201382 q 0,1.172292 0.55529,1.665889 0.5553,0.493597 1.17229,0.493597 h 1.97439 v 3.516877 q -0.4319,0.246799 -1.29569,0.493597 -0.8021,0.246799 -2.03609,0.246799 -1.97438,0 -3.33178,-1.110593 -1.29569,-1.110593 -1.78928,-2.899882 h -0.3085 q -1.23399,1.974388 -3.33178,3.14668 -2.03609,1.110593 -4.56577,1.110593 z m 1.17229,-4.504071 q 1.60419,0 3.14668,-0.863794 1.54249,-0.925494 2.52968,-2.714783 1.0489,-1.789288 1.0489,-4.442371 v -2.961581 q -3.33178,0 -5.86146,0.493597 -2.46799,0.431897 -3.88708,1.727589 -1.35739,1.295691 -1.35739,3.825375 0,2.776482 1.11059,3.887075 1.1723,1.048893 3.27008,1.048893 z m 20.05233,3.763676 V 42.5314 h 3.82538 l 0.67869,3.763676 h 0.3702 q 1.29569,-2.406285 3.20838,-3.455178 1.91269,-1.048893 4.19557,-1.048893 2.40629,0 4.19558,1.110593 1.85098,1.048893 2.71478,3.578576 1.29569,-2.344584 3.45518,-3.516877 2.15948,-1.172292 4.44237,-1.172292 2.28288,0 4.01047,0.987193 1.72759,0.925494 2.65308,3.08498 0.9872,2.097787 0.9872,5.738063 V 74.98539 h -5.05937 V 51.971439 q 0,-3.393478 -1.23399,-4.504071 -1.17229,-1.172292 -2.96158,-1.172292 -2.28289,0 -3.94878,2.344584 -1.60419,2.344585 -1.60419,6.540158 V 74.98539 h -5.05936 V 51.971439 q 0,-3.393478 -1.234,-4.504071 -1.17229,-1.172292 -2.96158,-1.172292 -2.28288,0 -3.94877,2.344584 -1.66589,2.344585 -1.66589,6.540158 V 74.98539 Z m 61.94647,0.616996 q -2.22119,0 -3.51688,-1.110593 -1.23399,-1.110593 -1.78929,-2.776482 -0.49359,-1.727589 -0.49359,-3.578577 V 47.035471 h -2.77648 V 42.5314 h 2.77648 l 1.11059,-9.008142 h 3.94878 V 42.5314 h 4.38067 v 4.504071 h -4.38067 v 21.224662 q 0,2.961581 2.89988,2.961581 h 1.48079 v 3.516877 q -0.617,0.370198 -1.66589,0.616996 -1.0489,0.246799 -1.97439,0.246799 z m 8.32949,-0.616996 V 30.376579 h 5.05937 v 15.548299 h 0.37019 q 1.234,-2.159486 3.02328,-3.14668 1.85099,-0.987193 4.25728,-0.987193 3.64027,0 5.79976,2.221185 2.22118,2.159486 2.22118,7.589051 V 74.98539 h -5.05936 V 51.971439 q 0,-3.393478 -1.29569,-4.504071 -1.234,-1.172292 -3.27008,-1.172292 -2.40629,0 -4.25728,2.344584 -1.78928,2.344585 -1.78928,6.540158 V 74.98539 Z m 39.30261,0.740395 q -6.04657,0 -9.19325,-3.948775 -3.08498,-4.010474 -3.08498,-13.018615 0,-8.761343 3.02329,-12.833517 3.08498,-4.133873 9.19324,-4.133873 5.30616,0 7.95924,3.578577 2.71479,3.516877 2.71479,11.661224 v 3.208379 h -17.58439 q 0.0617,5.676363 1.78929,8.329446 1.72759,2.653083 5.30616,2.653083 2.40629,0 3.94878,-1.912688 1.54249,-1.974387 1.54249,-5.367865 h 4.99767 q 0,5.429565 -2.96158,8.637944 -2.89989,3.14668 -7.65075,3.14668 z m -6.91036,-19.990671 h 12.21652 q 0,-4.62747 -1.35739,-7.033754 -1.35739,-2.406284 -4.01047,-2.406284 -3.39348,0 -4.99767,2.406284 -1.54249,2.344585 -1.85099,7.033754 z"
       id="text21"
       aria-label="Program the&#10;"
       inkscape:label="Program" />
    <g
       id="text30"
       style="font-size:58.3932px;line-height:1;font-family:'Open Sans Condensed';-inkscape-font-specification:'Open Sans Condensed, Normal';text-align:center;letter-spacing:0px;fill:#cdf8fd;stroke:#000000;stroke-width:1.05833333;stroke-linecap:square;stroke-linejoin:round;stroke-miterlimit:0;paint-order:markers stroke fill;stroke-dasharray:none"
       aria-label="&#10;Rainbow"
       inkscape:label="Rainbow">
      <path
         style="font-size:61.3131px;font-family:'Archivo Narrow';-inkscape-font-specification:'Archivo Narrow';fill:#ff0101;fill-opacity:1;stroke-width:1.05833333;stroke-dasharray:none"
         d="m 54.226422,112.12455 q 0,3.67877 -1.985369,6.65682 -1.985369,2.97806 -5.780927,4.37949 l 8.93416,16.81724 H 40.912772 l -7.12397,-14.65669 H 29.00056 V 139.9781 H 16.095662 V 99.803583 H 40.6792 q 4.321096,0 7.357543,1.693407 3.094839,1.63501 4.613063,4.49627 1.576616,2.80288 1.576616,6.13129 z m -13.13847,0.52554 q 0,-1.57662 -1.051078,-2.6277 -1.051077,-1.05107 -2.5693,-1.05107 H 29.00056 v 7.41593 h 8.467014 q 1.518223,0 2.5693,-1.05108 1.051078,-1.10947 1.051078,-2.68608 z"
         id="path30" />
      <path
         style="font-family:'Archivo Black';-inkscape-font-specification:'Archivo Black, ';fill:#fe7f00;stroke-width:1.05833333;stroke-dasharray:none"
         d="m 75.948684,108.44578 q 7.065577,0 11.50346,2.39412 4.437884,2.33573 4.437884,7.64951 v 12.029 q 0,0.99268 0.467145,1.63501 0.467146,0.64232 1.401437,0.64232 h 2.102155 v 6.71522 q -0.175179,0.11679 -0.934291,0.40875 -0.700718,0.23357 -2.043762,0.46715 -1.343044,0.29196 -3.09484,0.29196 -3.386805,0 -5.605747,-0.99268 -2.160548,-1.05108 -2.978053,-2.86127 -2.218942,1.7518 -4.963422,2.80288 -2.74448,1.05107 -6.423252,1.05107 -10.861135,0 -10.861135,-8.64219 0,-4.49628 2.394121,-6.832 2.452514,-2.39413 7.007184,-3.27002 4.55467,-0.8759 11.912213,-0.8759 v -1.51823 q 0,-1.81018 -1.284651,-2.74448 -1.226257,-0.93429 -3.211626,-0.93429 -1.810189,0 -3.153232,0.64233 -1.284651,0.64232 -1.284651,2.04376 v 0.23357 H 59.890554 q -0.05839,-0.29196 -0.05839,-0.8175 0,-4.37949 4.145917,-6.94879 4.20431,-2.5693 11.970606,-2.5693 z m 4.321097,18.10189 q -4.963422,0 -7.357543,1.10947 -2.335728,1.05108 -2.335728,2.86127 0,2.91966 3.970737,2.91966 2.277335,0 3.970738,-1.22626 1.751796,-1.22626 1.751796,-3.03645 z"
         id="path31" />
      <path
         style="font-family:'Archivo Black';-inkscape-font-specification:'Archivo Black, ';fill:#fefe00;stroke-width:1.05833333;stroke-dasharray:none"
         d="m 100.06507,105.52612 v -7.883085 h 11.62025 v 7.883085 z m 0,34.45198 v -30.8316 h 11.62025 v 30.8316 z"
         id="path32" />
      <path
         style="font-family:'Archivo Black';-inkscape-font-specification:'Archivo Black, ';fill:#00fe00;stroke-width:1.05833333;stroke-dasharray:none"
         d="m 140.35639,108.44578 q 5.37217,0 8.05826,2.97805 2.68609,2.97805 2.68609,8.5838 v 19.97047 h -11.62025 v -18.56903 q 0,-1.98537 -1.05108,-3.15324 -0.99268,-1.22625 -2.86127,-1.22625 -2.16054,0 -3.50359,1.40143 -1.34304,1.40144 -1.34304,3.4452 v 18.10189 h -11.62025 v -30.8316 h 9.51809 l 0.75912,4.67145 q 1.81018,-2.45251 4.72984,-3.91234 2.97806,-1.45983 6.24808,-1.45983 z"
         id="path33" />
      <path
         style="font-family:'Archivo Black';-inkscape-font-specification:'Archivo Black, ';fill:#00fefe;stroke-width:1.05833333;stroke-dasharray:none"
         d="m 169.72816,112.00776 q 3.32841,-3.56198 8.64219,-3.56198 6.24808,0 9.63488,4.08752 3.38681,4.02913 3.38681,11.97061 0,7.99987 -3.38681,12.08739 -3.3868,4.08752 -9.63488,4.08752 -6.42325,0 -9.81005,-5.08021 l -0.99269,4.37949 h -9.4597 V 97.643035 h 11.62025 z m 5.02182,5.02182 q -2.56931,0 -3.85396,1.86858 -1.28465,1.81019 -1.28465,4.72985 v 1.92697 q 0,2.91966 1.28465,4.72985 1.28465,1.81019 3.85396,1.81019 5.02181,0 5.02181,-5.9561 v -3.09484 q 0,-6.0145 -5.02181,-6.0145 z"
         id="path34" />
      <path
         style="font-family:'Archivo Black';-inkscape-font-specification:'Archivo Black, ';fill:#2a00fe;stroke-width:1.05833333;stroke-dasharray:none"
         d="m 212.93911,108.44578 q 8.11665,0 12.72971,4.14591 4.67146,4.08753 4.67146,11.97061 0,7.88308 -4.67146,12.029 -4.61306,4.08752 -12.72971,4.08752 -8.11666,0 -12.72972,-4.08752 -4.61306,-4.08752 -4.61306,-12.029 0,-7.94148 4.61306,-12.029 4.61306,-4.08752 12.72972,-4.08752 z m 0,7.88308 q -5.72254,0 -5.72254,6.59843 v 3.32841 q 0,6.54004 5.72254,6.54004 5.78092,0 5.78092,-6.54004 v -3.32841 q 0,-6.59843 -5.78092,-6.59843 z"
         id="path35" />
      <path
         style="font-family:'Archivo Black';-inkscape-font-specification:'Archivo Black, ';fill:#fe00d4;stroke-width:1.05833333;stroke-dasharray:none"
         d="m 264.90905,139.9781 -4.78825,-17.1676 h -0.23357 l -4.84663,17.1676 h -11.32828 l -11.26989,-30.8316 h 12.49614 l 4.67146,18.21867 h 0.40875 l 4.84664,-18.21867 h 11.56185 l 4.67146,18.21867 h 0.40875 l 4.72985,-18.21867 h 11.32828 l -11.32828,30.8316 z"
         id="path36" />
    </g>
  </g>
</svg>
