<svg width="2800" height="1400" viewBox="0 0 2800 1400" xmlns="http://www.w3.org/2000/svg" xmlns:xlink="http://www.w3.org/1999/xlink" id="Layer_1" overflow="hidden"><path d="M1400 0C626.77 0 0 626.81 0 1400L765.62 1400C765.62 1049.66 1049.61 765.62 1400 765.62 1750.39 765.62 2034.38 1049.65 2034.38 1400L2800 1400C2800 626.81 2173.19 0 1400 0Z" fill="#999999"/><path d="M1400 109.38C2112.8 109.38 2690.62 687.21 2690.62 1400L2800 1400C2800 626.81 2173.19 0 1400 0 626.81 0 0 626.81 0 1400L109.38 1400C109.38 687.2 687.2 109.38 1400 109.38Z" fill="#FF0000"/><path d="M1400 109.38C687.2 109.38 109.38 687.2 109.38 1400L218.76 1400C218.76 747.62 747.63 218.75 1400.01 218.75 2052.39 218.75 2581.26 747.62 2581.26 1400L2690.64 1400C2690.64 687.2 2112.81 109.38 1400.02 109.38Z" fill="#FF7700"/><path d="M1400 328.12C1991.99 328.12 2471.88 808 2471.88 1400L2581.26 1400C2581.26 747.62 2052.39 218.75 1400.01 218.75 747.63 218.75 218.75 747.62 218.75 1400L328.13 1400C328.13 808.01 808.01 328.12 1400.01 328.12Z" fill="#FFFF00"/><path d="M1400 328.12C808.01 328.12 328.12 808 328.12 1400L437.5 1400C437.5 868.42 868.42 437.5 1400 437.5 1931.58 437.5 2362.5 868.42 2362.5 1400L2471.88 1400C2471.88 808.01 1992 328.12 1400 328.12Z" fill="#00FF00"/><path d="M1400 546.88C1871.17 546.88 2253.12 928.84 2253.12 1400L2362.5 1400C2362.5 868.42 1931.58 437.5 1400 437.5 868.42 437.5 437.5 868.42 437.5 1400L546.88 1400C546.88 928.83 928.84 546.88 1400 546.88Z" fill="#0000FF"/><path d="M1400 546.88C928.83 546.88 546.88 928.84 546.88 1400L656.26 1400C656.26 989.25 989.26 656.25 1400.01 656.25 1810.76 656.25 2143.76 989.25 2143.76 1400L2253.14 1400C2253.14 928.83 1871.18 546.88 1400.02 546.88Z" fill="#0077FF"/><path d="M1400 765.62C1750.34 765.62 2034.38 1049.65 2034.38 1400L2143.76 1400C2143.76 989.25 1810.76 656.25 1400.01 656.25 989.26 656.25 656.26 989.25 656.26 1400L765.64 1400C765.64 1049.66 1049.67 765.62 1400.02 765.62Z" fill="#7F00FF"/><path d="M42.42 1332.49C45.59 1331.84 50.12 1331.48 54.44 1331.48 61.14 1331.48 65.46 1332.7 68.48 1335.44 70.93 1337.6 72.3 1340.91 72.3 1344.66 72.3 1351.07 68.27 1355.32 63.16 1357.04L63.16 1357.26C66.9 1358.56 69.14 1362.01 70.29 1367.05 71.87 1373.82 73.03 1378.5 74.03 1380.37L67.55 1380.37C66.76 1379 65.68 1374.83 64.31 1368.78 62.87 1362.08 60.28 1359.56 54.59 1359.35L48.69 1359.35 48.69 1380.38 42.43 1380.38 42.43 1332.5ZM48.68 1354.6 55.09 1354.6C61.79 1354.6 66.03 1350.93 66.03 1345.38 66.03 1339.12 61.49 1336.38 54.87 1336.31 51.85 1336.31 49.69 1336.6 48.68 1336.89L48.68 1354.6Z"/><path d="M188.67 1355.61C188.67 1372.32 178.52 1381.17 166.13 1381.17 153.74 1381.17 144.31 1371.23 144.31 1356.54 144.31 1341.13 153.89 1331.05 166.85 1331.05 179.81 1331.05 188.67 1341.2 188.67 1355.6ZM151.01 1356.4C151.01 1366.77 156.63 1376.06 166.49 1376.06 176.35 1376.06 182.04 1366.92 182.04 1355.9 182.04 1346.25 177 1336.17 166.56 1336.17 156.12 1336.17 151.01 1345.75 151.01 1356.4Z"/><path d="M269.75 1380.38 269.75 1359.79 254.41 1331.85 261.54 1331.85 268.38 1345.24C270.25 1348.91 271.69 1351.86 273.2 1355.25L273.34 1355.25C274.71 1352.08 276.36 1348.91 278.24 1345.24L285.23 1331.85 292.36 1331.85 276.09 1359.72 276.09 1380.39 269.75 1380.39Z"/><path d="M406.04 1378.22C403.23 1379.23 397.69 1380.88 391.13 1380.88 383.79 1380.88 377.74 1379.01 372.98 1374.47 368.8 1370.44 366.21 1363.96 366.21 1356.4 366.28 1341.93 376.22 1331.34 392.49 1331.34 398.11 1331.34 402.5 1332.56 404.59 1333.57L403.08 1338.68C400.49 1337.53 397.25 1336.59 392.35 1336.59 380.54 1336.59 372.84 1343.93 372.84 1356.1 372.84 1368.27 380.26 1375.68 391.56 1375.68 395.66 1375.68 398.47 1375.1 399.91 1374.38L399.91 1359.91 390.05 1359.91 390.05 1354.87 406.04 1354.87 406.04 1378.2Z"/><path d="M482.04 1332.49C484.78 1331.91 489.1 1331.48 493.49 1331.48 499.75 1331.48 503.79 1332.56 506.81 1335.01 509.33 1336.88 510.84 1339.76 510.84 1343.58 510.84 1348.26 507.74 1352.36 502.63 1354.24L502.63 1354.38C507.24 1355.53 512.64 1359.35 512.64 1366.55 512.64 1370.73 510.98 1373.89 508.54 1376.27 505.16 1379.37 499.68 1380.81 491.76 1380.81 487.44 1380.81 484.13 1380.52 482.04 1380.23L482.04 1332.49ZM488.3 1352.37 493.99 1352.37C500.61 1352.37 504.5 1348.91 504.5 1344.23 504.5 1338.54 500.18 1336.31 493.84 1336.31 490.96 1336.31 489.3 1336.53 488.3 1336.74L488.3 1352.36ZM488.3 1375.62C489.52 1375.84 491.32 1375.91 493.56 1375.91 500.04 1375.91 506.02 1373.53 506.02 1366.48 506.02 1359.86 500.33 1357.12 493.49 1357.12L488.31 1357.12 488.31 1375.63Z"/><path d="M604.08 1331.84 604.08 1380.37 597.82 1380.37 597.82 1331.84 604.08 1331.84Z"/><path d="M708.77 1380.38 692.93 1331.85 699.7 1331.85 707.26 1355.76C709.35 1362.31 711.15 1368.22 712.44 1373.91L712.58 1373.91C713.95 1368.29 715.96 1362.17 718.12 1355.84L726.33 1331.86 733.03 1331.86 715.68 1380.39 708.77 1380.39Z"/><path d="M71.02 1053.39C87.58 1050 111.3 1048.12 133.88 1048.12 168.89 1048.12 191.47 1054.52 207.28 1068.82 220.08 1080.11 227.23 1097.43 227.23 1117 227.23 1150.5 206.15 1172.71 179.42 1181.74L179.42 1182.87C198.99 1189.65 210.66 1207.71 216.69 1234.06 224.97 1269.44 230.99 1293.91 236.26 1303.7L202.38 1303.7C198.24 1296.55 192.59 1274.72 185.44 1243.1 177.91 1208.09 164.36 1194.92 134.62 1193.79L103.75 1193.79 103.75 1303.7 71 1303.7 71 1053.38ZM103.77 1168.95 137.27 1168.95C172.28 1168.95 194.49 1149.75 194.49 1120.77 194.49 1088.02 170.78 1073.72 136.15 1073.34 120.34 1073.34 109.05 1074.84 103.78 1076.35L103.78 1168.95Z" fill="#FFFFFF"/><path d="M501.93 1292.42C487.25 1297.69 458.27 1306.35 424.01 1306.35 385.62 1306.35 354 1296.56 329.15 1272.85 307.32 1251.77 293.77 1217.89 293.77 1178.37 294.15 1102.71 346.09 1047.38 431.16 1047.38 460.52 1047.38 483.48 1053.78 494.4 1059.05L486.5 1085.78C472.95 1079.76 456.01 1074.86 430.41 1074.86 368.68 1074.86 328.4 1113.26 328.4 1176.87 328.4 1240.48 367.17 1279.26 426.27 1279.26 447.73 1279.26 462.41 1276.25 469.93 1272.48L469.93 1196.82 418.36 1196.82 418.36 1170.47 501.92 1170.47 501.92 1292.43Z" fill="#FFFFFF"/><path d="M588.23 1053.39C602.53 1050.38 625.12 1048.12 648.08 1048.12 680.83 1048.12 701.91 1053.77 717.72 1066.57 730.89 1076.36 738.8 1091.41 738.8 1111.36 738.8 1135.83 722.61 1157.28 695.89 1167.07L695.89 1167.82C719.98 1173.84 748.21 1193.79 748.21 1231.44 748.21 1253.27 739.55 1269.83 726.75 1282.26 709.06 1298.45 680.45 1305.97 639.04 1305.97 616.46 1305.97 599.14 1304.46 588.22 1302.96L588.22 1053.39ZM620.98 1157.28 650.72 1157.28C685.35 1157.28 705.68 1139.21 705.68 1114.74 705.68 1085 683.09 1073.33 649.97 1073.33 634.91 1073.33 626.26 1074.46 620.99 1075.59L620.99 1157.27ZM620.98 1278.87C627.38 1280 636.79 1280.38 648.46 1280.38 682.34 1280.38 713.58 1267.96 713.58 1231.07 713.58 1196.44 683.84 1182.14 648.08 1182.14L620.98 1182.14 620.98 1278.88Z" fill="#FFFFFF"/><path d="M2755.75 1203.86 2754.04 1184.3 2738.19 1185.69 2739.68 1202.73 2736.28 1203.03 2734.79 1185.99 2715.42 1187.69 2715.08 1183.83 2757.2 1180.15 2759.29 1204.09 2755.75 1203.87Z"/><path d="M2758.97 1240.64 2757.26 1221.08 2741.41 1222.47 2742.9 1239.51 2739.5 1239.81 2738.01 1222.77 2718.64 1224.47 2718.3 1220.61 2760.42 1216.92 2762.51 1240.86 2758.97 1240.65Z"/><path d="M2760.35 1273.44C2756.84 1276.03 2751.58 1277.64 2744.57 1278.25 2737.52 1278.87 2732.05 1278.2 2728.15 1276.26 2724.25 1274.32 2722.11 1271.16 2721.73 1266.78 2721.35 1262.43 2722.91 1258.95 2726.42 1256.35 2729.93 1253.75 2735.2 1252.14 2742.23 1251.52 2749.24 1250.91 2754.7 1251.58 2758.61 1253.53 2762.52 1255.48 2764.66 1258.64 2765.04 1262.99 2765.42 1267.36 2763.86 1270.85 2760.35 1273.44ZM2730.14 1272.77C2733.27 1274.09 2737.95 1274.48 2744.19 1273.93 2749.44 1273.47 2753.48 1272.61 2756.32 1271.36L2727.73 1260.15C2725.73 1261.77 2724.84 1263.88 2725.07 1266.5 2725.32 1269.36 2727.01 1271.45 2730.14 1272.77ZM2731.05 1258.25 2759.34 1269.49C2761.16 1267.89 2761.95 1265.82 2761.73 1263.29 2761.48 1260.45 2759.79 1258.37 2756.66 1257.05 2753.53 1255.73 2748.84 1255.34 2742.61 1255.89 2737.75 1256.32 2733.89 1257.1 2731.05 1258.26Z"/><path d="M2763.56 1310.22C2760.05 1312.81 2754.79 1314.42 2747.78 1315.03 2740.73 1315.65 2735.26 1314.98 2731.36 1313.04 2727.46 1311.1 2725.32 1307.94 2724.94 1303.56 2724.56 1299.21 2726.12 1295.73 2729.63 1293.13 2733.14 1290.53 2738.41 1288.92 2745.44 1288.3 2752.45 1287.69 2757.91 1288.36 2761.82 1290.31 2765.73 1292.26 2767.87 1295.42 2768.25 1299.77 2768.63 1304.14 2767.07 1307.63 2763.56 1310.22ZM2733.36 1309.55C2736.49 1310.87 2741.17 1311.26 2747.41 1310.72 2752.66 1310.26 2756.7 1309.4 2759.54 1308.15L2730.95 1296.94C2728.95 1298.56 2728.06 1300.67 2728.29 1303.29 2728.54 1306.15 2730.23 1308.24 2733.36 1309.56ZM2734.26 1295.03 2762.55 1306.27C2764.37 1304.67 2765.16 1302.6 2764.94 1300.07 2764.69 1297.23 2763 1295.15 2759.87 1293.83 2756.74 1292.51 2752.05 1292.12 2745.82 1292.67 2740.96 1293.1 2737.1 1293.88 2734.26 1295.04Z"/><path d="M2766.78 1347.01C2763.27 1349.6 2758.01 1351.21 2751 1351.82 2743.95 1352.44 2738.47 1351.77 2734.58 1349.83 2730.68 1347.88 2728.54 1344.73 2728.16 1340.35 2727.78 1336 2729.34 1332.52 2732.85 1329.92 2736.36 1327.32 2741.63 1325.71 2748.66 1325.09 2755.67 1324.48 2761.13 1325.15 2765.04 1327.1 2768.95 1329.05 2771.09 1332.21 2771.47 1336.56 2771.85 1340.93 2770.29 1344.42 2766.78 1347.01ZM2736.58 1346.33C2739.71 1347.65 2744.39 1348.04 2750.63 1347.5 2755.88 1347.04 2759.92 1346.18 2762.76 1344.92L2734.17 1333.71C2732.17 1335.33 2731.28 1337.44 2731.51 1340.06 2731.76 1342.92 2733.45 1345.01 2736.58 1346.33ZM2737.48 1331.81 2765.77 1343.05C2767.59 1341.45 2768.38 1339.38 2768.16 1336.85 2767.91 1334.01 2766.22 1331.93 2763.09 1330.61 2759.96 1329.29 2755.27 1328.9 2749.04 1329.44 2744.18 1329.87 2740.32 1330.65 2737.48 1331.81Z"/><path d="M2770 1383.79C2766.49 1386.38 2761.23 1387.99 2754.22 1388.6 2747.17 1389.22 2741.69 1388.55 2737.8 1386.61 2733.9 1384.66 2731.76 1381.51 2731.38 1377.13 2731 1372.78 2732.56 1369.3 2736.07 1366.7 2739.58 1364.1 2744.85 1362.49 2751.88 1361.87 2758.89 1361.26 2764.35 1361.93 2768.26 1363.88 2772.17 1365.83 2774.31 1368.99 2774.69 1373.34 2775.07 1377.71 2773.51 1381.2 2770 1383.79ZM2739.79 1383.11C2742.92 1384.43 2747.6 1384.82 2753.84 1384.28 2759.09 1383.82 2763.13 1382.96 2765.97 1381.7L2737.38 1370.49C2735.38 1372.11 2734.49 1374.22 2734.72 1376.84 2734.97 1379.7 2736.66 1381.79 2739.8 1383.11ZM2740.7 1368.59 2768.99 1379.83C2770.81 1378.23 2771.6 1376.16 2771.38 1373.63 2771.13 1370.79 2769.44 1368.71 2766.31 1367.39 2763.18 1366.07 2758.49 1365.68 2752.26 1366.22 2747.4 1366.65 2743.54 1367.43 2740.7 1368.59Z"/><path d="M2643.14 1203.86 2641.43 1184.3 2625.58 1185.69 2627.07 1202.73 2623.67 1203.03 2622.18 1185.99 2602.81 1187.68 2602.47 1183.82 2644.59 1180.14 2646.68 1204.08 2643.14 1203.86Z"/><path d="M2646.36 1240.64 2644.65 1221.08 2628.8 1222.47 2630.29 1239.51 2626.89 1239.81 2625.4 1222.77 2606.03 1224.47 2605.69 1220.61 2647.81 1216.93 2649.9 1240.87 2646.36 1240.65Z"/><path d="M2649.74 1275.4 2608.84 1261.9 2609.58 1258.31 2649.2 1271.58 2647.44 1251.44 2650.81 1251.15 2652.91 1275.12 2649.75 1275.4Z"/><path d="M2652.96 1312.18 2612.06 1298.68 2612.8 1295.09 2652.42 1308.37 2650.66 1288.23 2654.03 1287.94 2656.13 1311.91 2652.97 1312.19Z"/><path d="M2654.17 1347.01C2650.66 1349.6 2645.4 1351.21 2638.39 1351.82 2631.34 1352.44 2625.87 1351.77 2621.97 1349.83 2618.07 1347.89 2615.93 1344.73 2615.55 1340.35 2615.17 1336 2616.73 1332.52 2620.24 1329.92 2623.75 1327.32 2629.02 1325.71 2636.05 1325.09 2643.06 1324.48 2648.52 1325.15 2652.43 1327.1 2656.34 1329.05 2658.48 1332.21 2658.86 1336.56 2659.24 1340.93 2657.68 1344.42 2654.17 1347.01ZM2623.96 1346.33C2627.09 1347.65 2631.77 1348.04 2638.01 1347.5 2643.26 1347.04 2647.3 1346.18 2650.14 1344.93L2621.55 1333.72C2619.55 1335.34 2618.66 1337.45 2618.89 1340.07 2619.14 1342.93 2620.83 1345.02 2623.96 1346.34ZM2624.87 1331.81 2653.16 1343.05C2654.98 1341.45 2655.77 1339.38 2655.55 1336.85 2655.3 1334.01 2653.61 1331.93 2650.48 1330.61 2647.35 1329.29 2642.66 1328.9 2636.43 1329.45 2631.57 1329.87 2627.71 1330.66 2624.87 1331.82Z"/><path d="M2657.39 1383.79C2653.88 1386.38 2648.62 1387.99 2641.61 1388.6 2634.56 1389.22 2629.08 1388.55 2625.19 1386.61 2621.29 1384.67 2619.15 1381.51 2618.77 1377.13 2618.39 1372.78 2619.95 1369.3 2623.46 1366.7 2626.97 1364.1 2632.24 1362.49 2639.27 1361.87 2646.28 1361.26 2651.74 1361.93 2655.65 1363.88 2659.56 1365.83 2661.7 1368.99 2662.08 1373.34 2662.46 1377.71 2660.9 1381.2 2657.39 1383.79ZM2627.18 1383.11C2630.31 1384.43 2634.99 1384.82 2641.23 1384.28 2646.48 1383.82 2650.52 1382.96 2653.36 1381.71L2624.77 1370.5C2622.77 1372.12 2621.88 1374.23 2622.11 1376.85 2622.36 1379.71 2624.05 1381.8 2627.18 1383.12ZM2628.09 1368.59 2656.38 1379.83C2658.2 1378.23 2658.99 1376.16 2658.77 1373.63 2658.52 1370.79 2656.83 1368.71 2653.7 1367.39 2650.57 1366.07 2645.88 1365.68 2639.65 1366.23 2634.79 1366.66 2630.93 1367.44 2628.09 1368.6Z"/><path d="M2533.53 1203.86 2531.82 1184.3 2515.97 1185.69 2517.46 1202.73 2514.06 1203.03 2512.57 1185.99 2493.2 1187.69 2492.86 1183.83 2534.98 1180.14 2537.07 1204.08 2533.53 1203.87Z"/><path d="M2536.75 1240.64 2535.04 1221.08 2519.19 1222.47 2520.68 1239.51 2517.28 1239.81 2515.79 1222.77 2496.42 1224.46 2496.08 1220.6 2538.2 1216.92 2540.29 1240.86 2536.75 1240.64Z"/><path d="M2539.97 1277.42 2538.26 1257.86 2522.41 1259.25 2523.9 1276.29 2520.5 1276.59 2519.01 1259.55 2499.64 1261.25 2499.3 1257.39 2541.42 1253.71 2543.51 1277.65 2539.97 1277.44Z"/><path d="M2543.19 1314.2 2541.48 1294.64 2525.63 1296.03 2527.12 1313.07 2523.72 1313.37 2522.23 1296.33 2502.86 1298.03 2502.52 1294.17 2544.64 1290.48 2546.73 1314.42 2543.19 1314.21Z"/><path d="M2544.56 1347.01C2541.05 1349.6 2535.79 1351.21 2528.78 1351.82 2521.73 1352.44 2516.26 1351.77 2512.36 1349.83 2508.46 1347.88 2506.32 1344.73 2505.94 1340.35 2505.56 1336 2507.12 1332.52 2510.63 1329.92 2514.14 1327.32 2519.41 1325.71 2526.44 1325.09 2533.45 1324.48 2538.91 1325.15 2542.82 1327.1 2546.73 1329.05 2548.87 1332.21 2549.25 1336.56 2549.63 1340.93 2548.07 1344.42 2544.56 1347.01ZM2514.35 1346.33C2517.48 1347.65 2522.16 1348.04 2528.4 1347.5 2533.65 1347.04 2537.69 1346.18 2540.53 1344.93L2511.94 1333.72C2509.94 1335.34 2509.06 1337.45 2509.28 1340.07 2509.53 1342.93 2511.22 1345.02 2514.35 1346.34ZM2515.26 1331.81 2543.55 1343.05C2545.37 1341.45 2546.16 1339.38 2545.94 1336.85 2545.69 1334.01 2544 1331.93 2540.87 1330.61 2537.74 1329.29 2533.05 1328.9 2526.82 1329.45 2521.96 1329.87 2518.1 1330.66 2515.26 1331.82Z"/><path d="M2547.78 1383.79C2544.27 1386.38 2539.01 1387.99 2532 1388.6 2524.95 1389.22 2519.48 1388.55 2515.58 1386.61 2511.68 1384.67 2509.54 1381.51 2509.16 1377.13 2508.78 1372.78 2510.34 1369.3 2513.85 1366.7 2517.36 1364.1 2522.63 1362.49 2529.66 1361.87 2536.67 1361.26 2542.13 1361.93 2546.04 1363.88 2549.95 1365.83 2552.09 1368.99 2552.47 1373.34 2552.85 1377.71 2551.29 1381.2 2547.78 1383.79ZM2517.57 1383.11C2520.7 1384.43 2525.39 1384.82 2531.62 1384.28 2536.87 1383.82 2540.91 1382.96 2543.75 1381.71L2515.16 1370.5C2513.16 1372.12 2512.27 1374.23 2512.5 1376.85 2512.75 1379.71 2514.44 1381.8 2517.57 1383.12ZM2518.48 1368.59 2546.77 1379.83C2548.59 1378.23 2549.38 1376.16 2549.16 1373.63 2548.91 1370.79 2547.22 1368.71 2544.09 1367.39 2540.96 1366.07 2536.27 1365.68 2530.04 1366.23 2525.18 1366.65 2521.32 1367.44 2518.48 1368.6Z"/><path d="M2417.78 1199.88C2414.27 1202.47 2409.01 1204.08 2402 1204.69 2394.95 1205.31 2389.48 1204.64 2385.58 1202.7 2381.68 1200.76 2379.54 1197.6 2379.16 1193.22 2378.78 1188.87 2380.34 1185.39 2383.85 1182.79 2387.36 1180.19 2392.63 1178.58 2399.66 1177.96 2406.67 1177.35 2412.13 1178.02 2416.04 1179.97 2419.95 1181.92 2422.09 1185.08 2422.47 1189.43 2422.85 1193.8 2421.29 1197.29 2417.78 1199.88ZM2387.57 1199.2C2390.7 1200.52 2395.38 1200.91 2401.62 1200.36 2406.87 1199.9 2410.91 1199.04 2413.75 1197.79L2385.16 1186.58C2383.16 1188.2 2382.28 1190.31 2382.5 1192.93 2382.75 1195.79 2384.44 1197.88 2387.57 1199.2ZM2388.48 1184.68 2416.77 1195.92C2418.59 1194.32 2419.38 1192.25 2419.16 1189.72 2418.91 1186.88 2417.22 1184.8 2414.09 1183.48 2410.96 1182.16 2406.27 1181.77 2400.04 1182.32 2395.18 1182.75 2391.32 1183.53 2388.48 1184.69Z"/><path d="M2420.99 1236.66C2417.48 1239.25 2412.22 1240.86 2405.21 1241.47 2398.16 1242.09 2392.69 1241.42 2388.79 1239.48 2384.89 1237.54 2382.75 1234.38 2382.37 1230 2381.99 1225.65 2383.55 1222.17 2387.06 1219.57 2390.57 1216.97 2395.84 1215.36 2402.87 1214.74 2409.88 1214.13 2415.34 1214.8 2419.25 1216.75 2423.16 1218.7 2425.3 1221.86 2425.68 1226.21 2426.06 1230.58 2424.5 1234.07 2420.99 1236.66ZM2390.79 1235.98C2393.92 1237.3 2398.61 1237.69 2404.84 1237.15 2410.09 1236.69 2414.13 1235.83 2416.97 1234.57L2388.38 1223.36C2386.38 1224.98 2385.49 1227.09 2385.72 1229.71 2385.97 1232.57 2387.66 1234.66 2390.79 1235.98ZM2391.7 1221.46 2419.99 1232.7C2421.81 1231.1 2422.6 1229.03 2422.38 1226.5 2422.13 1223.66 2420.44 1221.58 2417.31 1220.26 2414.18 1218.94 2409.49 1218.55 2403.26 1219.1 2398.4 1219.53 2394.54 1220.31 2391.7 1221.47Z"/><path d="M2426.06 1277.42 2424.35 1257.86 2408.5 1259.25 2409.99 1276.29 2406.59 1276.59 2405.1 1259.55 2385.73 1261.24 2385.39 1257.38 2427.51 1253.7 2429.6 1277.64 2426.06 1277.43Z"/><path d="M2429.28 1314.2 2427.57 1294.64 2411.72 1296.03 2413.21 1313.07 2409.81 1313.37 2408.32 1296.33 2388.95 1298.03 2388.61 1294.17 2430.73 1290.49 2432.82 1314.43 2429.28 1314.21Z"/><path d="M2430.65 1347.01C2427.14 1349.6 2421.88 1351.21 2414.87 1351.82 2407.82 1352.44 2402.35 1351.77 2398.45 1349.83 2394.55 1347.89 2392.41 1344.73 2392.03 1340.35 2391.65 1336 2393.21 1332.52 2396.72 1329.92 2400.23 1327.32 2405.5 1325.71 2412.53 1325.09 2419.54 1324.48 2425 1325.15 2428.91 1327.1 2432.82 1329.05 2434.96 1332.21 2435.34 1336.56 2435.72 1340.93 2434.16 1344.42 2430.65 1347.01ZM2400.44 1346.33C2403.57 1347.65 2408.26 1348.04 2414.49 1347.5 2419.74 1347.04 2423.78 1346.18 2426.62 1344.92L2398.03 1333.71C2396.03 1335.33 2395.14 1337.44 2395.37 1340.06 2395.62 1342.92 2397.31 1345.01 2400.44 1346.33ZM2401.35 1331.81 2429.64 1343.05C2431.46 1341.45 2432.25 1339.38 2432.03 1336.85 2431.78 1334.01 2430.09 1331.93 2426.96 1330.61 2423.83 1329.29 2419.15 1328.9 2412.91 1329.45 2408.05 1329.88 2404.19 1330.66 2401.35 1331.82Z"/><path d="M2433.87 1383.79C2430.36 1386.38 2425.1 1387.99 2418.09 1388.6 2411.04 1389.22 2405.57 1388.55 2401.67 1386.61 2397.77 1384.67 2395.63 1381.51 2395.25 1377.13 2394.87 1372.78 2396.43 1369.3 2399.94 1366.7 2403.45 1364.1 2408.72 1362.49 2415.75 1361.87 2422.76 1361.26 2428.22 1361.93 2432.13 1363.88 2436.04 1365.83 2438.18 1368.99 2438.56 1373.34 2438.94 1377.71 2437.38 1381.2 2433.87 1383.79ZM2403.66 1383.11C2406.79 1384.43 2411.47 1384.82 2417.71 1384.28 2422.96 1383.82 2427 1382.96 2429.84 1381.7L2401.25 1370.49C2399.25 1372.11 2398.37 1374.22 2398.59 1376.84 2398.84 1379.7 2400.53 1381.79 2403.66 1383.11ZM2404.57 1368.59 2432.86 1379.83C2434.68 1378.23 2435.47 1376.16 2435.25 1373.63 2435 1370.79 2433.31 1368.71 2430.18 1367.39 2427.05 1366.07 2422.36 1365.68 2416.13 1366.23 2411.27 1366.66 2407.41 1367.44 2404.57 1368.6Z"/><path d="M2314.61 1199.88C2311.1 1202.47 2305.84 1204.08 2298.83 1204.69 2291.78 1205.31 2286.31 1204.64 2282.41 1202.7 2278.51 1200.76 2276.37 1197.6 2275.99 1193.22 2275.61 1188.87 2277.17 1185.39 2280.68 1182.79 2284.19 1180.19 2289.46 1178.58 2296.49 1177.96 2303.5 1177.35 2308.96 1178.02 2312.87 1179.97 2316.78 1181.92 2318.92 1185.08 2319.3 1189.43 2319.68 1193.8 2318.12 1197.29 2314.61 1199.88ZM2284.41 1199.2C2287.54 1200.52 2292.23 1200.91 2298.46 1200.37 2303.71 1199.91 2307.75 1199.05 2310.59 1197.79L2282 1186.58C2280 1188.2 2279.11 1190.31 2279.34 1192.93 2279.59 1195.79 2281.28 1197.88 2284.41 1199.2ZM2285.31 1184.68 2313.6 1195.92C2315.42 1194.32 2316.21 1192.25 2315.99 1189.72 2315.74 1186.88 2314.05 1184.8 2310.92 1183.48 2307.79 1182.16 2303.11 1181.77 2296.87 1182.32 2292.01 1182.75 2288.15 1183.53 2285.31 1184.69Z"/><path d="M2317.83 1236.66C2314.32 1239.25 2309.06 1240.86 2302.05 1241.47 2295 1242.09 2289.53 1241.42 2285.63 1239.48 2281.73 1237.53 2279.59 1234.38 2279.21 1230 2278.83 1225.65 2280.39 1222.17 2283.9 1219.57 2287.41 1216.97 2292.68 1215.36 2299.71 1214.74 2306.72 1214.13 2312.18 1214.8 2316.09 1216.75 2320 1218.71 2322.14 1221.86 2322.52 1226.21 2322.9 1230.58 2321.34 1234.07 2317.83 1236.66ZM2287.62 1235.98C2290.75 1237.3 2295.43 1237.69 2301.67 1237.15 2306.92 1236.69 2310.97 1235.83 2313.8 1234.57L2285.21 1223.36C2283.21 1224.98 2282.32 1227.09 2282.55 1229.71 2282.8 1232.57 2284.49 1234.66 2287.62 1235.98ZM2288.53 1221.46 2316.82 1232.7C2318.64 1231.1 2319.43 1229.03 2319.21 1226.5 2318.96 1223.66 2317.27 1221.58 2314.14 1220.26 2311.01 1218.94 2306.32 1218.55 2300.09 1219.1 2295.23 1219.53 2291.37 1220.31 2288.53 1221.47Z"/><path d="M2321.05 1273.44C2317.54 1276.03 2312.28 1277.64 2305.27 1278.25 2298.22 1278.87 2292.75 1278.2 2288.85 1276.26 2284.95 1274.32 2282.81 1271.16 2282.43 1266.78 2282.05 1262.43 2283.61 1258.95 2287.12 1256.35 2290.63 1253.75 2295.9 1252.14 2302.93 1251.52 2309.94 1250.91 2315.4 1251.58 2319.31 1253.53 2323.22 1255.48 2325.36 1258.64 2325.74 1262.99 2326.12 1267.36 2324.56 1270.85 2321.05 1273.44ZM2290.84 1272.76C2293.97 1274.08 2298.66 1274.47 2304.89 1273.93 2310.14 1273.47 2314.18 1272.61 2317.02 1271.36L2288.43 1260.15C2286.43 1261.77 2285.55 1263.88 2285.77 1266.5 2286.02 1269.36 2287.71 1271.45 2290.84 1272.77ZM2291.75 1258.25 2320.04 1269.49C2321.86 1267.89 2322.65 1265.82 2322.43 1263.29 2322.18 1260.45 2320.49 1258.37 2317.36 1257.05 2314.23 1255.73 2309.54 1255.34 2303.31 1255.89 2298.45 1256.31 2294.59 1257.11 2291.75 1258.26Z"/><path d="M2324.27 1310.22C2320.76 1312.81 2315.5 1314.42 2308.49 1315.03 2301.44 1315.65 2295.97 1314.98 2292.07 1313.04 2288.17 1311.1 2286.03 1307.94 2285.65 1303.56 2285.27 1299.21 2286.83 1295.73 2290.34 1293.13 2293.85 1290.53 2299.12 1288.92 2306.15 1288.3 2313.16 1287.69 2318.62 1288.36 2322.53 1290.31 2326.44 1292.26 2328.58 1295.42 2328.96 1299.77 2329.34 1304.14 2327.78 1307.63 2324.27 1310.22ZM2294.06 1309.55C2297.19 1310.87 2301.88 1311.26 2308.11 1310.72 2313.36 1310.26 2317.4 1309.4 2320.24 1308.14L2291.65 1296.93C2289.65 1298.55 2288.76 1300.66 2288.99 1303.28 2289.24 1306.14 2290.93 1308.23 2294.06 1309.55ZM2294.97 1295.03 2323.26 1306.27C2325.07 1304.67 2325.87 1302.6 2325.65 1300.07 2325.4 1297.23 2323.71 1295.15 2320.58 1293.83 2317.45 1292.51 2312.77 1292.12 2306.53 1292.67 2301.66 1293.09 2297.81 1293.88 2294.97 1295.04Z"/><path d="M2329.33 1350.98 2327.62 1331.42 2311.77 1332.81 2313.26 1349.85 2309.86 1350.15 2308.37 1333.11 2289 1334.81 2288.66 1330.95 2330.78 1327.26 2332.88 1351.2 2329.34 1350.99Z"/><path d="M2332.55 1387.77 2330.84 1368.21 2314.99 1369.6 2316.48 1386.64 2313.08 1386.94 2311.59 1369.9 2292.22 1371.6 2291.88 1367.74 2334 1364.05 2336.09 1387.99 2332.55 1387.78Z"/><path d="M2200.7 1199.88C2197.19 1202.47 2191.93 1204.08 2184.92 1204.69 2177.87 1205.31 2172.4 1204.64 2168.5 1202.7 2164.6 1200.76 2162.46 1197.6 2162.08 1193.22 2161.7 1188.87 2163.26 1185.39 2166.77 1182.79 2170.28 1180.19 2175.55 1178.58 2182.58 1177.96 2189.59 1177.35 2195.05 1178.02 2198.96 1179.97 2202.87 1181.92 2205.01 1185.08 2205.39 1189.43 2205.77 1193.8 2204.21 1197.29 2200.7 1199.88ZM2170.5 1199.2C2173.63 1200.52 2178.32 1200.91 2184.55 1200.37 2189.8 1199.91 2193.85 1199.05 2196.68 1197.79L2168.09 1186.58C2166.09 1188.2 2165.2 1190.31 2165.43 1192.93 2165.68 1195.79 2167.37 1197.88 2170.5 1199.2ZM2171.4 1184.68 2199.69 1195.92C2201.51 1194.32 2202.3 1192.25 2202.08 1189.72 2201.83 1186.88 2200.14 1184.8 2197.01 1183.48 2193.88 1182.16 2189.2 1181.77 2182.96 1182.32 2178.1 1182.75 2174.24 1183.53 2171.4 1184.69Z"/><path d="M2203.92 1236.66C2200.41 1239.25 2195.15 1240.86 2188.14 1241.47 2181.09 1242.09 2175.62 1241.42 2171.72 1239.48 2167.82 1237.53 2165.68 1234.38 2165.3 1230 2164.92 1225.65 2166.48 1222.17 2169.99 1219.57 2173.5 1216.97 2178.77 1215.36 2185.8 1214.74 2192.81 1214.13 2198.27 1214.8 2202.18 1216.75 2206.09 1218.7 2208.23 1221.86 2208.61 1226.21 2208.99 1230.58 2207.43 1234.07 2203.92 1236.66ZM2173.71 1235.98C2176.84 1237.3 2181.52 1237.69 2187.76 1237.14 2193.01 1236.68 2197.05 1235.82 2199.89 1234.57L2171.3 1223.36C2169.3 1224.98 2168.42 1227.09 2168.64 1229.71 2168.89 1232.57 2170.58 1234.66 2173.71 1235.98ZM2174.62 1221.46 2202.91 1232.7C2204.73 1231.1 2205.52 1229.03 2205.3 1226.5 2205.05 1223.66 2203.36 1221.58 2200.23 1220.26 2197.1 1218.94 2192.41 1218.55 2186.18 1219.1 2181.32 1219.52 2177.46 1220.31 2174.62 1221.47Z"/><path d="M2209.15 1275.4 2168.25 1261.9 2168.99 1258.32 2208.61 1271.59 2206.85 1251.45 2210.22 1251.16 2212.32 1275.13 2209.16 1275.41Z"/><path d="M2212.36 1312.18 2171.46 1298.68 2172.2 1295.1 2211.82 1308.37 2210.06 1288.23 2213.43 1287.94 2215.53 1311.91 2212.37 1312.19Z"/><path d="M2215.42 1350.98 2213.71 1331.42 2197.86 1332.81 2199.35 1349.85 2195.95 1350.15 2194.46 1333.11 2175.09 1334.8 2174.75 1330.94 2216.87 1327.26 2218.96 1351.2 2215.42 1350.98Z"/><path d="M2218.64 1387.77 2216.93 1368.21 2201.08 1369.6 2202.57 1386.64 2199.17 1386.94 2197.68 1369.9 2178.31 1371.6 2177.97 1367.74 2220.09 1364.06 2222.18 1388 2218.64 1387.78Z"/><path d="M2095.25 1201.84 2054.35 1188.34 2055.09 1184.75 2094.71 1198.02 2092.95 1177.88 2096.32 1177.59 2098.42 1201.56 2095.26 1201.84Z"/><path d="M2098.47 1238.62 2057.57 1225.12 2058.31 1221.54 2097.93 1234.81 2096.17 1214.67 2099.54 1214.38 2101.64 1238.35 2098.48 1238.63Z"/><path d="M2099.68 1273.44C2096.17 1276.03 2090.91 1277.64 2083.9 1278.25 2076.85 1278.87 2071.38 1278.2 2067.48 1276.26 2063.58 1274.32 2061.44 1271.16 2061.06 1266.78 2060.68 1262.43 2062.24 1258.95 2065.75 1256.35 2069.26 1253.75 2074.53 1252.14 2081.56 1251.52 2088.57 1250.91 2094.03 1251.58 2097.94 1253.53 2101.85 1255.48 2103.99 1258.64 2104.37 1262.99 2104.75 1267.36 2103.19 1270.85 2099.68 1273.44ZM2069.47 1272.77C2072.6 1274.09 2077.29 1274.48 2083.52 1273.94 2088.77 1273.48 2092.81 1272.62 2095.65 1271.37L2067.06 1260.16C2065.06 1261.78 2064.17 1263.89 2064.4 1266.51 2064.65 1269.37 2066.34 1271.46 2069.47 1272.78ZM2070.38 1258.25 2098.67 1269.49C2100.48 1267.89 2101.28 1265.82 2101.06 1263.29 2100.81 1260.45 2099.12 1258.37 2095.99 1257.05 2092.86 1255.73 2088.18 1255.34 2081.94 1255.89 2077.07 1256.32 2073.22 1257.1 2070.38 1258.26Z"/><path d="M2102.89 1310.23C2099.38 1312.82 2094.12 1314.43 2087.11 1315.04 2080.06 1315.66 2074.59 1314.99 2070.69 1313.05 2066.79 1311.11 2064.65 1307.95 2064.27 1303.57 2063.89 1299.22 2065.45 1295.74 2068.96 1293.14 2072.47 1290.54 2077.74 1288.93 2084.77 1288.31 2091.78 1287.7 2097.24 1288.37 2101.15 1290.32 2105.06 1292.27 2107.2 1295.43 2107.58 1299.78 2107.96 1304.15 2106.4 1307.64 2102.89 1310.23ZM2072.69 1309.55C2075.82 1310.87 2080.51 1311.26 2086.74 1310.72 2091.99 1310.26 2096.03 1309.4 2098.87 1308.14L2070.28 1296.93C2068.28 1298.55 2067.4 1300.66 2067.62 1303.28 2067.87 1306.14 2069.56 1308.23 2072.69 1309.55ZM2073.6 1295.03 2101.89 1306.27C2103.71 1304.67 2104.5 1302.6 2104.28 1300.07 2104.03 1297.23 2102.34 1295.15 2099.21 1293.83 2096.08 1292.51 2091.39 1292.12 2085.16 1292.66 2080.3 1293.09 2076.44 1293.88 2073.6 1295.03Z"/><path d="M2107.96 1350.98 2106.25 1331.42 2090.4 1332.81 2091.89 1349.85 2088.49 1350.15 2087 1333.11 2067.63 1334.81 2067.29 1330.95 2109.41 1327.27 2111.5 1351.21 2107.96 1350.99Z"/><path d="M2111.18 1387.77 2109.47 1368.21 2093.62 1369.6 2095.11 1386.64 2091.71 1386.94 2090.22 1369.9 2070.85 1371.6 2070.51 1367.74 2112.63 1364.06 2114.72 1388 2111.18 1387.78Z"/></svg>