<?xml version="1.0" encoding="UTF-8" standalone="no"?>
<!-- Created with Inkscape (http://www.inkscape.org/) -->

<svg
   version="1.1"
   id="svg1"
   width="141.33333"
   height="141.33333"
   viewBox="0 0 141.33333 141.33333"
   sodipodi:docname="ICC.svg"
   inkscape:version="1.4.3 (1:1.4.3+202512261035+0d15f75042)"
   xmlns:inkscape="http://www.inkscape.org/namespaces/inkscape"
   xmlns:sodipodi="http://sodipodi.sourceforge.net/DTD/sodipodi-0.dtd"
   xmlns="http://www.w3.org/2000/svg"
   xmlns:svg="http://www.w3.org/2000/svg">
  <defs
     id="defs1">
    <clipPath
       clipPathUnits="userSpaceOnUse"
       id="clipPath18">
      <path
         d="M 8.8320302,530.04299 C 8.8320302,816.648 241.17201,1048.99 527.77701,1048.99 814.38702,1048.99 1046.73,816.648 1046.73,530.04299 1046.73,243.43798 814.38702,11.093775 527.77701,11.093775 241.17201,11.093775 8.8320302,243.43798 8.8320302,530.04299 Z"
         id="path18" />
    </clipPath>
  </defs>
  <sodipodi:namedview
     id="namedview1"
     pagecolor="#ffffff"
     bordercolor="#000000"
     borderopacity="0.25"
     inkscape:showpageshadow="2"
     inkscape:pageopacity="0.0"
     inkscape:pagecheckerboard="0"
     inkscape:deskcolor="#d1d1d1"
     inkscape:zoom="6.5660381"
     inkscape:cx="70.590514"
     inkscape:cy="70.666663"
     inkscape:window-width="1920"
     inkscape:window-height="1168"
     inkscape:window-x="2560"
     inkscape:window-y="0"
     inkscape:window-maximized="1"
     inkscape:current-layer="g1">
    <inkscape:page
       x="0"
       y="0"
       inkscape:label="1"
       id="page1"
       width="141.33333"
       height="141.33333"
       margin="0"
       bleed="0" />
  </sodipodi:namedview>
  <g
     id="g1"
     inkscape:groupmode="layer"
     inkscape:label="1">
    <path
       id="path1"
       d="M 527.645,532.645 120.648,854.254 C 49.6719,765.676 7.12891,653.332 7.12891,530.984 c 0,-40.261 4.74609,-79.39 13.44529,-117.019 l 507.0588,118.664 0.012,0.016 v 0"
       style="fill:#009857;fill-opacity:1;fill-rule:nonzero;stroke:none"
       transform="matrix(0.13333333,0,0,-0.13333333,0,141.33333)" />
    <path
       id="path2"
       d="m 527.617,1048.43 c -1,0 -1.98,0.07 -2.976,0.07 -163.477,0 -309.153,-75.879 -403.993,-194.246 l 406.997,-321.609 -0.028,515.785 v 0"
       style="fill:#e31b22;fill-opacity:1;fill-rule:nonzero;stroke:none"
       transform="matrix(0.13333333,0,0,-0.13333333,0,141.33333)" />
    <path
       id="path3"
       d="M 928.594,854.301 C 834.336,971.918 689.863,1047.5 527.617,1048.43 l 0.028,-515.785 400.949,321.656 v 0"
       style="fill:#00adef;fill-opacity:1;fill-rule:nonzero;stroke:none"
       transform="matrix(0.13333333,0,0,-0.13333333,0,141.33333)" />
    <path
       id="path4"
       d="m 928.594,854.301 -400.949,-321.656 0.046,-0.008 0.024,0.004 -0.024,-0.004 502.169,-113.606 c 7.97,36.067 12.29,73.496 12.29,111.953 0,122.368 -42.56,234.731 -113.556,323.317 v 0"
       style="fill:#ec008c;fill-opacity:1;fill-rule:nonzero;stroke:none"
       transform="matrix(0.13333333,0,0,-0.13333333,0,141.33333)" />
    <path
       id="path5"
       d="M 527.656,532.629 752.707,66.4063 C 891.809,134.824 995.625,263.84 1029.86,419.031 l -502.169,113.606 -0.035,-0.008 v 0"
       style="fill:#fff200;fill-opacity:1;fill-rule:nonzero;stroke:none"
       transform="matrix(0.13333333,0,0,-0.13333333,0,141.33333)" />
    <path
       id="path6"
       d="M 20.5742,413.965 C 56.625,258.105 162.973,129.23 304.527,62.5898 L 527.633,532.629 20.5742,413.965 v 0"
       style="fill:#214395;fill-opacity:1;fill-rule:nonzero;stroke:none"
       transform="matrix(0.13333333,0,0,-0.13333333,0,141.33333)" />
    <path
       id="path7"
       d="M 527.633,532.629 304.527,62.5898 c 66.801,-31.4453 141.379,-49.1054 220.114,-49.1054 81.863,0 159.246,19.0742 228.066,52.9219 L 527.656,532.629 h -0.023 v 0"
       style="fill:#0e0d0f;fill-opacity:1;fill-rule:nonzero;stroke:none"
       transform="matrix(0.13333333,0,0,-0.13333333,0,141.33333)" />
    <path
       id="path8"
       d="m 8.83203,530.043 c 0,286.605 232.33997,518.947 518.94497,518.947 286.61,0 518.953,-232.342 518.953,-518.947 C 1046.73,243.438 814.387,11.0938 527.777,11.0938 241.172,11.0938 8.83203,243.438 8.83203,530.043 Z"
       style="fill:none;stroke:#231f20;stroke-width:10;stroke-linecap:butt;stroke-linejoin:miter;stroke-miterlimit:3.8637;stroke-dasharray:none;stroke-opacity:1"
       transform="matrix(0.13333333,0,0,-0.13333333,0,141.33333)" />
    <path
       id="path9"
       d="m 102.543,525.117 c 0,235.442 190.855,426.289 426.289,426.289 235.438,0 426.297,-190.847 426.297,-426.289 C 955.129,289.68 764.27,98.8281 528.832,98.8281 293.398,98.8281 102.543,289.68 102.543,525.117 v 0"
       style="fill:#0e0d0f;fill-opacity:1;fill-rule:nonzero;stroke:none"
       transform="matrix(0.13333333,0,0,-0.13333333,0,141.33333)" />
    <path
       id="path10"
       d="m 102.543,525.117 c 0,235.442 190.855,426.289 426.289,426.289 235.438,0 426.297,-190.847 426.297,-426.289 C 955.129,289.68 764.27,98.8281 528.832,98.8281 293.398,98.8281 102.543,289.68 102.543,525.117 Z"
       style="fill:none;stroke:#0e0d0f;stroke-width:26.508;stroke-linecap:butt;stroke-linejoin:miter;stroke-miterlimit:3.8637;stroke-dasharray:none;stroke-opacity:1"
       transform="matrix(0.13333333,0,0,-0.13333333,0,141.33333)" />
    <path
       id="path11"
       d="m 165.445,333.445 c -4.82,45.278 129.102,222.059 363.719,255.793 C 762.219,622.754 954.289,521.289 944.875,445.684 926.105,294.895 764.27,98.8281 528.832,98.8281 293.398,98.8281 173.301,259.641 165.445,333.445 v 0"
       style="fill:#ffffff;fill-opacity:1;fill-rule:nonzero;stroke:none"
       transform="matrix(0.13333333,0,0,-0.13333333,0,141.33333)" />
    <path
       id="path12"
       d="m 710.527,319.402 c 130.559,134.094 -85.742,216.368 -86.023,201.356 0.562,-1.637 -3.957,1.383 0,-12.809 71.387,-26.054 39.676,-142.004 -25.637,-142.793 -66.91,-1.523 -85.679,41.465 -82.383,80.559 2.36,49.961 44.297,45.281 34.805,71.367 C 549.805,520.66 459.215,510.82 443.27,443.867 421.777,355.852 480.305,307.383 540.293,264.48 325.953,334.375 400.004,431.758 379.211,405.438 267.727,268.574 171.063,284.922 177.852,288.293 c 147.578,75.762 207.144,261.391 351.449,289.211 180.484,36.223 283.824,-83.449 389.91,-102.516 0.867,-0.652 -37.063,-2.136 -60.41,0 -32.832,1.914 -82.004,13.032 -82.383,12.817 53.289,-93.34 -35.234,-178.508 -34.777,-179.387 l -31.114,10.984 v 0"
       style="fill:#ffffff;fill-opacity:1;fill-rule:nonzero;stroke:none"
       transform="matrix(0.13333333,0,0,-0.13333333,0,141.33333)" />
    <path
       id="path13"
       d="m 710.527,319.402 c 130.559,134.094 -85.742,216.368 -86.023,201.356 0.562,-1.637 -3.957,1.383 0,-12.809 71.387,-26.054 39.676,-142.004 -25.637,-142.793 -66.91,-1.523 -85.679,41.465 -82.383,80.559 2.36,49.961 44.297,45.281 34.805,71.367 C 549.805,520.66 459.215,510.82 443.27,443.867 421.777,355.852 480.305,307.383 540.293,264.48 325.953,334.375 400.004,431.758 379.211,405.438 267.727,268.574 171.063,284.922 177.852,288.293 c 147.578,75.762 207.144,261.391 351.449,289.211 180.484,36.223 283.824,-83.449 389.91,-102.516 0.867,-0.652 -37.063,-2.136 -60.41,0 -32.832,1.914 -82.004,13.032 -82.383,12.817 53.289,-93.34 -35.234,-178.508 -34.777,-179.387 l -31.114,10.984 z"
       style="fill:none;stroke:#ffffff;stroke-width:6.627;stroke-linecap:butt;stroke-linejoin:miter;stroke-miterlimit:3.8637;stroke-dasharray:none;stroke-opacity:1"
       transform="matrix(0.13333333,0,0,-0.13333333,0,141.33333)" />
    <path
       id="path14"
       d="m 713.254,306.836 c 130.555,134.082 -85.742,216.363 -86.027,201.348 0.566,-1.641 -3.957,1.386 0,-12.801 71.386,-26.059 39.675,-142.004 -25.633,-142.793 -66.91,-1.535 -85.68,41.453 -82.383,80.555 2.355,49.96 44.297,45.273 34.805,71.367 -1.489,3.574 -92.078,-6.258 -108.02,-73.211 C 424.504,343.281 483.027,294.805 543.02,251.914 328.676,321.809 402.734,419.188 381.934,392.871 270.449,256.008 173.789,272.344 180.574,275.715 c 147.578,75.769 207.145,261.394 351.453,289.219 180.485,36.218 283.825,-83.457 389.907,-102.52 0.871,-0.656 -37.059,-2.133 -60.411,0 -32.832,1.922 -82.003,13.035 -82.382,12.82 53.281,-93.339 -35.235,-178.515 -34.778,-179.382 l -31.109,10.984 v 0"
       style="fill:#0e0d0f;fill-opacity:1;fill-rule:nonzero;stroke:none"
       transform="matrix(0.13333333,0,0,-0.13333333,0,141.33333)" />
    <path
       id="path15"
       d="m 713.254,306.836 c 130.555,134.082 -85.742,216.363 -86.027,201.348 0.566,-1.641 -3.957,1.386 0,-12.801 71.386,-26.059 39.675,-142.004 -25.633,-142.793 -66.91,-1.535 -85.68,41.453 -82.383,80.555 2.355,49.96 44.297,45.273 34.805,71.367 -1.489,3.574 -92.078,-6.258 -108.02,-73.211 C 424.504,343.281 483.027,294.805 543.02,251.914 328.676,321.809 402.734,419.188 381.934,392.871 270.449,256.008 173.789,272.344 180.574,275.715 c 147.578,75.769 207.145,261.394 351.453,289.219 180.485,36.218 283.825,-83.457 389.907,-102.52 0.871,-0.656 -37.059,-2.133 -60.411,0 -32.832,1.922 -82.003,13.035 -82.382,12.82 53.281,-93.339 -35.235,-178.515 -34.778,-179.382 l -31.109,10.984 z"
       style="fill:none;stroke:#0e0d0f;stroke-width:6.627;stroke-linecap:butt;stroke-linejoin:miter;stroke-miterlimit:3.8637;stroke-dasharray:none;stroke-opacity:1"
       transform="matrix(0.13333333,0,0,-0.13333333,0,141.33333)" />
    <path
       id="path16"
       d="m 102.543,525.117 c 0,235.442 190.855,426.289 426.289,426.289 235.438,0 426.297,-190.847 426.297,-426.289 C 955.129,289.68 764.27,98.8281 528.832,98.8281 293.398,98.8281 102.543,289.68 102.543,525.117 Z"
       style="fill:none;stroke:#0e0d0f;stroke-width:26.508;stroke-linecap:butt;stroke-linejoin:miter;stroke-miterlimit:3.8637;stroke-dasharray:none;stroke-opacity:1"
       transform="matrix(0.13333333,0,0,-0.13333333,0,141.33333)" />
    <path
       id="path17"
       d="M 967.414,252.18 945.129,220.273 639.102,328.406 967.414,252.18 v 0"
       style="fill:#0e0d0f;fill-opacity:1;fill-rule:nonzero;stroke:none"
       transform="matrix(0.13333333,0,0,-0.13333333,0,141.33333)"
       clip-path="url(#clipPath18)" />
    <path
       id="path19"
       d="M 877.793,143.477 857.121,127.449 638.848,328.27 897.031,168.977 l -19.238,-25.5 v 0"
       style="fill:#00adef;fill-opacity:1;fill-rule:nonzero;stroke:none"
       transform="matrix(0.13333333,0,0,-0.13333333,0,141.33333)"
       clip-path="url(#clipPath18)" />
    <path
       id="path20"
       d="M 845.891,119.434 786.73,84.3242 638.828,328.203 845.891,119.434 v 0"
       style="fill:#ec008c;fill-opacity:1;fill-rule:nonzero;stroke:none"
       transform="matrix(0.13333333,0,0,-0.13333333,0,141.33333)"
       clip-path="url(#clipPath18)" />
    <path
       id="path21"
       d="M 924.289,194.621 906.648,175.383 639.031,328.281 940.32,212.258 924.289,194.621 v 0"
       style="fill:#fff200;fill-opacity:1;fill-rule:nonzero;stroke:none"
       transform="matrix(0.13333333,0,0,-0.13333333,0,141.33333)"
       clip-path="url(#clipPath18)" />
    <path
       id="path22"
       d="m 8.83203,530.043 c 0,286.605 232.33997,518.947 518.94497,518.947 286.61,0 518.953,-232.342 518.953,-518.947 C 1046.73,243.438 814.387,11.0938 527.777,11.0938 241.172,11.0938 8.83203,243.438 8.83203,530.043 Z"
       style="fill:none;stroke:#0e0d0f;stroke-width:26.508;stroke-linecap:butt;stroke-linejoin:miter;stroke-miterlimit:3.8637;stroke-dasharray:none;stroke-opacity:1"
       transform="matrix(0.13333333,0,0,-0.13333333,0,141.33333)" />
    <path
       id="path23"
       d="m 292.145,640.398 -0.082,267.258 h -72.122 l 0.082,-267.258 h 72.122 v 0"
       style="fill:#0e0d0f;fill-opacity:1;fill-rule:nonzero;stroke:none"
       transform="matrix(0.13333333,0,0,-0.13333333,0,141.33333)" />
    <path
       id="path24"
       d="m 311.516,611.363 -0.086,267.254 h -72.114 l 0.082,-267.254 h 72.118 v 0"
       style="fill:#ffffff;fill-opacity:1;fill-rule:nonzero;stroke:none"
       transform="matrix(0.13333333,0,0,-0.13333333,0,141.33333)" />
    <path
       id="path25"
       d="m 463.691,606.918 c 67.34,-0.004 104.114,22.945 104.082,94.387 l -71.156,0.004 c -0.953,-21.098 0.492,-54.414 -32.941,-54.414 -40.594,0 -45.856,29.613 -45.879,98.089 -0.02,68.485 5.226,98.09 45.82,98.09 21.488,0 29.613,-13.324 29.625,-48.859 h 70.684 c 2.851,57.379 -26.774,88.844 -100.317,88.844 -118.925,0 -118.902,-67.371 -118.882,-138.075 0.023,-69.957 0.043,-138.066 118.964,-138.066 v 0"
       style="fill:#ffffff;fill-opacity:1;fill-rule:nonzero;stroke:none"
       transform="matrix(0.13333333,0,0,-0.13333333,0,141.33333)" />
    <path
       id="path26"
       d="m 705.156,606.914 c 67.332,-0.004 104.102,22.945 104.082,94.391 h -71.164 c -0.945,-21.106 0.5,-54.414 -32.937,-54.414 -40.594,0 -45.848,29.613 -45.879,98.089 -0.02,68.481 5.222,98.09 45.82,98.09 21.492,0 29.617,-13.32 29.629,-48.855 l 70.684,-0.004 c 2.839,57.375 -26.778,88.84 -100.325,88.84 -118.921,0 -118.894,-67.367 -118.875,-138.067 0.02,-69.961 0.039,-138.07 118.965,-138.07 v 0"
       style="fill:#ffffff;fill-opacity:1;fill-rule:nonzero;stroke:none"
       transform="matrix(0.13333333,0,0,-0.13333333,0,141.33333)" />
  </g>
</svg>
